GeoramaSemiCondensed-Light.ufo
<glyph name="exclam" format="2">
  <advance width="174.32"/>
  <unicode hex="0021"/>
  <outline>
    <contour>
      <point x="61.96000000000001" y="263.0" type="line"/>
      <point x="112.32" y="263.0" type="line"/>
      <point x="115.68" y="740.0" type="line"/>
      <point x="59.080000000000005" y="740.0" type="line"/>
    </contour>
    <contour>
      <point x="54.08" y="34.84" type="curve" smooth="yes"/>
      <point x="54.08" y="6.5600000000000005"/>
      <point x="61.32" y="-2.04"/>
      <point x="87.16" y="-2.04" type="curve" smooth="yes"/>
      <point x="113.80000000000001" y="-2.04"/>
      <point x="120.24000000000001" y="6.5600000000000005"/>
      <point x="120.24000000000001" y="34.84" type="curve" smooth="yes"/>
      <point x="120.24000000000001" y="63.32"/>
      <point x="113.80000000000001" y="71.92"/>
      <point x="87.16" y="71.92" type="curve" smooth="yes"/>
      <point x="60.52" y="71.92"/>
      <point x="54.08" y="63.32"/>
    </contour>
  </outline>
</glyph>
<glyph name="numbersign" format="2">
  <advance width="434.64"/>
  <unicode hex="0023"/>
  <outline>
    <contour>
      <point x="59.080000000000005" y="464.08" type="line"/>
      <point x="132.04" y="464.08" type="line"/>
      <point x="97.92" y="232.28" type="line"/>
      <point x="30.36" y="232.28" type="line"/>
      <point x="30.36" y="184.68" type="line"/>
      <point x="92.88" y="184.68" type="line"/>
      <point x="66.92" y="0.0" type="line"/>
      <point x="115.32" y="0.0" type="line"/>
      <point x="141.28000000000003" y="184.68" type="line"/>
      <point x="250.04000000000002" y="184.68" type="line"/>
      <point x="224.08" y="0.0" type="line"/>
      <point x="272.48" y="0.0" type="line"/>
      <point x="298.44" y="184.68" type="line"/>
      <point x="375.6" y="184.68" type="line"/>
      <point x="375.6" y="232.28" type="line"/>
      <point x="303.48" y="232.28" type="line"/>
      <point x="337.6" y="464.08" type="line"/>
      <point x="404.32" y="464.08" type="line"/>
      <point x="404.32" y="511.91999999999996" type="line"/>
      <point x="343.08" y="511.91999999999996" type="line"/>
      <point x="370.12" y="700.0" type="line"/>
      <point x="321.72" y="700.0" type="line"/>
      <point x="294.68" y="511.91999999999996" type="line"/>
      <point x="185.92000000000002" y="511.91999999999996" type="line"/>
      <point x="212.96" y="700.0" type="line"/>
      <point x="164.56" y="700.0" type="line"/>
      <point x="137.52" y="511.91999999999996" type="line"/>
      <point x="59.080000000000005" y="511.91999999999996" type="line"/>
    </contour>
    <contour>
      <point x="180.44" y="464.08" type="line"/>
      <point x="289.20000000000005" y="464.08" type="line"/>
      <point x="255.08" y="232.28" type="line"/>
      <point x="146.32" y="232.28" type="line"/>
    </contour>
  </outline>
</glyph>
<glyph name="dollar" format="2">
  <advance width="434.64"/>
  <unicode hex="0024"/>
  <outline>
    <contour>
      <point x="199.76" y="-10.0" type="curve" smooth="yes"/>
      <point x="312.44" y="-10.479999999999999"/>
      <point x="384.76" y="43.8"/>
      <point x="384.76" y="150.36" type="curve" smooth="yes"/>
      <point x="384.76" y="254.39999999999998"/>
      <point x="328.76000000000005" y="314.47999999999996"/>
      <point x="246.04" y="369.72" type="curve" smooth="yes"/>
      <point x="169.64000000000001" y="421.72"/>
      <point x="120.48" y="473.91999999999996"/>
      <point x="120.48" y="553.28" type="curve" smooth="yes"/>
      <point x="120.48" y="619.48"/>
      <point x="162.12" y="658.8000000000001"/>
      <point x="235.28" y="658.8000000000001" type="curve" smooth="yes"/>
      <point x="273.28" y="658.8000000000001"/>
      <point x="315.56" y="650.4399999999999"/>
      <point x="348.4" y="638.2" type="curve"/>
      <point x="361.76" y="685.88" type="line"/>
      <point x="326.72" y="700.3999999999999"/>
      <point x="275.52" y="710.0"/>
      <point x="229.6" y="710.0" type="curve" smooth="yes"/>
      <point x="126.24000000000002" y="709.6800000000001"/>
      <point x="64.44" y="650.6400000000001"/>
      <point x="64.44" y="551.92" type="curve" smooth="yes"/>
      <point x="64.44" y="449.79999999999995"/>
      <point x="118.96000000000001" y="386.16"/>
      <point x="198.76" y="330.20000000000005" type="curve" smooth="yes"/>
      <point x="277.92" y="275.64000000000004"/>
      <point x="329.24000000000007" y="224.48"/>
      <point x="329.24000000000007" y="146.11999999999998" type="curve" smooth="yes"/>
      <point x="329.24000000000007" y="80.36"/>
      <point x="285.56" y="40.56"/>
      <point x="205.04" y="40.56" type="curve" smooth="yes"/>
      <point x="161.16" y="40.56"/>
      <point x="106.84" y="50.559999999999995"/>
      <point x="62.68" y="67.44" type="curve"/>
      <point x="49.96" y="19.04" type="line"/>
      <point x="91.48000000000002" y="1.8800000000000008"/>
      <point x="151.44" y="-9.84"/>
    </contour>
    <contour>
      <point x="199.44" y="-105.0" type="line"/>
      <point x="249.27999999999997" y="-105.0" type="line"/>
      <point x="249.27999999999997" y="4.2" type="line"/>
      <point x="199.44" y="-1.1599999999999997" type="line"/>
    </contour>
    <contour>
      <point x="199.44" y="698.04" type="line"/>
      <point x="249.27999999999997" y="701.9599999999999" type="line"/>
      <point x="249.27999999999997" y="804.6800000000001" type="line"/>
      <point x="199.44" y="804.6800000000001" type="line"/>
    </contour>
  </outline>
</glyph>
<glyph name="ampersand" format="2">
  <advance width="506.56"/>
  <unicode hex="0026"/>
  <outline>
    <contour>
      <point x="443.64000000000004" y="-11.56" type="line"/>
      <point x="502.08000000000004" y="-1.92" type="line"/>
      <point x="184.68000000000004" y="409.76000000000005" type="line" smooth="yes"/>
      <point x="148.04" y="460.71999999999997"/>
      <point x="134.35999999999999" y="504.11999999999995"/>
      <point x="134.35999999999999" y="546.96" type="curve" smooth="yes"/>
      <point x="134.35999999999999" y="620.8399999999999"/>
      <point x="168.08" y="659.1999999999999"/>
      <point x="232.24" y="659.1999999999999" type="curve" smooth="yes"/>
      <point x="293.32" y="659.1999999999999"/>
      <point x="323.2" y="619.92"/>
      <point x="323.2" y="552.28" type="curve" smooth="yes"/>
      <point x="323.2" y="502.32000000000005"/>
      <point x="310.71999999999997" y="464.2"/>
      <point x="275.48" y="437.36" type="curve"/>
      <point x="300.64000000000004" y="407.88" type="line"/>
      <point x="352.68" y="443.88000000000005"/>
      <point x="373.8" y="495.8399999999999"/>
      <point x="373.8" y="561.88" type="curve" smooth="yes"/>
      <point x="373.8" y="657.4399999999999"/>
      <point x="324.84000000000003" y="710.0"/>
      <point x="231.23999999999998" y="710.0" type="curve" smooth="yes"/>
      <point x="128.8" y="710.0"/>
      <point x="77.96000000000001" y="652.5200000000001"/>
      <point x="77.96000000000001" y="547.36" type="curve" smooth="yes"/>
      <point x="77.96000000000001" y="493.64"/>
      <point x="96.67999999999999" y="437.59999999999997"/>
      <point x="137.92" y="378.76000000000005" type="curve" smooth="yes"/>
    </contour>
    <contour>
      <point x="216.16" y="-10.0" type="curve" smooth="yes"/>
      <point x="289.52" y="-10.0"/>
      <point x="344.36" y="22.080000000000002"/>
      <point x="382.03999999999996" y="82.83999999999999" type="curve"/>
      <point x="355.0" y="122.11999999999999" type="line"/>
      <point x="325.08000000000004" y="67.8"/>
      <point x="286.52" y="38.0"/>
      <point x="221.16000000000003" y="38.0" type="curve" smooth="yes"/>
      <point x="135.2" y="38.0"/>
      <point x="83.0" y="99.52"/>
      <point x="83.0" y="186.48000000000002" type="curve" smooth="yes"/>
      <point x="83.0" y="265.96000000000004"/>
      <point x="109.64" y="313.48"/>
      <point x="168.28" y="361.68" type="curve"/>
      <point x="142.72" y="398.20000000000005" type="line"/>
      <point x="64.32" y="345.6"/>
      <point x="29.2" y="279.36000000000007"/>
      <point x="29.2" y="181.88000000000002" type="curve" smooth="yes"/>
      <point x="29.2" y="67.91999999999999"/>
      <point x="98.32000000000001" y="-10.0"/>
    </contour>
    <contour>
      <point x="408.32000000000005" y="107.88" type="line"/>
      <point x="437.96000000000004" y="164.56"/>
      <point x="455.36" y="235.92"/>
      <point x="455.36" y="314.23999999999995" type="curve" smooth="yes"/>
      <point x="455.36" y="337.2"/>
      <point x="453.79999999999995" y="354.64"/>
      <point x="450.2" y="373.31999999999994" type="curve"/>
      <point x="403.6" y="370.44" type="line"/>
      <point x="407.0" y="353.16"/>
      <point x="408.23999999999995" y="338.03999999999996"/>
      <point x="408.04" y="318.64" type="curve" smooth="yes"/>
      <point x="407.84000000000003" y="252.92"/>
      <point x="396.48" y="195.64000000000001"/>
      <point x="376.59999999999997" y="154.71999999999997" type="curve"/>
    </contour>
  </outline>
</glyph>
<glyph name="quotesingle" format="2">
  <advance width="145.67999999999998"/>
  <unicode hex="0027"/>
  <outline>
    <contour>
      <point x="51.2" y="427.0" type="line"/>
      <point x="94.0" y="427.0" type="line"/>
      <point x="99.83999999999999" y="700.0" type="line"/>
      <point x="45.84" y="700.0" type="line"/>
    </contour>
  </outline>
</glyph>
<glyph name="parenleft" format="2">
  <advance width="242.23999999999998"/>
  <unicode hex="0028"/>
  <outline>
    <contour>
      <point x="61.199999999999996" y="265.0" type="curve" smooth="yes"/>
      <point x="61.199999999999996" y="-4.559999999999999"/>
      <point x="118.76" y="-193.0"/>
      <point x="230.79999999999998" y="-220.64000000000001" type="curve"/>
      <point x="230.79999999999998" y="-169.44" type="line"/>
      <point x="152.6" y="-135.23999999999998"/>
      <point x="110.56000000000002" y="13.88"/>
      <point x="110.56000000000002" y="265.0" type="curve" smooth="yes"/>
      <point x="110.56000000000002" y="516.12"/>
      <point x="152.6" y="665.24"/>
      <point x="230.79999999999998" y="699.44" type="curve"/>
      <point x="230.79999999999998" y="750.6399999999999" type="line"/>
      <point x="118.76" y="723.0"/>
      <point x="61.199999999999996" y="534.5600000000001"/>
    </contour>
  </outline>
</glyph>
<glyph name="parenright" format="2">
  <advance width="242.23999999999998"/>
  <unicode hex="0029"/>
  <outline>
    <contour>
      <point x="11.44" y="-169.44" type="curve"/>
      <point x="11.44" y="-220.64000000000001" type="line"/>
      <point x="123.48" y="-193.0"/>
      <point x="181.04" y="-4.559999999999999"/>
      <point x="181.04" y="265.0" type="curve" smooth="yes"/>
      <point x="181.04" y="534.5600000000001"/>
      <point x="123.48" y="723.0"/>
      <point x="11.44" y="750.6399999999999" type="curve"/>
      <point x="11.44" y="699.44" type="line"/>
      <point x="89.64" y="665.24"/>
      <point x="131.68" y="516.12"/>
      <point x="131.68" y="265.0" type="curve" smooth="yes"/>
      <point x="131.68" y="13.88"/>
      <point x="89.64" y="-135.23999999999998"/>
    </contour>
  </outline>
</glyph>
<glyph name="asterisk" format="2">
  <advance width="265.44"/>
  <unicode hex="002A"/>
  <outline>
    <contour>
      <point x="67.92" y="384.24" type="line"/>
      <point x="132.88" y="482.16" type="line"/>
      <point x="197.20000000000002" y="384.08" type="line"/>
      <point x="223.23999999999998" y="401.91999999999996" type="line"/>
      <point x="161.88" y="505.96000000000004" type="line"/>
      <point x="261.84000000000003" y="552.2" type="line"/>
      <point x="251.12000000000003" y="581.48" type="line"/>
      <point x="151.52" y="541.9599999999999" type="line"/>
      <point x="149.16" y="666.96" type="line"/>
      <point x="116.60000000000001" y="666.96" type="line"/>
      <point x="114.24000000000001" y="541.9599999999999" type="line"/>
      <point x="14.32" y="581.48" type="line"/>
      <point x="3.6" y="552.2" type="line"/>
      <point x="103.88000000000001" y="505.96000000000004" type="line"/>
      <point x="41.720000000000006" y="402.24" type="line"/>
    </contour>
  </outline>
</glyph>
<glyph name="plus" format="2">
  <advance width="424.88"/>
  <unicode hex="002B"/>
  <outline>
    <contour>
      <point x="186.72" y="87.16" type="line"/>
      <point x="238.12" y="87.16" type="line"/>
      <point x="238.12" y="272.0" type="line"/>
      <point x="380.71999999999997" y="272.0" type="line"/>
      <point x="380.71999999999997" y="321.79999999999995" type="line"/>
      <point x="238.12" y="321.79999999999995" type="line"/>
      <point x="238.12" y="506.6" type="line"/>
      <point x="186.72" y="506.6" type="line"/>
      <point x="186.72" y="321.79999999999995" type="line"/>
      <point x="44.160000000000004" y="321.79999999999995" type="line"/>
      <point x="44.160000000000004" y="272.0" type="line"/>
      <point x="186.72" y="272.0" type="line"/>
    </contour>
  </outline>
</glyph>
<glyph name="comma" format="2">
  <advance width="140.56"/>
  <unicode hex="002C"/>
  <outline>
    <contour>
      <point x="42.28000000000001" y="48.44" type="line"/>
      <point x="49.4" y="25.000000000000004"/>
      <point x="52.96000000000001" y="0.40000000000000036"/>
      <point x="52.96000000000001" y="-17.119999999999997" type="curve" smooth="yes"/>
      <point x="52.96000000000001" y="-76.60000000000001"/>
      <point x="33.16" y="-142.8"/>
      <point x="-10.92" y="-179.23999999999998" type="curve"/>
      <point x="27.640000000000004" y="-198.88" type="line"/>
      <point x="85.0" y="-154.52"/>
      <point x="106.48" y="-77.6"/>
      <point x="106.48" y="-16.28" type="curve" smooth="yes"/>
      <point x="106.48" y="8.52"/>
      <point x="102.48" y="32.44"/>
      <point x="95.12" y="54.56" type="curve"/>
    </contour>
  </outline>
</glyph>
<glyph name="hyphen" format="2">
  <advance width="256.48"/>
  <unicode hex="002D"/>
  <outline>
    <contour>
      <point x="26.32" y="250.8" type="line"/>
      <point x="230.16" y="250.8" type="line"/>
      <point x="230.16" y="302.96000000000004" type="line"/>
      <point x="26.32" y="302.96000000000004" type="line"/>
    </contour>
  </outline>
</glyph>
<glyph name="period" format="2">
  <advance width="141.2"/>
  <unicode hex="002E"/>
  <outline>
    <contour>
      <point x="37.599999999999994" y="35.32" type="curve" smooth="yes"/>
      <point x="37.599999999999994" y="7.04"/>
      <point x="44.84" y="-1.56"/>
      <point x="70.68" y="-1.56" type="curve" smooth="yes"/>
      <point x="97.32000000000001" y="-1.56"/>
      <point x="103.75999999999999" y="7.04"/>
      <point x="103.75999999999999" y="35.32" type="curve" smooth="yes"/>
      <point x="103.75999999999999" y="63.800000000000004"/>
      <point x="97.32000000000001" y="72.4"/>
      <point x="70.68" y="72.4" type="curve" smooth="yes"/>
      <point x="44.04" y="72.4"/>
      <point x="37.599999999999994" y="63.800000000000004"/>
    </contour>
  </outline>
</glyph>
<glyph name="slash" format="2">
  <advance width="280.52"/>
  <unicode hex="002F"/>
  <outline>
    <contour>
      <point x="1.6799999999999997" y="-210.0" type="line"/>
      <point x="50.2" y="-210.0" type="line"/>
      <point x="278.84" y="740.0" type="line"/>
      <point x="230.15999999999997" y="740.0" type="line"/>
    </contour>
  </outline>
</glyph>
<glyph name="zero" format="2">
  <advance width="434.64"/>
  <unicode hex="0030"/>
  <outline>
    <contour>
      <point x="22.12" y="350.0" type="curve" smooth="yes"/>
      <point x="22.12" y="72.03999999999999"/>
      <point x="95.32000000000001" y="-10.0"/>
      <point x="217.32" y="-10.0" type="curve" smooth="yes"/>
      <point x="338.9200000000001" y="-10.0"/>
      <point x="412.52000000000004" y="72.67999999999999"/>
      <point x="412.52000000000004" y="350.0" type="curve" smooth="yes"/>
      <point x="412.52000000000004" y="628.12"/>
      <point x="341.32000000000005" y="710.0"/>
      <point x="217.32" y="710.0" type="curve" smooth="yes"/>
      <point x="94.84000000000002" y="710.0"/>
      <point x="22.12" y="629.4"/>
    </contour>
    <contour>
      <point x="79.08000000000001" y="347.91999999999996" type="curve" smooth="yes"/>
      <point x="79.08000000000001" y="597.88"/>
      <point x="133.64000000000001" y="659.5999999999999"/>
      <point x="217.32" y="659.5999999999999" type="curve" smooth="yes"/>
      <point x="301.08000000000004" y="659.5999999999999"/>
      <point x="355.64000000000004" y="598.04"/>
      <point x="355.64000000000004" y="347.91999999999996" type="curve" smooth="yes"/>
      <point x="355.64000000000004" y="103.72"/>
      <point x="301.56000000000006" y="40.4"/>
      <point x="217.32" y="40.4" type="curve" smooth="yes"/>
      <point x="133.15999999999997" y="40.4"/>
      <point x="79.08000000000001" y="103.56"/>
    </contour>
  </outline>
</glyph>
<glyph name="one" format="2">
  <advance width="434.64"/>
  <unicode hex="0031"/>
  <outline>
    <contour>
      <point x="41.279999999999994" y="0.0" type="line"/>
      <point x="415.12" y="0.0" type="line"/>
      <point x="415.12" y="50.0" type="line"/>
      <point x="268.71999999999997" y="50.0" type="line"/>
      <point x="268.71999999999997" y="701.6" type="line"/>
      <point x="238.8" y="701.6" type="line"/>
      <point x="27.6" y="576.88" type="line"/>
      <point x="43.72" y="527.24" type="line"/>
      <point x="212.24" y="628.52" type="line"/>
      <point x="212.24" y="50.0" type="line"/>
      <point x="41.279999999999994" y="50.0" type="line"/>
    </contour>
  </outline>
</glyph>
<glyph name="two" format="2">
  <advance width="435.0"/>
  <unicode hex="0032"/>
  <outline>
    <contour>
      <point x="41.7" y="43.400000000000006" type="curve"/>
      <point x="45.8" y="0.0" type="line"/>
      <point x="402.2" y="0.0" type="line"/>
      <point x="402.2" y="50.2" type="line"/>
      <point x="114.1" y="50.2" type="line"/>
      <point x="308.2" y="301.9"/>
      <point x="354.29999999999995" y="409.9"/>
      <point x="354.29999999999995" y="519.8000000000001" type="curve" smooth="yes"/>
      <point x="354.29999999999995" y="648.3"/>
      <point x="295.9" y="710.0"/>
      <point x="196.79999999999998" y="710.0" type="curve" smooth="yes"/>
      <point x="140.10000000000002" y="710.0"/>
      <point x="87.2" y="692.6"/>
      <point x="41.699999999999996" y="652.4" type="curve"/>
      <point x="64.3" y="604.0" type="line"/>
      <point x="102.49999999999999" y="636.4999999999999"/>
      <point x="142.5" y="650.3"/>
      <point x="186.3" y="650.3" type="curve" smooth="yes"/>
      <point x="254.1" y="650.3"/>
      <point x="296.3" y="609.6"/>
      <point x="296.3" y="510.0" type="curve" smooth="yes"/>
      <point x="296.3" y="412.0"/>
      <point x="244.89999999999998" y="299.19999999999993"/>
    </contour>
  </outline>
</glyph>
<glyph name="three" format="2">
  <advance width="435.0"/>
  <unicode hex="0033"/>
  <outline>
    <contour>
      <point x="16.2" y="42.9" type="line"/>
      <point x="64.6" y="6.5"/>
      <point x="114.1" y="-10.0"/>
      <point x="184.79999999999998" y="-10.0" type="curve" smooth="yes"/>
      <point x="312.3" y="-10.0"/>
      <point x="387.8" y="68.39999999999999"/>
      <point x="387.8" y="201.7" type="curve" smooth="yes"/>
      <point x="387.8" y="288.79999999999995"/>
      <point x="349.9" y="350.40000000000003"/>
      <point x="277.3" y="370.5" type="curve"/>
      <point x="333.20000000000005" y="394.8"/>
      <point x="364.29999999999995" y="454.5"/>
      <point x="364.29999999999995" y="532.5" type="curve" smooth="yes"/>
      <point x="364.29999999999995" y="641.4999999999999"/>
      <point x="303.9" y="710.0"/>
      <point x="189.8" y="710.0" type="curve" smooth="yes"/>
      <point x="131.3" y="710.0"/>
      <point x="76.89999999999999" y="695.1999999999999"/>
      <point x="36.60000000000001" y="669.1999999999999" type="curve"/>
      <point x="55.800000000000004" y="624.6" type="line"/>
      <point x="93.3" y="644.8"/>
      <point x="136.20000000000002" y="654.6"/>
      <point x="180.7" y="654.6" type="curve" smooth="yes"/>
      <point x="266.2" y="654.6"/>
      <point x="308.29999999999995" y="602.9"/>
      <point x="308.29999999999995" y="520.5" type="curve" smooth="yes"/>
      <point x="308.29999999999995" y="441.59999999999997"/>
      <point x="269.79999999999995" y="388.9"/>
      <point x="204.60000000000002" y="388.9" type="curve" smooth="yes"/>
      <point x="115.19999999999999" y="388.9" type="line"/>
      <point x="115.19999999999999" y="341.4" type="line"/>
      <point x="192.0" y="341.4" type="line" smooth="yes"/>
      <point x="283.4" y="341.4"/>
      <point x="331.1" y="296.4"/>
      <point x="331.1" y="204.9" type="curve" smooth="yes"/>
      <point x="331.1" y="103.1"/>
      <point x="275.5" y="43.20000000000001"/>
      <point x="180.2" y="43.20000000000001" type="curve" smooth="yes"/>
      <point x="121.2" y="43.20000000000001"/>
      <point x="80.0" y="56.89999999999999"/>
      <point x="39.0" y="85.7" type="curve"/>
    </contour>
  </outline>
</glyph>
<glyph name="four" format="2">
  <advance width="435.0"/>
  <unicode hex="0034"/>
  <outline>
    <contour>
      <point x="22.9" y="172.20000000000002" type="line"/>
      <point x="274.70000000000005" y="172.20000000000002" type="line"/>
      <point x="274.70000000000005" y="0.0" type="line"/>
      <point x="331.90000000000003" y="0.0" type="line"/>
      <point x="331.90000000000003" y="172.20000000000002" type="line"/>
      <point x="419.20000000000005" y="172.20000000000002" type="line"/>
      <point x="419.20000000000005" y="221.8" type="line"/>
      <point x="331.90000000000003" y="221.8" type="line"/>
      <point x="331.90000000000003" y="699.2" type="line"/>
      <point x="278.1" y="704.0" type="line"/>
      <point x="18.0" y="219.39999999999998" type="line"/>
    </contour>
    <contour>
      <point x="70.7" y="221.8" type="line"/>
      <point x="276.3" y="603.7" type="line"/>
      <point x="276.3" y="221.8" type="line"/>
    </contour>
  </outline>
</glyph>
<glyph name="five" format="2">
  <advance width="434.88"/>
  <unicode hex="0035"/>
  <outline>
    <contour>
      <point x="30.6" y="43.580000000000005" type="line"/>
      <point x="75.2" y="8.999999999999998"/>
      <point x="122.68" y="-9.879999999999999"/>
      <point x="193.32" y="-9.879999999999999" type="curve" smooth="yes"/>
      <point x="322.21999999999997" y="-9.879999999999999"/>
      <point x="399.05999999999995" y="67.12"/>
      <point x="399.05999999999995" y="205.8" type="curve" smooth="yes"/>
      <point x="399.05999999999995" y="331.7199999999999"/>
      <point x="342.67999999999995" y="395.58"/>
      <point x="232.74" y="396.28000000000003" type="curve" smooth="yes"/>
      <point x="117.04" y="396.47999999999996" type="line"/>
      <point x="135.54" y="647.5" type="line"/>
      <point x="370.78000000000003" y="647.5" type="line"/>
      <point x="370.78000000000003" y="700.0" type="line"/>
      <point x="89.7" y="700.0" type="line"/>
      <point x="62.2" y="359.88" type="line"/>
      <point x="71.99999999999999" y="348.68" type="line"/>
      <point x="208.76" y="348.68" type="line" smooth="yes"/>
      <point x="301.1599999999999" y="348.68"/>
      <point x="341.86" y="299.63999999999993"/>
      <point x="341.86" y="204.2" type="curve" smooth="yes"/>
      <point x="341.86" y="102.28"/>
      <point x="291.90000000000003" y="43.92"/>
      <point x="189.01999999999998" y="43.92" type="curve" smooth="yes"/>
      <point x="123.74" y="43.92"/>
      <point x="86.25999999999999" y="63.46"/>
      <point x="51.379999999999995" y="88.10000000000001" type="curve"/>
    </contour>
  </outline>
</glyph>
<glyph name="six" format="2">
  <advance width="434.88"/>
  <unicode hex="0036"/>
  <outline>
    <contour>
      <point x="225.38000000000002" y="-10.0" type="curve" smooth="yes"/>
      <point x="341.23999999999995" y="-10.0"/>
      <point x="408.5" y="73.48"/>
      <point x="408.5" y="213.68" type="curve" smooth="yes"/>
      <point x="408.5" y="342.59999999999997"/>
      <point x="348.06" y="416.58000000000004"/>
      <point x="245.54" y="416.58000000000004" type="curve" smooth="yes"/>
      <point x="173.3" y="416.58000000000004"/>
      <point x="103.78000000000002" y="375.84"/>
      <point x="74.1" y="317.62" type="curve"/>
      <point x="78.2" y="265.86000000000007" type="line"/>
      <point x="107.27999999999999" y="329.65999999999997"/>
      <point x="166.38000000000002" y="370.16"/>
      <point x="230.46" y="370.16" type="curve" smooth="yes"/>
      <point x="306.48" y="370.16"/>
      <point x="352.90000000000003" y="313.0199999999999"/>
      <point x="352.90000000000003" y="210.73999999999998" type="curve" smooth="yes"/>
      <point x="352.90000000000003" y="103.32000000000001"/>
      <point x="304.28000000000003" y="38.940000000000005"/>
      <point x="226.60000000000002" y="38.940000000000005" type="curve" smooth="yes"/>
      <point x="130.16" y="38.940000000000005"/>
      <point x="83.22" y="115.32000000000002"/>
      <point x="83.22" y="334.88000000000005" type="curve" smooth="yes"/>
      <point x="83.22" y="555.3999999999999"/>
      <point x="133.1" y="658.8599999999999"/>
      <point x="252.70000000000002" y="658.8599999999999" type="curve" smooth="yes"/>
      <point x="297.09999999999997" y="658.8599999999999"/>
      <point x="332.46000000000004" y="647.0200000000001"/>
      <point x="372.21999999999997" y="628.7999999999998" type="curve"/>
      <point x="391.64000000000004" y="674.4200000000001" type="line"/>
      <point x="349.59999999999997" y="697.1800000000001"/>
      <point x="301.56000000000006" y="710.0"/>
      <point x="247.26000000000005" y="710.0" type="curve" smooth="yes"/>
      <point x="99.50000000000001" y="710.0"/>
      <point x="25.220000000000002" y="599.2399999999999"/>
      <point x="25.220000000000002" y="330.36000000000007" type="curve" smooth="yes"/>
      <point x="25.220000000000002" y="84.64000000000003"/>
      <point x="88.72" y="-10.0"/>
    </contour>
  </outline>
</glyph>
<glyph name="seven" format="2">
  <advance width="434.88"/>
  <unicode hex="0037"/>
  <outline>
    <contour>
      <point x="147.66" y="0.0" type="curve"/>
      <point x="205.36" y="0.0" type="line"/>
      <point x="206.33999999999997" y="135.67999999999998"/>
      <point x="230.04000000000002" y="242.76"/>
      <point x="278.76000000000005" y="362.28" type="curve" smooth="yes"/>
      <point x="399.70000000000005" y="658.8999999999999" type="line"/>
      <point x="399.70000000000005" y="700.0" type="line"/>
      <point x="32.38" y="700.0" type="line"/>
      <point x="32.38" y="646.1" type="line"/>
      <point x="335.54" y="646.1" type="line"/>
      <point x="237.24" y="409.88" type="line" smooth="yes"/>
      <point x="170.4" y="248.78"/>
      <point x="147.66" y="138.84"/>
    </contour>
  </outline>
</glyph>
<glyph name="eight" format="2">
  <advance width="435.0"/>
  <unicode hex="0038"/>
  <outline>
    <contour>
      <point x="244.00000000000003" y="372.7" type="curve"/>
      <point x="280.4" y="352.09999999999997" type="line"/>
      <point x="364.8" y="403.20000000000005"/>
      <point x="396.7" y="465.3"/>
      <point x="396.7" y="542.1" type="curve" smooth="yes"/>
      <point x="396.7" y="650.2"/>
      <point x="334.2" y="710.0"/>
      <point x="221.0" y="710.0" type="curve" smooth="yes"/>
      <point x="106.39999999999999" y="710.0"/>
      <point x="40.1" y="648.1"/>
      <point x="40.1" y="538.2" type="curve" smooth="yes"/>
      <point x="40.1" y="301.90000000000003"/>
      <point x="359.1" y="386.6"/>
      <point x="359.1" y="172.0" type="curve" smooth="yes"/>
      <point x="359.1" y="85.4"/>
      <point x="309.0" y="38.2"/>
      <point x="218.4" y="38.2" type="curve" smooth="yes"/>
      <point x="125.8" y="38.2"/>
      <point x="75.1" y="89.60000000000001"/>
      <point x="75.1" y="182.1" type="curve" smooth="yes"/>
      <point x="75.1" y="263.3"/>
      <point x="108.89999999999999" y="320.40000000000003"/>
      <point x="183.7" y="360.79999999999995" type="curve"/>
      <point x="146.5" y="385.0" type="line"/>
      <point x="57.0" y="334.6"/>
      <point x="19.099999999999998" y="265.40000000000003"/>
      <point x="19.099999999999998" y="177.0" type="curve" smooth="yes"/>
      <point x="19.099999999999998" y="57.6"/>
      <point x="88.5" y="-10.0"/>
      <point x="215.2" y="-10.0" type="curve" smooth="yes"/>
      <point x="345.09999999999997" y="-10.0"/>
      <point x="416.1" y="55.3"/>
      <point x="416.1" y="174.6" type="curve" smooth="yes"/>
      <point x="416.1" y="426.9"/>
      <point x="94.5" y="343.20000000000005"/>
      <point x="94.5" y="540.9999999999999" type="curve" smooth="yes"/>
      <point x="94.5" y="617.1"/>
      <point x="140.1" y="661.3"/>
      <point x="219.1" y="661.3" type="curve" smooth="yes"/>
      <point x="300.79999999999995" y="661.3"/>
      <point x="343.7" y="618.2"/>
      <point x="343.7" y="534.7" type="curve" smooth="yes"/>
      <point x="343.7" y="466.4"/>
      <point x="320.29999999999995" y="417.8"/>
    </contour>
  </outline>
</glyph>
<glyph name="nine" format="2">
  <advance width="434.88"/>
  <unicode hex="0039"/>
  <outline>
    <contour>
      <point x="187.62" y="-10.0" type="curve" smooth="yes"/>
      <point x="335.37999999999994" y="-10.0"/>
      <point x="407.14000000000004" y="100.55999999999999"/>
      <point x="407.14000000000004" y="369.03999999999996" type="curve" smooth="yes"/>
      <point x="407.14000000000004" y="614.96"/>
      <point x="346.24" y="710.0"/>
      <point x="212.98000000000002" y="710.0" type="curve" smooth="yes"/>
      <point x="95.00000000000001" y="710.0"/>
      <point x="23.86" y="627.24"/>
      <point x="23.86" y="486.43999999999994" type="curve" smooth="yes"/>
      <point x="23.86" y="357.72"/>
      <point x="84.97999999999999" y="283.41999999999996"/>
      <point x="187.82000000000002" y="283.41999999999996" type="curve" smooth="yes"/>
      <point x="258.86" y="283.41999999999996"/>
      <point x="328.17999999999995" y="324.52000000000004"/>
      <point x="358.26" y="382.73999999999995" type="curve"/>
      <point x="358.84" y="441.30000000000007" type="line"/>
      <point x="327.2199999999999" y="368.76000000000005"/>
      <point x="265.78" y="329.84"/>
      <point x="201.89999999999998" y="329.84" type="curve" smooth="yes"/>
      <point x="127.96000000000001" y="329.84"/>
      <point x="79.25999999999999" y="387.49999999999994"/>
      <point x="79.25999999999999" y="489.58000000000004" type="curve" smooth="yes"/>
      <point x="79.25999999999999" y="597.6"/>
      <point x="131.96" y="661.06"/>
      <point x="211.96" y="661.06" type="curve" smooth="yes"/>
      <point x="304.7999999999999" y="661.06"/>
      <point x="349.14" y="584.68"/>
      <point x="349.14" y="365.12" type="curve" smooth="yes"/>
      <point x="349.14" y="144.59999999999997"/>
      <point x="301.58000000000004" y="41.14000000000001"/>
      <point x="182.17999999999995" y="41.14000000000001" type="curve" smooth="yes"/>
      <point x="137.57999999999998" y="41.14000000000001"/>
      <point x="99.9" y="52.980000000000004"/>
      <point x="60.13999999999999" y="71.2" type="curve"/>
      <point x="40.720000000000006" y="25.98" type="line"/>
      <point x="82.76000000000002" y="3.22"/>
      <point x="133.32000000000002" y="-10.0"/>
    </contour>
  </outline>
</glyph>
<glyph name="less" format="2">
  <advance width="424.88"/>
  <unicode hex="003C"/>
  <outline>
    <contour>
      <point x="383.44" y="86.11999999999999" type="line"/>
      <point x="383.44" y="136.24" type="line"/>
      <point x="93.84" y="294.47999999999996" type="line"/>
      <point x="383.44" y="453.79999999999995" type="line"/>
      <point x="383.44" y="502.4" type="line"/>
      <point x="41.440000000000005" y="319.16" type="line"/>
      <point x="41.440000000000005" y="269.68" type="line"/>
    </contour>
  </outline>
</glyph>
<glyph name="equal" format="2">
  <advance width="421.68"/>
  <unicode hex="003D"/>
  <outline>
    <contour>
      <point x="377.52" y="214.36" type="line"/>
      <point x="44.160000000000004" y="214.36" type="line"/>
      <point x="44.160000000000004" y="164.56" type="line"/>
      <point x="377.52" y="164.56" type="line"/>
    </contour>
    <contour>
      <point x="377.52" y="425.72" type="line"/>
      <point x="44.160000000000004" y="425.72" type="line"/>
      <point x="44.160000000000004" y="375.92" type="line"/>
      <point x="377.52" y="375.92" type="line"/>
    </contour>
  </outline>
</glyph>
<glyph name="greater" format="2">
  <advance width="424.88"/>
  <unicode hex="003E"/>
  <outline>
    <contour>
      <point x="383.44" y="269.04" type="line"/>
      <point x="383.44" y="318.52" type="line"/>
      <point x="41.440000000000005" y="502.4" type="line"/>
      <point x="41.440000000000005" y="452.36" type="line"/>
      <point x="331.04" y="293.84000000000003" type="line"/>
      <point x="41.440000000000005" y="134.96" type="line"/>
      <point x="41.440000000000005" y="86.11999999999999" type="line"/>
    </contour>
  </outline>
</glyph>
<glyph name="question" format="2">
  <advance width="343.12"/>
  <unicode hex="003F"/>
  <outline>
    <contour>
      <point x="131.12" y="262.52" type="line"/>
      <point x="181.64000000000001" y="262.52" type="line"/>
      <point x="181.72" y="336.44" type="line"/>
      <point x="278.03999999999996" y="402.76"/>
      <point x="324.28000000000003" y="456.0"/>
      <point x="324.28000000000003" y="565.6" type="curve" smooth="yes"/>
      <point x="324.28000000000003" y="694.2"/>
      <point x="247.64000000000001" y="749.8399999999999"/>
      <point x="161.20000000000002" y="749.8399999999999" type="curve" smooth="yes"/>
      <point x="106.52000000000001" y="749.8399999999999"/>
      <point x="50.0" y="727.88"/>
      <point x="8.88" y="691.84" type="curve"/>
      <point x="30.919999999999998" y="646.2800000000001" type="line"/>
      <point x="72.08000000000001" y="680.76"/>
      <point x="115.2" y="694.7199999999999"/>
      <point x="154.51999999999998" y="694.7199999999999" type="curve" smooth="yes"/>
      <point x="214.32000000000002" y="694.7199999999999"/>
      <point x="266.03999999999996" y="647.08"/>
      <point x="266.03999999999996" y="560.2800000000001" type="curve" smooth="yes"/>
      <point x="266.03999999999996" y="481.47999999999996"/>
      <point x="235.32" y="427.67999999999995"/>
      <point x="130.2" y="362.52" type="curve"/>
    </contour>
    <contour>
      <point x="123.8" y="34.84" type="curve" smooth="yes"/>
      <point x="123.8" y="6.5600000000000005"/>
      <point x="132.16000000000003" y="-2.04"/>
      <point x="157.52" y="-2.04" type="curve" smooth="yes"/>
      <point x="183.36" y="-2.04"/>
      <point x="190.6" y="6.5600000000000005"/>
      <point x="190.6" y="34.84" type="curve" smooth="yes"/>
      <point x="190.6" y="63.32"/>
      <point x="183.36" y="71.92"/>
      <point x="157.52" y="71.92" type="curve" smooth="yes"/>
      <point x="130.72" y="71.92"/>
      <point x="123.8" y="63.32"/>
    </contour>
  </outline>
</glyph>
<glyph name="at" format="2">
  <advance width="601.6800000000001"/>
  <unicode hex="0040"/>
  <outline>
    <contour>
      <point x="304.96000000000004" y="-123.4" type="curve" smooth="yes"/>
      <point x="372.28" y="-123.4"/>
      <point x="436.24" y="-95.00000000000001"/>
      <point x="470.47999999999996" y="-63.60000000000001" type="curve"/>
      <point x="455.48" y="-37.76" type="line"/>
      <point x="419.44" y="-67.2"/>
      <point x="367.2" y="-89.63999999999999"/>
      <point x="306.16" y="-89.63999999999999" type="curve" smooth="yes"/>
      <point x="155.52" y="-89.63999999999999"/>
      <point x="69.48" y="1.8400000000000012"/>
      <point x="69.48" y="267.52000000000004" type="curve" smooth="yes"/>
      <point x="69.48" y="503.84000000000003"/>
      <point x="135.0" y="677.92"/>
      <point x="310.56" y="677.92" type="curve" smooth="yes"/>
      <point x="480.08000000000004" y="677.92"/>
      <point x="534.6" y="564.9599999999999"/>
      <point x="534.6" y="346.76000000000005" type="curve" smooth="yes"/>
      <point x="534.6" y="210.76"/>
      <point x="514.0" y="97.44"/>
      <point x="466.6" y="97.44" type="curve" smooth="yes"/>
      <point x="437.24000000000007" y="97.44"/>
      <point x="412.0" y="121.36000000000001"/>
      <point x="418.72" y="248.95999999999998" type="curve" smooth="yes"/>
      <point x="433.96" y="515.2399999999999" type="line"/>
      <point x="393.08000000000004" y="530.48"/>
      <point x="356.28" y="539.16"/>
      <point x="320.76000000000005" y="539.16" type="curve" smooth="yes"/>
      <point x="205.68" y="539.16"/>
      <point x="162.08" y="410.72"/>
      <point x="162.08" y="267.12000000000006" type="curve" smooth="yes"/>
      <point x="162.08" y="113.88"/>
      <point x="201.20000000000002" y="60.56"/>
      <point x="262.16" y="60.56" type="curve" smooth="yes"/>
      <point x="325.44" y="60.56"/>
      <point x="355.44" y="115.4"/>
      <point x="376.08" y="202.96" type="curve"/>
      <point x="378.64" y="94.19999999999999"/>
      <point x="401.44" y="56.52"/>
      <point x="458.79999999999995" y="56.52" type="curve" smooth="yes"/>
      <point x="540.28" y="56.52"/>
      <point x="571.12" y="191.51999999999998"/>
      <point x="571.12" y="349.64" type="curve" smooth="yes"/>
      <point x="571.12" y="595.1600000000001"/>
      <point x="495.84000000000003" y="709.88"/>
      <point x="314.16" y="709.88" type="curve" smooth="yes"/>
      <point x="111.6" y="709.88"/>
      <point x="31.32" y="523.6"/>
      <point x="31.32" y="269.6" type="curve" smooth="yes"/>
      <point x="31.32" y="-16.72"/>
      <point x="130.84" y="-123.4"/>
    </contour>
    <contour>
      <point x="278.80000000000007" y="111.24" type="curve" smooth="yes"/>
      <point x="244.64000000000001" y="111.24"/>
      <point x="217.84" y="148.76000000000002"/>
      <point x="217.84" y="267.04" type="curve" smooth="yes"/>
      <point x="217.84" y="377.56"/>
      <point x="248.23999999999998" y="497.23999999999995"/>
      <point x="319.2" y="497.23999999999995" type="curve" smooth="yes"/>
      <point x="336.92" y="497.23999999999995"/>
      <point x="358.84000000000003" y="492.4"/>
      <point x="380.92" y="484.2" type="curve"/>
      <point x="373.6" y="382.2" type="line" smooth="yes"/>
      <point x="354.32" y="146.44"/>
      <point x="324.28" y="111.24"/>
    </contour>
  </outline>
</glyph>
<glyph name="A" format="2">
  <advance width="449.52"/>
  <unicode hex="0041"/>
  <anchor x="434.64000000000004" y="0.0" name="ogonek"/>
  <anchor x="224.56" y="0.0" name="bottom"/>
  <anchor x="225.28" y="700.0" name="top"/>
  <outline>
    <contour>
      <point x="14.959999999999997" y="0.0" type="line"/>
      <point x="73.2" y="0.0" type="line"/>
      <point x="121.28" y="195.12" type="line"/>
      <point x="326.88000000000005" y="195.12" type="line"/>
      <point x="374.84" y="0.0" type="line"/>
      <point x="434.64000000000004" y="0.0" type="line"/>
      <point x="257.72" y="708.0" type="line"/>
      <point x="192.04" y="708.0" type="line"/>
    </contour>
    <contour>
      <point x="131.4" y="249.16" type="line"/>
      <point x="224.39999999999998" y="639.04" type="line"/>
      <point x="316.88" y="249.16" type="line"/>
    </contour>
  </outline>
</glyph>
<glyph name="B" format="2">
  <advance width="452.40000000000003"/>
  <unicode hex="0042"/>
  <anchor x="220.39999999999998" y="700.0" name="top"/>
  <anchor x="220.39999999999998" y="0.0" name="bottom"/>
  <outline>
    <contour>
      <point x="56.77999999999999" y="-1.9799999999999995" type="line"/>
      <point x="132.6" y="-8.459999999999999"/>
      <point x="161.43999999999997" y="-10.0"/>
      <point x="217.71999999999997" y="-10.0" type="curve" smooth="yes"/>
      <point x="364.76000000000005" y="-10.0"/>
      <point x="425.66" y="51.02"/>
      <point x="425.66" y="189.35999999999999" type="curve" smooth="yes"/>
      <point x="425.66" y="281.93999999999994"/>
      <point x="382.32" y="346.4600000000001"/>
      <point x="309.04" y="366.1" type="curve"/>
      <point x="309.04" y="367.52" type="line"/>
      <point x="364.91999999999996" y="390.36"/>
      <point x="399.53999999999996" y="455.02"/>
      <point x="399.53999999999996" y="535.9200000000001" type="curve" smooth="yes"/>
      <point x="399.53999999999996" y="657.0"/>
      <point x="345.34" y="710.0"/>
      <point x="214.4" y="710.0" type="curve" smooth="yes"/>
      <point x="171.76" y="710.0"/>
      <point x="126.02000000000001" y="707.0600000000001"/>
      <point x="56.77999999999999" y="700.6200000000001" type="curve"/>
    </contour>
    <contour>
      <point x="113.98" y="379.52000000000004" type="line"/>
      <point x="113.98" y="653.9799999999999" type="line"/>
      <point x="162.04" y="658.4599999999999"/>
      <point x="174.44" y="659.4599999999999"/>
      <point x="211.66000000000003" y="659.4599999999999" type="curve" smooth="yes"/>
      <point x="306.54" y="659.4599999999999"/>
      <point x="346.04" y="616.42"/>
      <point x="346.04" y="523.0200000000001" type="curve" smooth="yes"/>
      <point x="346.04" y="439.78"/>
      <point x="304.12000000000006" y="379.52000000000004"/>
      <point x="238.62" y="379.52000000000004" type="curve" smooth="yes"/>
    </contour>
    <contour>
      <point x="113.98" y="45.94" type="curve"/>
      <point x="113.98" y="331.62" type="line"/>
      <point x="241.7" y="331.62" type="line" smooth="yes"/>
      <point x="323.24" y="331.62"/>
      <point x="368.16" y="278.18"/>
      <point x="368.16" y="191.2" type="curve" smooth="yes"/>
      <point x="368.16" y="84.24"/>
      <point x="325.78000000000003" y="40.900000000000006"/>
      <point x="214.57999999999998" y="40.900000000000006" type="curve" smooth="yes"/>
      <point x="188.72000000000003" y="40.900000000000006"/>
      <point x="167.48" y="42.34"/>
    </contour>
  </outline>
</glyph>
<glyph name="C" format="2">
  <advance width="425.64000000000004"/>
  <unicode hex="0043"/>
  <anchor x="249.07999999999998" y="700.0" name="top"/>
  <anchor x="249.07999999999998" y="0.0" name="bottom"/>
  <outline>
    <contour>
      <point x="35.52" y="338.04" type="curve" smooth="yes"/>
      <point x="35.52" y="70.32"/>
      <point x="115.8" y="-10.0"/>
      <point x="256.80000000000007" y="-10.0" type="curve" smooth="yes"/>
      <point x="309.24" y="-10.0"/>
      <point x="363.52000000000004" y="-3.2399999999999993"/>
      <point x="404.59999999999997" y="10.48" type="curve"/>
      <point x="394.04" y="60.6" type="line"/>
      <point x="358.36" y="49.400000000000006"/>
      <point x="304.44" y="42.120000000000005"/>
      <point x="264.92" y="42.120000000000005" type="curve" smooth="yes"/>
      <point x="154.92000000000002" y="42.120000000000005"/>
      <point x="92.99999999999999" y="111.0"/>
      <point x="92.99999999999999" y="337.68" type="curve" smooth="yes"/>
      <point x="92.99999999999999" y="585.5600000000001"/>
      <point x="156.76000000000002" y="657.2"/>
      <point x="270.6" y="657.2" type="curve" smooth="yes"/>
      <point x="310.04" y="657.2"/>
      <point x="342.72" y="652.9200000000001"/>
      <point x="381.91999999999996" y="641.84" type="curve"/>
      <point x="393.52" y="691.4" type="line"/>
      <point x="352.36" y="704.7600000000001"/>
      <point x="313.36" y="710.0"/>
      <point x="265.04" y="710.0" type="curve" smooth="yes"/>
      <point x="113.44" y="710.0"/>
      <point x="35.52" y="611.28"/>
    </contour>
  </outline>
</glyph>
<glyph name="D" format="2">
  <advance width="483.40000000000003"/>
  <unicode hex="0044"/>
  <anchor x="230.91999999999996" y="700.0" name="top"/>
  <outline>
    <contour>
      <point x="213.71999999999997" y="-10.0" type="curve" smooth="yes"/>
      <point x="374.15999999999997" y="-10.0"/>
      <point x="447.82000000000005" y="94.58"/>
      <point x="447.82000000000005" y="349.24" type="curve" smooth="yes"/>
      <point x="447.82000000000005" y="606.32"/>
      <point x="380.28000000000003" y="710.0"/>
      <point x="210.58" y="710.0" type="curve" smooth="yes"/>
      <point x="161.1" y="710.0"/>
      <point x="113.16000000000001" y="707.5799999999999"/>
      <point x="56.77999999999999" y="702.12" type="curve"/>
      <point x="56.77999999999999" y="-3.88" type="line"/>
      <point x="106.64000000000001" y="-7.6"/>
      <point x="161.79999999999998" y="-10.0"/>
    </contour>
    <contour>
      <point x="209.16000000000003" y="39.94" type="curve" smooth="yes"/>
      <point x="184.64" y="39.94"/>
      <point x="142.95999999999998" y="41.620000000000005"/>
      <point x="113.88000000000001" y="44.08" type="curve"/>
      <point x="113.88000000000001" y="655.0400000000001" type="line"/>
      <point x="144.52" y="657.5200000000001"/>
      <point x="183.2" y="659.08"/>
      <point x="207.5" y="659.08" type="curve" smooth="yes"/>
      <point x="336.88000000000005" y="659.08"/>
      <point x="388.52" y="581.72"/>
      <point x="388.52" y="348.76000000000005" type="curve" smooth="yes"/>
      <point x="388.52" y="120.54"/>
      <point x="335.0" y="39.94"/>
    </contour>
  </outline>
</glyph>
<glyph name="E" format="2">
  <advance width="405.3"/>
  <unicode hex="0045"/>
  <anchor x="385.96000000000004" y="0.0" name="ogonek"/>
  <anchor x="221.62" y="0.0" name="bottom"/>
  <anchor x="217.2" y="700.0" name="top"/>
  <outline>
    <contour>
      <point x="56.77999999999999" y="0.0" type="line"/>
      <point x="386.16" y="0.0" type="line"/>
      <point x="386.16" y="54.199999999999996" type="line"/>
      <point x="114.17999999999999" y="54.199999999999996" type="line"/>
      <point x="114.17999999999999" y="337.48" type="line"/>
      <point x="352.54" y="337.48" type="line"/>
      <point x="352.54" y="389.90000000000003" type="line"/>
      <point x="114.17999999999999" y="389.90000000000003" type="line"/>
      <point x="114.17999999999999" y="645.3" type="line"/>
      <point x="372.18" y="645.3" type="line"/>
      <point x="372.18" y="700.0" type="line"/>
      <point x="56.77999999999999" y="700.0" type="line"/>
    </contour>
  </outline>
</glyph>
<glyph name="F" format="2">
  <advance width="383.08"/>
  <unicode hex="0046"/>
  <outline>
    <contour>
      <point x="56.77999999999999" y="0.0" type="line"/>
      <point x="114.28" y="0.0" type="line"/>
      <point x="114.28" y="312.36000000000007" type="line"/>
      <point x="331.79999999999995" y="312.36000000000007" type="line"/>
      <point x="331.79999999999995" y="366.08" type="line"/>
      <point x="113.88000000000001" y="366.08" type="line"/>
      <point x="113.88000000000001" y="644.9" type="line"/>
      <point x="371.48" y="644.9" type="line"/>
      <point x="371.48" y="700.0" type="line"/>
      <point x="56.77999999999999" y="700.0" type="line"/>
    </contour>
  </outline>
</glyph>
<glyph name="G" format="2">
  <advance width="457.68"/>
  <unicode hex="0047"/>
  <anchor x="246.6" y="700.0" name="top"/>
  <anchor x="248.6" y="0.0" name="bottom"/>
  <outline>
    <contour>
      <point x="35.52" y="338.35999999999996" type="curve" smooth="yes"/>
      <point x="35.52" y="99.96"/>
      <point x="104.04" y="-10.0"/>
      <point x="249.23999999999998" y="-10.0" type="curve" smooth="yes"/>
      <point x="314.76000000000005" y="-10.0"/>
      <point x="374.44" y="-0.48"/>
      <point x="413.24" y="18.0" type="curve"/>
      <point x="413.24" y="350.32" type="line"/>
      <point x="236.4" y="350.32" type="line"/>
      <point x="236.4" y="300.0" type="line"/>
      <point x="360.28000000000003" y="300.0" type="line"/>
      <point x="360.28000000000003" y="53.92" type="line"/>
      <point x="332.24" y="44.32000000000001"/>
      <point x="297.32000000000005" y="39.88"/>
      <point x="253.24" y="39.88" type="curve" smooth="yes"/>
      <point x="145.92" y="39.88"/>
      <point x="92.68" y="130.96"/>
      <point x="92.68" y="336.55999999999995" type="curve" smooth="yes"/>
      <point x="92.68" y="560.52"/>
      <point x="149.0" y="657.52"/>
      <point x="265.0" y="657.52" type="curve" smooth="yes"/>
      <point x="304.88" y="657.52"/>
      <point x="345.88000000000005" y="651.72"/>
      <point x="385.88000000000005" y="639.6" type="curve"/>
      <point x="396.72" y="689.1600000000001" type="line"/>
      <point x="357.04" y="702.5999999999999"/>
      <point x="309.12" y="710.0"/>
      <point x="260.24" y="710.0" type="curve" smooth="yes"/>
      <point x="108.60000000000001" y="710.0"/>
      <point x="35.52" y="594.7599999999999"/>
    </contour>
  </outline>
</glyph>
<glyph name="H" format="2">
  <advance width="502.88000000000005"/>
  <unicode hex="0048"/>
  <anchor x="251.60000000000002" y="700.0" name="top"/>
  <outline>
    <contour>
      <point x="56.75999999999999" y="0.0" type="line"/>
      <point x="113.56" y="0.0" type="line"/>
      <point x="113.56" y="277.56" type="line"/>
      <point x="389.32000000000005" y="277.56" type="line"/>
      <point x="389.32000000000005" y="0.0" type="line"/>
      <point x="446.12" y="0.0" type="line"/>
      <point x="446.12" y="700.0" type="line"/>
      <point x="389.32000000000005" y="700.0" type="line"/>
      <point x="389.32000000000005" y="332.12" type="line"/>
      <point x="113.56" y="332.12" type="line"/>
      <point x="113.56" y="700.0" type="line"/>
      <point x="56.75999999999999" y="700.0" type="line"/>
    </contour>
  </outline>
</glyph>
<glyph name="I" format="2">
  <advance width="170.32"/>
  <unicode hex="0049"/>
  <anchor x="113.56" y="0.0" name="ogonek"/>
  <anchor x="85.24000000000001" y="0.0" name="bottom"/>
  <anchor x="85.24000000000001" y="700.0" name="top"/>
  <outline>
    <contour>
      <point x="56.75999999999999" y="0.0" type="line"/>
      <point x="113.56" y="0.0" type="line"/>
      <point x="113.56" y="700.0" type="line"/>
      <point x="56.75999999999999" y="700.0" type="line"/>
    </contour>
  </outline>
</glyph>
<glyph name="J" format="2">
  <advance width="339.48"/>
  <unicode hex="004A"/>
  <anchor x="167.36" y="700.0" name="top"/>
  <outline>
    <contour>
      <point x="8.32" y="9.959999999999999" type="line"/>
      <point x="46.76" y="-2.7599999999999993"/>
      <point x="92.60000000000001" y="-10.16"/>
      <point x="132.16" y="-10.16" type="curve" smooth="yes"/>
      <point x="248.64" y="-10.16"/>
      <point x="291.32" y="52.84"/>
      <point x="291.32" y="158.16000000000003" type="curve" smooth="yes"/>
      <point x="291.32" y="700.0" type="line"/>
      <point x="36.839999999999996" y="700.0" type="line"/>
      <point x="36.839999999999996" y="646.1999999999999" type="line"/>
      <point x="234.52" y="646.1999999999999" type="line"/>
      <point x="234.52" y="169.23999999999998" type="line" smooth="yes"/>
      <point x="234.52" y="75.76"/>
      <point x="195.07999999999998" y="42.32000000000001"/>
      <point x="118.28" y="42.32000000000001" type="curve" smooth="yes"/>
      <point x="89.64" y="42.32000000000001"/>
      <point x="52.720000000000006" y="47.440000000000005"/>
      <point x="19.64" y="57.6" type="curve"/>
    </contour>
  </outline>
</glyph>
<glyph name="K" format="2">
  <advance width="449.90000000000003"/>
  <unicode hex="004B"/>
  <anchor x="225.7" y="700.0" name="top"/>
  <anchor x="231.3" y="0.0" name="bottom"/>
  <outline>
    <contour>
      <point x="426.7" y="-10.0" type="curve" smooth="yes"/>
      <point x="431.1" y="-10.0"/>
      <point x="436.7" y="-10.0"/>
      <point x="443.9" y="-8.0" type="curve"/>
      <point x="443.9" y="55.1" type="line"/>
      <point x="440.5" y="54.5"/>
      <point x="436.6" y="54.5"/>
      <point x="433.7" y="54.5" type="curve" smooth="yes"/>
      <point x="405.8" y="54.800000000000004"/>
      <point x="383.1" y="68.10000000000001"/>
      <point x="319.2" y="154.5" type="curve" smooth="yes"/>
      <point x="114.2" y="432.20000000000005" type="line"/>
      <point x="114.2" y="700.0" type="line"/>
      <point x="57.0" y="700.0" type="line"/>
      <point x="57.0" y="0.0" type="line"/>
      <point x="114.2" y="0.0" type="line"/>
      <point x="114.2" y="339.7" type="line"/>
      <point x="295.0" y="96.6" type="line" smooth="yes"/>
      <point x="350.90000000000003" y="21.5"/>
      <point x="384.6" y="-10.0"/>
    </contour>
    <contour>
      <point x="191.1" y="297.5" type="line"/>
      <point x="273.09999999999997" y="377.3"/>
      <point x="374.5" y="506.0"/>
      <point x="423.2" y="685.8000000000001" type="curve"/>
      <point x="375.3" y="703.2" type="line"/>
      <point x="325.79999999999995" y="530.5"/>
      <point x="226.8" y="410.3"/>
      <point x="157.9" y="339.8" type="curve"/>
    </contour>
  </outline>
</glyph>
<glyph name="L" format="2">
  <advance width="366.0"/>
  <unicode hex="004C"/>
  <anchor x="183.16" y="350.0" name="center"/>
  <anchor x="85.24000000000001" y="700.0" name="top"/>
  <anchor x="239.99999999999997" y="700.0" name="topright"/>
  <anchor x="205.56" y="0.0" name="bottom"/>
  <outline>
    <contour>
      <point x="56.75999999999999" y="0.0" type="line"/>
      <point x="355.79999999999995" y="0.0" type="line"/>
      <point x="355.79999999999995" y="53.44" type="line"/>
      <point x="113.72" y="53.44" type="line"/>
      <point x="113.72" y="700.0" type="line"/>
      <point x="56.75999999999999" y="700.0" type="line"/>
    </contour>
  </outline>
</glyph>
<glyph name="M" format="2">
  <advance width="560.0799999999999"/>
  <unicode hex="004D"/>
  <outline>
    <contour>
      <point x="56.959999999999994" y="0.0" type="line"/>
      <point x="109.88000000000001" y="0.0" type="line"/>
      <point x="109.88000000000001" y="595.0600000000001" type="line"/>
      <point x="264.12" y="248.4" type="line"/>
      <point x="294.44" y="248.4" type="line"/>
      <point x="450.20000000000005" y="595.74" type="line"/>
      <point x="450.20000000000005" y="0.0" type="line"/>
      <point x="503.12" y="0.0" type="line"/>
      <point x="503.12" y="700.0" type="line"/>
      <point x="445.3" y="700.0" type="line"/>
      <point x="281.17999999999995" y="332.66" type="line"/>
      <point x="116.88000000000001" y="700.0" type="line"/>
      <point x="56.959999999999994" y="700.0" type="line"/>
    </contour>
  </outline>
</glyph>
<glyph name="N" format="2">
  <advance width="499.40000000000003"/>
  <unicode hex="004E"/>
  <anchor x="249.9" y="700.0" name="top"/>
  <anchor x="249.9" y="0.0" name="bottom"/>
  <outline>
    <contour>
      <point x="56.9" y="0.0" type="line"/>
      <point x="109.1" y="0.0" type="line"/>
      <point x="109.1" y="580.6" type="line"/>
      <point x="385.80000000000007" y="-0.4" type="line"/>
      <point x="442.5" y="-0.4" type="line"/>
      <point x="442.5" y="700.0" type="line"/>
      <point x="390.3" y="700.0" type="line"/>
      <point x="390.3" y="114.0" type="line"/>
      <point x="113.4" y="701.6" type="line"/>
      <point x="56.9" y="701.6" type="line"/>
    </contour>
  </outline>
</glyph>
<glyph name="O" format="2">
  <advance width="506.29999999999995"/>
  <unicode hex="004F"/>
  <anchor x="297.2" y="1.8000000000000003" name="ogonek"/>
  <anchor x="252.29999999999998" y="700.0" name="top"/>
  <anchor x="370.8" y="686.3" name="topright"/>
  <anchor x="252.39999999999998" y="0.0" name="bottom"/>
  <outline>
    <contour>
      <point x="252.29999999999998" y="40.3" type="curve" smooth="yes"/>
      <point x="161.8" y="40.3"/>
      <point x="93.7" y="101.60000000000001"/>
      <point x="93.7" y="349.1" type="curve" smooth="yes"/>
      <point x="93.7" y="600.4"/>
      <point x="161.6" y="660.1"/>
      <point x="252.29999999999998" y="660.1" type="curve" smooth="yes"/>
      <point x="344.2" y="660.1"/>
      <point x="412.2" y="600.8"/>
      <point x="412.2" y="349.4" type="curve" smooth="yes"/>
      <point x="412.2" y="100.0"/>
      <point x="344.2" y="40.3"/>
    </contour>
    <contour>
      <point x="252.39999999999998" y="-10.0" type="curve" smooth="yes"/>
      <point x="383.2" y="-10.0"/>
      <point x="470.4" y="63.7"/>
      <point x="470.4" y="350.7" type="curve" smooth="yes"/>
      <point x="470.4" y="636.3000000000001"/>
      <point x="382.3" y="710.0"/>
      <point x="252.29999999999998" y="710.0" type="curve" smooth="yes"/>
      <point x="122.49999999999999" y="710.0"/>
      <point x="35.9" y="635.5999999999999"/>
      <point x="35.9" y="349.2" type="curve" smooth="yes"/>
      <point x="35.9" y="66.2"/>
      <point x="123.39999999999999" y="-10.0"/>
    </contour>
  </outline>
</glyph>
<glyph name="P" format="2">
  <advance width="439.8"/>
  <unicode hex="0050"/>
  <outline>
    <contour>
      <point x="56.75999999999999" y="0.0" type="line"/>
      <point x="113.72" y="0.0" type="line"/>
      <point x="113.72" y="260.59999999999997" type="line"/>
      <point x="156.96" y="258.52"/>
      <point x="178.16000000000003" y="258.36"/>
      <point x="218.8" y="258.36" type="curve" smooth="yes"/>
      <point x="356.68" y="258.36"/>
      <point x="416.16" y="324.44"/>
      <point x="416.16" y="492.56" type="curve" smooth="yes"/>
      <point x="416.16" y="652.0799999999999"/>
      <point x="370.92" y="710.0"/>
      <point x="206.76000000000002" y="710.0" type="curve" smooth="yes"/>
      <point x="177.84" y="710.0"/>
      <point x="133.76" y="708.12"/>
      <point x="56.75999999999999" y="702.8800000000001" type="curve"/>
    </contour>
    <contour>
      <point x="113.88" y="655.4" type="line"/>
      <point x="163.32" y="659.24"/>
      <point x="187.16" y="660.2"/>
      <point x="210.4" y="660.2" type="curve" smooth="yes"/>
      <point x="330.44" y="660.2"/>
      <point x="358.91999999999996" y="612.52"/>
      <point x="358.91999999999996" y="492.52" type="curve" smooth="yes"/>
      <point x="358.91999999999996" y="358.84000000000003"/>
      <point x="319.36" y="309.08"/>
      <point x="208.52" y="309.08" type="curve" smooth="yes"/>
      <point x="172.23999999999998" y="309.08"/>
      <point x="150.4" y="309.6"/>
      <point x="113.88" y="311.2" type="curve"/>
    </contour>
  </outline>
</glyph>
<glyph name="Q" format="2">
  <advance width="506.35999999999996"/>
  <unicode hex="0051"/>
  <outline>
    <contour>
      <point x="297.23999999999995" y="13.48" type="curve"/>
      <point x="250.0" y="2.14" type="line"/>
      <point x="276.32" y="-144.0"/>
      <point x="308.68" y="-201.62"/>
      <point x="374.9" y="-201.62" type="curve" smooth="yes"/>
      <point x="395.98" y="-201.62"/>
      <point x="420.62" y="-195.82"/>
      <point x="446.68" y="-185.26" type="curve"/>
      <point x="437.3" y="-134.73999999999998" type="line"/>
      <point x="417.84000000000003" y="-143.84"/>
      <point x="399.6" y="-148.52"/>
      <point x="384.3" y="-148.52" type="curve" smooth="yes"/>
      <point x="341.24" y="-148.52"/>
      <point x="319.3" y="-105.52"/>
    </contour>
    <component base="O"/>
  </outline>
</glyph>
<glyph name="R" format="2">
  <advance width="468.3"/>
  <unicode hex="0052"/>
  <anchor x="224.1" y="700.0" name="top"/>
  <anchor x="233.5" y="0.0" name="bottom"/>
  <outline>
    <contour>
      <point x="441.5" y="-10.0" type="curve" smooth="yes"/>
      <point x="451.0" y="-10.0"/>
      <point x="458.3" y="-7.5"/>
      <point x="463.6" y="-6.0" type="curve"/>
      <point x="461.0" y="50.8" type="line"/>
      <point x="457.9" y="50.2"/>
      <point x="450.5" y="49.400000000000006"/>
      <point x="448.5" y="49.400000000000006" type="curve" smooth="yes"/>
      <point x="414.29999999999995" y="49.400000000000006"/>
      <point x="370.90000000000003" y="87.80000000000001"/>
      <point x="292.0" y="301.3" type="curve"/>
      <point x="370.7" y="323.9"/>
      <point x="412.5" y="388.0"/>
      <point x="412.5" y="509.0" type="curve" smooth="yes"/>
      <point x="412.5" y="659.2"/>
      <point x="351.2" y="710.0"/>
      <point x="204.0" y="710.0" type="curve" smooth="yes"/>
      <point x="154.9" y="710.0"/>
      <point x="112.89999999999999" y="707.6"/>
      <point x="57.0" y="702.7" type="curve"/>
      <point x="57.0" y="0.0" type="line"/>
      <point x="113.80000000000001" y="0.0" type="line"/>
      <point x="113.80000000000001" y="284.7" type="line"/>
      <point x="141.0" y="283.40000000000003"/>
      <point x="170.9" y="283.1"/>
      <point x="199.20000000000002" y="283.1" type="curve" smooth="yes"/>
      <point x="211.5" y="283.1"/>
      <point x="226.79999999999998" y="283.90000000000003"/>
      <point x="238.79999999999998" y="285.2" type="curve"/>
      <point x="331.4" y="34.1"/>
      <point x="380.9" y="-10.0"/>
    </contour>
    <contour>
      <point x="206.4" y="334.3" type="curve" smooth="yes"/>
      <point x="175.29999999999998" y="334.3"/>
      <point x="146.7" y="335.0"/>
      <point x="113.80000000000001" y="336.5" type="curve"/>
      <point x="113.80000000000001" y="655.6" type="line"/>
      <point x="150.4" y="659.1"/>
      <point x="170.3" y="659.9"/>
      <point x="204.6" y="659.9" type="curve" smooth="yes"/>
      <point x="318.3" y="659.9"/>
      <point x="354.3" y="616.3"/>
      <point x="354.3" y="501.2" type="curve" smooth="yes"/>
      <point x="354.3" y="379.5"/>
      <point x="308.0" y="334.3"/>
    </contour>
  </outline>
</glyph>
<glyph name="S" format="2">
  <advance width="413.79999999999995"/>
  <unicode hex="0053"/>
  <anchor x="213.1" y="700.0" name="top"/>
  <anchor x="205.39999999999998" y="0.0" name="bottom"/>
  <outline>
    <contour>
      <point x="359.59999999999997" y="685.8000000000001" type="line"/>
      <point x="328.0" y="698.6"/>
      <point x="269.79999999999995" y="710.0"/>
      <point x="220.7" y="710.0" type="curve" smooth="yes"/>
      <point x="103.30000000000001" y="710.0"/>
      <point x="35.9" y="642.5"/>
      <point x="35.9" y="545.6" type="curve" smooth="yes"/>
      <point x="35.9" y="450.5"/>
      <point x="84.7" y="390.59999999999997"/>
      <point x="181.9" y="332.4" type="curve" smooth="yes"/>
      <point x="278.20000000000005" y="275.3"/>
      <point x="328.7" y="227.1"/>
      <point x="328.7" y="152.2" type="curve" smooth="yes"/>
      <point x="328.7" y="77.9"/>
      <point x="271.5" y="40.800000000000004"/>
      <point x="188.6" y="40.800000000000004" type="curve" smooth="yes"/>
      <point x="141.10000000000002" y="40.800000000000004"/>
      <point x="78.1" y="51.5"/>
      <point x="34.8" y="68.40000000000002" type="curve"/>
      <point x="20.599999999999998" y="20.299999999999997" type="line"/>
      <point x="61.1" y="2.9"/>
      <point x="134.60000000000002" y="-10.0"/>
      <point x="188.1" y="-10.0" type="curve" smooth="yes"/>
      <point x="308.3" y="-10.0"/>
      <point x="386.2" y="50.1"/>
      <point x="386.2" y="156.7" type="curve" smooth="yes"/>
      <point x="386.2" y="253.7"/>
      <point x="335.2" y="311.7"/>
      <point x="234.10000000000002" y="370.4" type="curve" smooth="yes"/>
      <point x="138.9" y="426.09999999999997"/>
      <point x="93.8" y="472.6"/>
      <point x="93.8" y="546.7" type="curve" smooth="yes"/>
      <point x="93.8" y="616.7"/>
      <point x="144.50000000000003" y="659.3"/>
      <point x="222.8" y="659.3" type="curve" smooth="yes"/>
      <point x="265.29999999999995" y="659.3"/>
      <point x="311.90000000000003" y="651.3"/>
      <point x="345.8" y="638.3000000000001" type="curve"/>
    </contour>
  </outline>
</glyph>
<glyph name="T" format="2">
  <advance width="390.23999999999995"/>
  <unicode hex="0054"/>
  <anchor x="195.11999999999998" y="700.0" name="top"/>
  <anchor x="195.11999999999998" y="0.0" name="bottom"/>
  <outline>
    <contour>
      <point x="383.08" y="646.0799999999999" type="line"/>
      <point x="383.08" y="700.0" type="line"/>
      <point x="7.16" y="700.0" type="line"/>
      <point x="7.16" y="646.0799999999999" type="line"/>
      <point x="166.8" y="646.0799999999999" type="line"/>
      <point x="166.8" y="0.0" type="line"/>
      <point x="223.6" y="0.0" type="line"/>
      <point x="223.6" y="646.0799999999999" type="line"/>
    </contour>
  </outline>
</glyph>
<glyph name="U" format="2">
  <advance width="484.8"/>
  <unicode hex="0055"/>
  <anchor x="285.84000000000003" y="0.32" name="ogonek"/>
  <anchor x="242.79999999999998" y="700.0" name="top"/>
  <anchor x="436.64" y="700.0" name="topright"/>
  <anchor x="242.79999999999998" y="0.0" name="bottom"/>
  <outline>
    <contour>
      <point x="48.160000000000004" y="178.08" type="line"/>
      <point x="48.160000000000004" y="28.4"/>
      <point x="140.64" y="-10.0"/>
      <point x="242.48" y="-10.0" type="curve" smooth="yes"/>
      <point x="345.44" y="-10.0"/>
      <point x="436.64" y="28.4"/>
      <point x="436.64" y="178.08" type="curve" smooth="yes"/>
      <point x="436.64" y="700.0" type="line"/>
      <point x="379.84" y="700.0" type="line"/>
      <point x="379.84" y="175.36" type="line" smooth="yes"/>
      <point x="379.84" y="64.24"/>
      <point x="310.24" y="41.24"/>
      <point x="242.6" y="41.24" type="curve" smooth="yes"/>
      <point x="175.4" y="41.24"/>
      <point x="104.64" y="63.879999999999995"/>
      <point x="104.64" y="175.36" type="curve" smooth="yes"/>
      <point x="104.64" y="700.0" type="line"/>
      <point x="48.160000000000004" y="700.0" type="line"/>
    </contour>
  </outline>
</glyph>
<glyph name="V" format="2">
  <advance width="437.72"/>
  <unicode hex="0056"/>
  <outline>
    <contour>
      <point x="186.44" y="0.0" type="line"/>
      <point x="252.6" y="0.0" type="line"/>
      <point x="429.52" y="698.6" type="line"/>
      <point x="371.23999999999995" y="702.44" type="line"/>
      <point x="219.6" y="74.5" type="line"/>
      <point x="66.60000000000001" y="702.44" type="line"/>
      <point x="8.2" y="698.6" type="line"/>
    </contour>
  </outline>
</glyph>
<glyph name="W" format="2">
  <advance width="594.1"/>
  <unicode hex="0057"/>
  <anchor x="296.8" y="700.0" name="top"/>
  <anchor x="296.8" y="0.0" name="bottom"/>
  <outline>
    <contour>
      <point x="471.08" y="0.0" type="line"/>
      <point x="586.34" y="699.02" type="line"/>
      <point x="526.0799999999999" y="702.02" type="line"/>
      <point x="439.14" y="85.42" type="line"/>
      <point x="323.54" y="683.54" type="line"/>
      <point x="272.59999999999997" y="683.54" type="line"/>
      <point x="156.32000000000002" y="85.26" type="line"/>
      <point x="67.78" y="702.02" type="line"/>
      <point x="7.76" y="699.02" type="line"/>
      <point x="122.72" y="0.0" type="line"/>
      <point x="181.4" y="0.0" type="line"/>
      <point x="295.58" y="580.9000000000001" type="line"/>
      <point x="408.46000000000004" y="0.0" type="line"/>
    </contour>
  </outline>
</glyph>
<glyph name="X" format="2">
  <advance width="444.8"/>
  <unicode hex="0058"/>
  <outline>
    <contour>
      <point x="18.2" y="2.4" type="line"/>
      <point x="80.4" y="-4.0" type="line"/>
      <point x="221.0" y="311.6" type="line"/>
      <point x="363.0" y="-4.0" type="line"/>
      <point x="425.4" y="2.4" type="line"/>
      <point x="259.8" y="359.7" type="line"/>
      <point x="415.5" y="696.9" type="line"/>
      <point x="354.8" y="703.1" type="line"/>
      <point x="225.1" y="407.40000000000003" type="line"/>
      <point x="92.4" y="703.1" type="line"/>
      <point x="29.800000000000004" y="696.9" type="line"/>
      <point x="186.7" y="359.19999999999993" type="line"/>
    </contour>
  </outline>
</glyph>
<glyph name="Y" format="2">
  <advance width="428.40000000000003"/>
  <unicode hex="0059"/>
  <anchor x="214.84" y="700.0" name="top"/>
  <anchor x="215.32" y="0.0" name="bottom"/>
  <outline>
    <contour>
      <point x="187.48" y="0.0" type="line"/>
      <point x="244.28000000000003" y="0.0" type="line"/>
      <point x="244.28000000000003" y="294.00000000000006" type="line"/>
      <point x="418.47999999999996" y="696.8000000000001" type="line"/>
      <point x="358.64" y="703.1999999999999" type="line"/>
      <point x="216.04000000000002" y="342.03999999999996" type="line"/>
      <point x="67.36" y="703.1999999999999" type="line"/>
      <point x="7.359999999999999" y="696.8000000000001" type="line"/>
      <point x="187.48" y="294.00000000000006" type="line"/>
    </contour>
  </outline>
</glyph>
<glyph name="Z" format="2">
  <advance width="416.12"/>
  <unicode hex="005A"/>
  <anchor x="213.24" y="350.0" name="center"/>
  <anchor x="213.24" y="0.0" name="bottom"/>
  <anchor x="213.11999999999998" y="700.0" name="top"/>
  <outline>
    <contour>
      <point x="20.0" y="0.0" type="line"/>
      <point x="401.64" y="0.0" type="line"/>
      <point x="401.64" y="51.519999999999996" type="line"/>
      <point x="83.24" y="51.519999999999996" type="line"/>
      <point x="83.24" y="53.320000000000014" type="line"/>
      <point x="383.08000000000004" y="651.4000000000001" type="line"/>
      <point x="383.08000000000004" y="700.0" type="line"/>
      <point x="39.04" y="700.0" type="line"/>
      <point x="39.04" y="648.68" type="line"/>
      <point x="319.84000000000003" y="648.68" type="line"/>
      <point x="319.84000000000003" y="646.68" type="line"/>
      <point x="20.0" y="48.800000000000004" type="line"/>
    </contour>
  </outline>
</glyph>
<glyph name="bracketleft" format="2">
  <advance width="242.23999999999998"/>
  <unicode hex="005B"/>
  <outline>
    <contour>
      <point x="106.08" y="-164.0" type="line"/>
      <point x="106.08" y="694.0" type="line"/>
      <point x="228.23999999999998" y="694.0" type="line"/>
      <point x="228.23999999999998" y="740.0" type="line"/>
      <point x="59.599999999999994" y="740.0" type="line"/>
      <point x="59.599999999999994" y="-210.0" type="line"/>
      <point x="228.23999999999998" y="-210.0" type="line"/>
      <point x="228.23999999999998" y="-164.0" type="line"/>
    </contour>
  </outline>
</glyph>
<glyph name="backslash" format="2">
  <advance width="280.52"/>
  <unicode hex="005C"/>
  <outline>
    <contour>
      <point x="50.36" y="740.0" type="line"/>
      <point x="1.6799999999999997" y="740.0" type="line"/>
      <point x="230.32000000000002" y="-210.0" type="line"/>
      <point x="278.84" y="-210.0" type="line"/>
    </contour>
  </outline>
</glyph>
<glyph name="bracketright" format="2">
  <advance width="242.23999999999998"/>
  <unicode hex="005D"/>
  <outline>
    <contour>
      <point x="14.0" y="-164.0" type="line"/>
      <point x="14.0" y="-210.0" type="line"/>
      <point x="182.64" y="-210.0" type="line"/>
      <point x="182.64" y="740.0" type="line"/>
      <point x="14.0" y="740.0" type="line"/>
      <point x="14.0" y="694.0" type="line"/>
      <point x="136.16" y="694.0" type="line"/>
      <point x="136.16" y="-164.0" type="line"/>
    </contour>
  </outline>
</glyph>
<glyph name="asciicircum" format="2">
  <advance width="424.88"/>
  <unicode hex="005E"/>
  <outline>
    <contour>
      <point x="40.400000000000006" y="269.52" type="line"/>
      <point x="86.92" y="269.52" type="line"/>
      <point x="212.44" y="648.9200000000001" type="line"/>
      <point x="338.15999999999997" y="269.52" type="line"/>
      <point x="384.48" y="269.52" type="line"/>
      <point x="239.48000000000002" y="708.0" type="line"/>
      <point x="185.39999999999998" y="708.0" type="line"/>
    </contour>
  </outline>
</glyph>
<glyph name="underscore" format="2">
  <advance width="690.88"/>
  <unicode hex="005F"/>
  <outline>
    <contour>
      <point x="4.0" y="-150.64" type="line"/>
      <point x="686.88" y="-150.64" type="line"/>
      <point x="686.88" y="-101.04" type="line"/>
      <point x="4.0" y="-101.04" type="line"/>
    </contour>
  </outline>
</glyph>
<glyph name="a" format="2">
  <advance width="390.70000000000005"/>
  <unicode hex="0061"/>
  <anchor x="389.8" y="3.0" name="ogonek"/>
  <anchor x="187.0" y="0.0" name="bottom"/>
  <anchor x="187.5" y="534.0" name="top"/>
  <outline>
    <contour>
      <point x="20.2" y="120.19999999999999" type="curve" smooth="yes"/>
      <point x="20.2" y="38.1"/>
      <point x="62.5" y="-10.0"/>
      <point x="132.20000000000002" y="-10.0" type="curve" smooth="yes"/>
      <point x="192.10000000000002" y="-10.0"/>
      <point x="238.10000000000002" y="18.2"/>
      <point x="274.3" y="51.8" type="curve"/>
      <point x="279.09999999999997" y="11.200000000000001"/>
      <point x="301.09999999999997" y="-10.0"/>
      <point x="338.8" y="-10.0" type="curve" smooth="yes"/>
      <point x="357.4" y="-10.0"/>
      <point x="373.3" y="-5.8"/>
      <point x="389.8" y="3.2" type="curve"/>
      <point x="381.9" y="49.4" type="line"/>
      <point x="372.0" y="44.800000000000004"/>
      <point x="362.90000000000003" y="43.2"/>
      <point x="354.7" y="43.2" type="curve" smooth="yes"/>
      <point x="337.5" y="43.2"/>
      <point x="327.0" y="53.6"/>
      <point x="327.0" y="89.1" type="curve" smooth="yes"/>
      <point x="327.0" y="396.3" type="line" smooth="yes"/>
      <point x="327.0" y="492.7"/>
      <point x="279.1" y="544.0"/>
      <point x="178.0" y="544.0" type="curve" smooth="yes"/>
      <point x="140.0" y="544.0"/>
      <point x="93.69999999999999" y="536.4"/>
      <point x="49.3" y="521.1999999999999" type="curve"/>
      <point x="61.8" y="472.2" type="line"/>
      <point x="105.89999999999999" y="486.5"/>
      <point x="144.7" y="490.8"/>
      <point x="174.3" y="490.8" type="curve" smooth="yes"/>
      <point x="238.5" y="490.8"/>
      <point x="271.09999999999997" y="456.4"/>
      <point x="271.09999999999997" y="395.3" type="curve" smooth="yes"/>
      <point x="271.09999999999997" y="294.3" type="line"/>
      <point x="114.2" y="272.3"/>
      <point x="20.2" y="240.7"/>
    </contour>
    <contour>
      <point x="76.39999999999999" y="127.0" type="curve" smooth="yes"/>
      <point x="76.39999999999999" y="216.1"/>
      <point x="162.39999999999998" y="240.5"/>
      <point x="271.09999999999997" y="254.5" type="curve"/>
      <point x="271.09999999999997" y="95.60000000000001" type="line"/>
      <point x="240.29999999999998" y="63.00000000000001"/>
      <point x="195.20000000000002" y="35.2"/>
      <point x="149.1" y="35.2" type="curve" smooth="yes"/>
      <point x="104.39999999999999" y="35.2"/>
      <point x="76.39999999999999" y="67.0"/>
    </contour>
  </outline>
</glyph>
<glyph name="b" format="2">
  <advance width="405.16"/>
  <unicode hex="0062"/>
  <outline>
    <contour>
      <point x="53.2" y="9.88" type="line"/>
      <point x="104.0" y="-3.4800000000000004"/>
      <point x="146.4" y="-10.0"/>
      <point x="183.84" y="-10.0" type="curve" smooth="yes"/>
      <point x="316.56" y="-10.0"/>
      <point x="372.0" y="71.71999999999998"/>
      <point x="372.0" y="280.44000000000005" type="curve" smooth="yes"/>
      <point x="372.0" y="451.84"/>
      <point x="322.2" y="544.0"/>
      <point x="230.8" y="544.0" type="curve" smooth="yes"/>
      <point x="190.64" y="544.0"/>
      <point x="147.84" y="529.72"/>
      <point x="109.2" y="503.40000000000003" type="curve"/>
      <point x="109.2" y="740.0" type="line"/>
      <point x="53.2" y="740.0" type="line"/>
    </contour>
    <contour>
      <point x="109.2" y="45.199999999999996" type="curve"/>
      <point x="109.2" y="456.2" type="line"/>
      <point x="149.95999999999998" y="483.64"/>
      <point x="177.84000000000003" y="493.6"/>
      <point x="213.0" y="493.6" type="curve" smooth="yes"/>
      <point x="277.68" y="493.6"/>
      <point x="314.08" y="419.52"/>
      <point x="314.08" y="276.52" type="curve" smooth="yes"/>
      <point x="314.08" y="96.64000000000001"/>
      <point x="276.15999999999997" y="34.519999999999996"/>
      <point x="183.32000000000002" y="34.519999999999996" type="curve" smooth="yes"/>
      <point x="162.72" y="34.519999999999996"/>
      <point x="141.20000000000002" y="37.6"/>
    </contour>
  </outline>
</glyph>
<glyph name="c" format="2">
  <advance width="353.03999999999996"/>
  <unicode hex="0063"/>
  <anchor x="209.8" y="534.0" name="top"/>
  <anchor x="211.44" y="0.0" name="bottom"/>
  <outline>
    <contour>
      <point x="33.36" y="260.91999999999996" type="curve" smooth="yes"/>
      <point x="33.36" y="72.88"/>
      <point x="92.88000000000001" y="-10.0"/>
      <point x="213.64000000000001" y="-10.0" type="curve" smooth="yes"/>
      <point x="253.07999999999998" y="-10.0"/>
      <point x="302.32000000000005" y="-3.0000000000000004"/>
      <point x="333.76" y="6.12" type="curve"/>
      <point x="323.24" y="52.96" type="line"/>
      <point x="293.44" y="46.24"/>
      <point x="253.24" y="40.760000000000005"/>
      <point x="223.88" y="40.760000000000005" type="curve" smooth="yes"/>
      <point x="137.44" y="40.760000000000005"/>
      <point x="90.48" y="102.12"/>
      <point x="90.48" y="258.48" type="curve" smooth="yes"/>
      <point x="90.48" y="427.96000000000004"/>
      <point x="137.12" y="493.08"/>
      <point x="226.24" y="493.08" type="curve" smooth="yes"/>
      <point x="255.4" y="493.08"/>
      <point x="288.44" y="488.59999999999997"/>
      <point x="317.24" y="481.4" type="curve"/>
      <point x="326.4" y="529.68" type="line"/>
      <point x="296.2" y="538.8000000000001"/>
      <point x="254.68" y="544.0"/>
      <point x="221.4" y="544.0" type="curve" smooth="yes"/>
      <point x="96.64" y="544.0"/>
      <point x="33.36" y="457.76"/>
    </contour>
  </outline>
</glyph>
<glyph name="d" format="2">
  <advance width="405.40000000000003"/>
  <unicode hex="0064"/>
  <anchor x="202.55999999999997" y="275.0" name="center"/>
  <anchor x="203.22" y="740.0" name="top"/>
  <anchor x="419.4" y="740.0" name="topright"/>
  <anchor x="202.55999999999997" y="0.0" name="bottom"/>
  <outline>
    <contour>
      <point x="303.96" y="-0.2" type="line"/>
      <point x="352.30000000000007" y="-0.2" type="line"/>
      <point x="352.30000000000007" y="740.0" type="line"/>
      <point x="295.90000000000003" y="740.0" type="line"/>
      <point x="295.90000000000003" y="533.9399999999999" type="line"/>
      <point x="267.20000000000005" y="540.96"/>
      <point x="239.56" y="544.0"/>
      <point x="214.32" y="544.0" type="curve" smooth="yes"/>
      <point x="89.12" y="544.0"/>
      <point x="33.1" y="458.43999999999994"/>
      <point x="33.1" y="255.01999999999998" type="curve" smooth="yes"/>
      <point x="33.1" y="82.04"/>
      <point x="83.83999999999999" y="-10.0"/>
      <point x="175.78" y="-10.0" type="curve" smooth="yes"/>
      <point x="217.4" y="-10.0"/>
      <point x="257.12000000000006" y="2.9999999999999996"/>
      <point x="296.59999999999997" y="30.699999999999996" type="curve"/>
    </contour>
    <contour>
      <point x="295.90000000000003" y="76.96" type="line"/>
      <point x="255.65999999999997" y="50.2"/>
      <point x="227.38" y="40.13999999999999"/>
      <point x="191.88000000000002" y="40.13999999999999" type="curve" smooth="yes"/>
      <point x="127.84000000000002" y="40.13999999999999"/>
      <point x="91.4" y="114.2"/>
      <point x="91.4" y="260.12" type="curve" smooth="yes"/>
      <point x="91.4" y="437.36000000000007"/>
      <point x="129.17999999999998" y="498.76000000000005"/>
      <point x="221.72000000000003" y="498.76000000000005" type="curve" smooth="yes"/>
      <point x="242.64000000000001" y="498.76000000000005"/>
      <point x="264.44000000000005" y="495.82"/>
      <point x="295.90000000000003" y="487.76000000000005" type="curve"/>
    </contour>
  </outline>
</glyph>
<glyph name="e" format="2">
  <advance width="392.56"/>
  <unicode hex="0065"/>
  <anchor x="325.08" y="6.160000000000001" name="ogonek"/>
  <anchor x="208.8" y="0.0" name="bottom"/>
  <anchor x="207.27999999999997" y="534.0" name="top"/>
  <outline>
    <contour>
      <point x="206.52000000000004" y="-10.0" type="curve" smooth="yes"/>
      <point x="261.64000000000004" y="-10.0"/>
      <point x="313.52000000000004" y="-0.6799999999999997"/>
      <point x="355.40000000000003" y="14.52" type="curve"/>
      <point x="346.71999999999997" y="60.96" type="line"/>
      <point x="307.71999999999997" y="48.88000000000001"/>
      <point x="260.64" y="40.12000000000001"/>
      <point x="216.4" y="40.12000000000001" type="curve" smooth="yes"/>
      <point x="132.12000000000003" y="40.12000000000001"/>
      <point x="90.60000000000001" y="90.2"/>
      <point x="90.60000000000001" y="246.68" type="curve" smooth="yes"/>
      <point x="90.60000000000001" y="253.8"/>
      <point x="90.72000000000001" y="261.08000000000004"/>
      <point x="91.04000000000002" y="268.08" type="curve"/>
      <point x="215.0" y="268.68"/>
      <point x="318.04" y="279.88"/>
      <point x="363.04" y="285.52" type="curve"/>
      <point x="363.36" y="293.48"/>
      <point x="364.24000000000007" y="311.52"/>
      <point x="364.24000000000007" y="319.2" type="curve" smooth="yes"/>
      <point x="364.24000000000007" y="479.32"/>
      <point x="315.35999999999996" y="544.0"/>
      <point x="215.6" y="544.0" type="curve" smooth="yes"/>
      <point x="109.84" y="544.0"/>
      <point x="33.2" y="477.28"/>
      <point x="33.2" y="252.88000000000002" type="curve" smooth="yes"/>
      <point x="33.2" y="63.16"/>
      <point x="91.68" y="-10.0"/>
    </contour>
    <contour>
      <point x="91.60000000000001" y="310.32" type="curve"/>
      <point x="101.8" y="463.8"/>
      <point x="156.12" y="498.96000000000004"/>
      <point x="212.8" y="498.96000000000004" type="curve" smooth="yes"/>
      <point x="276.91999999999996" y="498.96000000000004"/>
      <point x="307.72" y="452.23999999999995"/>
      <point x="308.12" y="322.36" type="curve"/>
      <point x="282.88" y="317.92"/>
      <point x="187.92" y="310.52"/>
    </contour>
  </outline>
</glyph>
<glyph name="f" format="2">
  <advance width="278.92"/>
  <unicode hex="0066"/>
  <outline>
    <contour>
      <point x="87.44" y="0.0" type="line"/>
      <point x="142.64000000000001" y="0.0" type="line"/>
      <point x="142.64000000000001" y="444.68" type="line"/>
      <point x="266.20000000000005" y="444.68" type="line"/>
      <point x="266.20000000000005" y="491.2" type="line"/>
      <point x="142.79999999999998" y="491.2" type="line"/>
      <point x="142.79999999999998" y="515.92" type="line" smooth="yes"/>
      <point x="142.79999999999998" y="647.48"/>
      <point x="176.32" y="701.16"/>
      <point x="245.8" y="701.16" type="curve" smooth="yes"/>
      <point x="268.15999999999997" y="701.16"/>
      <point x="290.08" y="697.9599999999999"/>
      <point x="316.44000000000005" y="689.9200000000001" type="curve"/>
      <point x="325.4" y="734.28" type="line"/>
      <point x="291.64000000000004" y="745.68"/>
      <point x="264.03999999999996" y="750.1600000000001"/>
      <point x="234.56" y="750.1600000000001" type="curve" smooth="yes"/>
      <point x="137.83999999999997" y="750.1600000000001"/>
      <point x="87.44" y="679.44"/>
      <point x="87.44" y="516.4799999999999" type="curve" smooth="yes"/>
      <point x="87.44" y="491.2" type="line"/>
      <point x="15.600000000000001" y="484.64" type="line"/>
      <point x="15.600000000000001" y="444.68" type="line"/>
      <point x="87.44" y="444.68" type="line"/>
    </contour>
  </outline>
</glyph>
<glyph name="g" format="2">
  <advance width="408.44"/>
  <unicode hex="0067"/>
  <anchor x="204.68" y="534.0" name="top"/>
  <anchor x="206.24" y="-212.0" name="bottom"/>
  <outline>
    <contour>
      <point x="202.28" y="-220.0" type="curve" smooth="yes"/>
      <point x="326.76" y="-220.0"/>
      <point x="396.88" y="-159.44"/>
      <point x="396.88" y="-58.96" type="curve" smooth="yes"/>
      <point x="396.88" y="27.400000000000002"/>
      <point x="351.72" y="74.84"/>
      <point x="266.44" y="74.84" type="curve" smooth="yes"/>
      <point x="164.24" y="74.84" type="line" smooth="yes"/>
      <point x="111.75999999999999" y="74.84"/>
      <point x="90.87999999999998" y="98.48"/>
      <point x="90.87999999999998" y="134.6" type="curve" smooth="yes"/>
      <point x="90.87999999999998" y="169.48000000000002"/>
      <point x="108.0" y="195.64000000000001"/>
      <point x="139.64000000000001" y="217.0" type="curve"/>
      <point x="107.67999999999999" y="232.15999999999997" type="line"/>
      <point x="66.8" y="203.71999999999997"/>
      <point x="44.76" y="167.60000000000002"/>
      <point x="44.76" y="121.64" type="curve" smooth="yes"/>
      <point x="44.76" y="61.72"/>
      <point x="81.76" y="23.52"/>
      <point x="161.07999999999998" y="23.52" type="curve" smooth="yes"/>
      <point x="255.11999999999998" y="23.52" type="line" smooth="yes"/>
      <point x="313.84000000000003" y="23.52"/>
      <point x="343.68" y="-7.56"/>
      <point x="343.68" y="-63.52" type="curve" smooth="yes"/>
      <point x="343.68" y="-132.92"/>
      <point x="295.08" y="-173.08"/>
      <point x="205.48000000000002" y="-173.08" type="curve" smooth="yes"/>
      <point x="117.84" y="-173.08"/>
      <point x="73.52000000000001" y="-137.79999999999998"/>
      <point x="73.52000000000001" y="-66.35999999999999" type="curve" smooth="yes"/>
      <point x="73.52000000000001" y="-21.439999999999998"/>
      <point x="90.07999999999998" y="12.160000000000002"/>
      <point x="129.88000000000002" y="37.519999999999996" type="curve"/>
      <point x="92.96" y="51.0" type="line"/>
      <point x="44.64" y="20.759999999999998"/>
      <point x="24.519999999999996" y="-21.439999999999998"/>
      <point x="24.519999999999996" y="-76.28" type="curve" smooth="yes"/>
      <point x="24.519999999999996" y="-171.4"/>
      <point x="86.00000000000001" y="-220.0"/>
    </contour>
    <contour>
      <point x="202.28000000000003" y="198.55999999999997" type="curve" smooth="yes"/>
      <point x="302.28000000000003" y="198.55999999999997"/>
      <point x="352.44000000000005" y="256.16"/>
      <point x="352.44000000000005" y="371.0" type="curve" smooth="yes"/>
      <point x="352.44000000000005" y="486.03999999999996"/>
      <point x="302.28000000000003" y="544.0"/>
      <point x="202.28000000000003" y="544.0" type="curve" smooth="yes"/>
      <point x="102.08" y="544.0"/>
      <point x="51.92" y="486.03999999999996"/>
      <point x="51.92" y="371.0" type="curve" smooth="yes"/>
      <point x="51.92" y="256.16"/>
      <point x="102.08" y="198.55999999999997"/>
    </contour>
    <contour>
      <point x="202.28000000000003" y="242.96" type="curve" smooth="yes"/>
      <point x="136.88" y="242.96"/>
      <point x="106.52000000000001" y="281.68"/>
      <point x="106.52000000000001" y="371.0" type="curve" smooth="yes"/>
      <point x="106.52000000000001" y="461.19999999999993"/>
      <point x="136.88" y="499.79999999999995"/>
      <point x="202.28000000000003" y="499.79999999999995" type="curve" smooth="yes"/>
      <point x="267.67999999999995" y="499.79999999999995"/>
      <point x="297.84000000000003" y="461.19999999999993"/>
      <point x="297.84000000000003" y="371.0" type="curve" smooth="yes"/>
      <point x="297.84000000000003" y="281.68"/>
      <point x="267.67999999999995" y="242.96"/>
    </contour>
    <contour>
      <point x="315.12" y="466.11999999999995" type="line"/>
      <point x="329.52" y="495.84"/>
      <point x="347.92" y="508.76"/>
      <point x="372.36" y="508.76" type="curve" smooth="yes"/>
      <point x="381.16" y="508.76"/>
      <point x="386.88" y="508.24"/>
      <point x="393.0" y="506.6" type="curve"/>
      <point x="399.32" y="555.4" type="line"/>
      <point x="390.96" y="558.04"/>
      <point x="383.4" y="559.1600000000001"/>
      <point x="372.36" y="559.1600000000001" type="curve" smooth="yes"/>
      <point x="335.36" y="559.1600000000001"/>
      <point x="305.6" y="539.44"/>
      <point x="291.28000000000003" y="504.4" type="curve"/>
    </contour>
  </outline>
</glyph>
<glyph name="h" format="2">
  <advance width="412.34"/>
  <unicode hex="0068"/>
  <anchor x="206.02" y="395.0" name="center"/>
  <anchor x="206.42000000000002" y="0.0" name="bottom"/>
  <anchor x="209.94" y="740.0" name="top"/>
  <outline>
    <contour>
      <point x="53.1" y="0.0" type="line"/>
      <point x="109.4" y="0.0" type="line"/>
      <point x="109.4" y="457.0" type="line"/>
      <point x="145.84" y="478.20000000000005"/>
      <point x="184.18" y="492.86"/>
      <point x="222.96" y="492.86" type="curve" smooth="yes"/>
      <point x="276.87999999999994" y="492.86"/>
      <point x="303.04" y="462.52"/>
      <point x="303.04" y="407.73999999999995" type="curve" smooth="yes"/>
      <point x="303.04" y="0.0" type="line"/>
      <point x="359.44000000000005" y="0.0" type="line"/>
      <point x="359.44000000000005" y="420.14" type="line" smooth="yes"/>
      <point x="359.44000000000005" y="506.44000000000005"/>
      <point x="314.46000000000004" y="544.0"/>
      <point x="245.51999999999998" y="544.0" type="curve" smooth="yes"/>
      <point x="196.06" y="544.0"/>
      <point x="151.88" y="527.5799999999999"/>
      <point x="109.4" y="502.29999999999995" type="curve"/>
      <point x="109.4" y="740.0" type="line"/>
      <point x="53.1" y="740.0" type="line"/>
    </contour>
  </outline>
</glyph>
<glyph name="i" format="2">
  <advance width="162.4"/>
  <unicode hex="0069"/>
  <anchor x="109.03999999999999" y="0.0" name="ogonek"/>
  <anchor x="81.28" y="0.0" name="bottom"/>
  <outline>
    <contour>
      <point x="81.28" y="655.4399999999999" type="curve" smooth="yes"/>
      <point x="108.24" y="655.4399999999999"/>
      <point x="115.84" y="663.6800000000001"/>
      <point x="115.84" y="691.04" type="curve" smooth="yes"/>
      <point x="115.84" y="718.7199999999999"/>
      <point x="107.92000000000002" y="726.8"/>
      <point x="81.28" y="726.8" type="curve" smooth="yes"/>
      <point x="54.48" y="726.8"/>
      <point x="46.56" y="718.7199999999999"/>
      <point x="46.56" y="691.04" type="curve" smooth="yes"/>
      <point x="46.56" y="663.52"/>
      <point x="55.28" y="655.4399999999999"/>
    </contour>
    <contour>
      <point x="53.2" y="0.0" type="line"/>
      <point x="109.2" y="0.0" type="line"/>
      <point x="109.2" y="534.0" type="line"/>
      <point x="53.2" y="534.0" type="line"/>
    </contour>
  </outline>
</glyph>
<glyph name="j" format="2">
  <advance width="163.2"/>
  <unicode hex="006A"/>
  <outline>
    <contour>
      <point x="110.16" y="534.0" type="line"/>
      <point x="54.16" y="534.0" type="line"/>
      <point x="54.16" y="17.96" type="line" smooth="yes"/>
      <point x="54.16" y="-69.56000000000002"/>
      <point x="35.400000000000006" y="-122.76"/>
      <point x="-1.08" y="-148.36" type="curve" smooth="yes"/>
      <point x="-7.999999999999998" y="-152.51999999999998"/>
      <point x="-14.599999999999998" y="-155.4"/>
      <point x="-22.799999999999997" y="-157.16" type="curve"/>
      <point x="-20.159999999999997" y="-207.64" type="line"/>
      <point x="-6.16" y="-205.79999999999998"/>
      <point x="7.640000000000001" y="-202.08"/>
      <point x="19.68" y="-197.28" type="curve" smooth="yes"/>
      <point x="81.72" y="-168.0"/>
      <point x="110.16" y="-99.92"/>
      <point x="110.16" y="15.12" type="curve" smooth="yes"/>
    </contour>
    <contour>
      <point x="81.92" y="655.4399999999999" type="curve" smooth="yes"/>
      <point x="108.24" y="655.4399999999999"/>
      <point x="116.47999999999999" y="663.6800000000001"/>
      <point x="116.47999999999999" y="691.04" type="curve" smooth="yes"/>
      <point x="116.47999999999999" y="718.7199999999999"/>
      <point x="107.92" y="726.8"/>
      <point x="81.92" y="726.8" type="curve" smooth="yes"/>
      <point x="55.12" y="726.8"/>
      <point x="47.199999999999996" y="718.7199999999999"/>
      <point x="47.199999999999996" y="691.04" type="curve" smooth="yes"/>
      <point x="47.199999999999996" y="663.52"/>
      <point x="55.919999999999995" y="655.4399999999999"/>
    </contour>
  </outline>
</glyph>
<glyph name="l" format="2">
  <advance width="200.72"/>
  <unicode hex="006C"/>
  <anchor x="100.80000000000001" y="395.0" name="center"/>
  <anchor x="81.28" y="740.0" name="top"/>
  <anchor x="176.4" y="740.0" name="topright"/>
  <anchor x="126.4" y="0.0" name="bottom"/>
  <outline>
    <contour>
      <point x="109.2" y="740.0" type="line"/>
      <point x="53.2" y="740.0" type="line"/>
      <point x="53.2" y="117.28" type="line" smooth="yes"/>
      <point x="53.2" y="15.8"/>
      <point x="85.12" y="-10.0"/>
      <point x="142.28" y="-10.0" type="curve" smooth="yes"/>
      <point x="162.56" y="-10.0"/>
      <point x="183.23999999999998" y="-4.8"/>
      <point x="200.08" y="2.6000000000000005" type="curve"/>
      <point x="193.92" y="50.24" type="line"/>
      <point x="177.88" y="45.080000000000005"/>
      <point x="165.48" y="42.96000000000001"/>
      <point x="155.04" y="42.96000000000001" type="curve" smooth="yes"/>
      <point x="128.12" y="42.96000000000001"/>
      <point x="109.2" y="55.64000000000001"/>
      <point x="109.2" y="122.16" type="curve" smooth="yes"/>
    </contour>
  </outline>
</glyph>
<glyph name="m" format="2">
  <advance width="627.76"/>
  <unicode hex="006D"/>
  <outline>
    <contour>
      <point x="53.2" y="0.0" type="line"/>
      <point x="109.36" y="0.0" type="line"/>
      <point x="109.36" y="458.52000000000004" type="line"/>
      <point x="141.35999999999999" y="478.64"/>
      <point x="175.68" y="492.16"/>
      <point x="210.6" y="492.16" type="curve" smooth="yes"/>
      <point x="268.72" y="492.16"/>
      <point x="286.36" y="452.12"/>
      <point x="286.36" y="407.03999999999996" type="curve" smooth="yes"/>
      <point x="286.36" y="0.0" type="line"/>
      <point x="342.52000000000004" y="0.0" type="line"/>
      <point x="342.52000000000004" y="409.68" type="line" smooth="yes"/>
      <point x="342.52000000000004" y="426.48"/>
      <point x="340.28000000000003" y="442.52000000000004"/>
      <point x="335.28" y="456.59999999999997" type="curve"/>
      <point x="364.28" y="475.84"/>
      <point x="402.68" y="493.0"/>
      <point x="442.47999999999996" y="493.0" type="curve" smooth="yes"/>
      <point x="501.2000000000001" y="493.0"/>
      <point x="518.72" y="452.84"/>
      <point x="518.72" y="407.68" type="curve" smooth="yes"/>
      <point x="518.72" y="0.0" type="line"/>
      <point x="574.88" y="0.0" type="line"/>
      <point x="574.88" y="420.8" type="line" smooth="yes"/>
      <point x="574.88" y="494.23999999999995"/>
      <point x="540.4" y="544.0"/>
      <point x="465.76000000000005" y="544.0" type="curve" smooth="yes"/>
      <point x="406.2" y="544.0"/>
      <point x="358.12000000000006" y="520.2"/>
      <point x="323.76" y="496.44" type="curve"/>
      <point x="306.64" y="525.7599999999999"/>
      <point x="277.20000000000005" y="543.2"/>
      <point x="233.44" y="543.2" type="curve" smooth="yes"/>
      <point x="186.59999999999997" y="543.2"/>
      <point x="144.72" y="527.24"/>
      <point x="105.39999999999999" y="502.96" type="curve"/>
      <point x="105.39999999999999" y="534.0" type="line"/>
      <point x="53.2" y="534.0" type="line"/>
    </contour>
  </outline>
</glyph>
<glyph name="n" format="2">
  <advance width="412.32000000000005"/>
  <unicode hex="006E"/>
  <anchor x="209.6" y="534.0" name="top"/>
  <anchor x="211.20000000000002" y="0.0" name="bottom"/>
  <outline>
    <contour>
      <point x="53.2" y="0.0" type="line"/>
      <point x="109.36" y="0.0" type="line"/>
      <point x="109.36" y="457.08" type="line"/>
      <point x="145.72" y="478.24"/>
      <point x="184.24" y="493.16"/>
      <point x="223.16" y="493.16" type="curve" smooth="yes"/>
      <point x="277.08000000000004" y="493.16"/>
      <point x="303.28000000000003" y="462.68"/>
      <point x="303.28000000000003" y="407.84" type="curve" smooth="yes"/>
      <point x="303.28000000000003" y="0.0" type="line"/>
      <point x="359.44" y="0.0" type="line"/>
      <point x="359.44" y="420.96" type="line" smooth="yes"/>
      <point x="359.44" y="504.84"/>
      <point x="315.68" y="544.0"/>
      <point x="245.51999999999998" y="544.0" type="curve" smooth="yes"/>
      <point x="194.84" y="544.0"/>
      <point x="150.16" y="527.84"/>
      <point x="105.39999999999999" y="501.67999999999995" type="curve"/>
      <point x="105.39999999999999" y="534.0" type="line"/>
      <point x="53.2" y="534.0" type="line"/>
    </contour>
  </outline>
</glyph>
<glyph name="o" format="2">
  <advance width="410.16"/>
  <unicode hex="006F"/>
  <anchor x="255.51999999999998" y="1.68" name="ogonek"/>
  <anchor x="205.08" y="534.0" name="top"/>
  <anchor x="291.56" y="525.6" name="topright"/>
  <anchor x="205.08" y="0.0" name="bottom"/>
  <outline>
    <contour>
      <point x="33.2" y="267.55999999999995" type="curve" smooth="yes"/>
      <point x="33.2" y="64.16"/>
      <point x="80.04" y="-10.0"/>
      <point x="205.08" y="-10.0" type="curve" smooth="yes"/>
      <point x="330.12" y="-10.0"/>
      <point x="376.96" y="64.16"/>
      <point x="376.96" y="267.55999999999995" type="curve" smooth="yes"/>
      <point x="376.96" y="468.35999999999996"/>
      <point x="333.52" y="544.0"/>
      <point x="205.08" y="544.0" type="curve" smooth="yes"/>
      <point x="76.56" y="544.0"/>
      <point x="33.2" y="468.35999999999996"/>
    </contour>
    <contour>
      <point x="90.8" y="267.56" type="curve" smooth="yes"/>
      <point x="90.8" y="443.08"/>
      <point x="120.60000000000001" y="495.20000000000005"/>
      <point x="205.08" y="495.20000000000005" type="curve" smooth="yes"/>
      <point x="289.4" y="495.20000000000005"/>
      <point x="319.28000000000003" y="443.08"/>
      <point x="319.28000000000003" y="267.56" type="curve" smooth="yes"/>
      <point x="319.28000000000003" y="90.12"/>
      <point x="286.48" y="38.96"/>
      <point x="205.08" y="38.96" type="curve" smooth="yes"/>
      <point x="123.52000000000001" y="38.96"/>
      <point x="90.8" y="90.12"/>
    </contour>
  </outline>
</glyph>
<glyph name="p" format="2">
  <advance width="405.32"/>
  <unicode hex="0070"/>
  <outline>
    <contour>
      <point x="53.2" y="-210.0" type="line"/>
      <point x="109.4" y="-210.0" type="line"/>
      <point x="109.4" y="0.36" type="line"/>
      <point x="140.64" y="-6.92"/>
      <point x="167.12" y="-10.0"/>
      <point x="190.88000000000002" y="-10.0" type="curve" smooth="yes"/>
      <point x="316.08" y="-10.0"/>
      <point x="372.16" y="75.71999999999998"/>
      <point x="372.16" y="279.16" type="curve" smooth="yes"/>
      <point x="372.16" y="450.23999999999995"/>
      <point x="322.04" y="544.0"/>
      <point x="231.92000000000002" y="544.0" type="curve" smooth="yes"/>
      <point x="189.95999999999998" y="544.0"/>
      <point x="147.64" y="529.96"/>
      <point x="107.32000000000001" y="502.52000000000004" type="curve"/>
      <point x="105.39999999999999" y="540.4" type="line"/>
      <point x="53.2" y="540.4" type="line"/>
    </contour>
    <contour>
      <point x="183.48000000000002" y="35.16" type="curve" smooth="yes"/>
      <point x="162.72" y="35.16"/>
      <point x="141.20000000000002" y="38.4"/>
      <point x="109.36" y="46.32" type="curve"/>
      <point x="109.36" y="457.32" type="line"/>
      <point x="149.8" y="484.44"/>
      <point x="177.84000000000003" y="494.24"/>
      <point x="212.84" y="494.24" type="curve" smooth="yes"/>
      <point x="277.68" y="494.24"/>
      <point x="314.08" y="419.84000000000003"/>
      <point x="314.08" y="273.96" type="curve" smooth="yes"/>
      <point x="314.08" y="96.96000000000001"/>
      <point x="276.15999999999997" y="35.16"/>
    </contour>
  </outline>
</glyph>
<glyph name="q" format="2">
  <advance width="405.47999999999996"/>
  <unicode hex="0071"/>
  <outline>
    <contour>
      <point x="352.28" y="525.4" type="line"/>
      <point x="300.84000000000003" y="538.44"/>
      <point x="260.2" y="544.0"/>
      <point x="221.64" y="544.0" type="curve" smooth="yes"/>
      <point x="90.52" y="544.0"/>
      <point x="33.160000000000004" y="461.15999999999997"/>
      <point x="33.160000000000004" y="258.03999999999996" type="curve" smooth="yes"/>
      <point x="33.160000000000004" y="83.6"/>
      <point x="83.44" y="-10.0"/>
      <point x="174.68" y="-10.0" type="curve" smooth="yes"/>
      <point x="215.16000000000003" y="-10.0"/>
      <point x="257.96" y="4.280000000000001"/>
      <point x="296.28" y="30.439999999999998" type="curve"/>
      <point x="296.28" y="-210.0" type="line"/>
      <point x="352.28" y="-210.0" type="line"/>
    </contour>
    <contour>
      <point x="296.12" y="487.84000000000003" type="curve"/>
      <point x="296.12" y="77.48" type="line"/>
      <point x="255.67999999999998" y="50.2"/>
      <point x="227.64000000000001" y="40.08"/>
      <point x="192.48" y="40.08" type="curve" smooth="yes"/>
      <point x="128.44" y="40.08"/>
      <point x="91.39999999999999" y="115.44"/>
      <point x="91.39999999999999" y="257.15999999999997" type="curve" smooth="yes"/>
      <point x="91.39999999999999" y="437.04"/>
      <point x="129.32" y="499.16"/>
      <point x="222.16" y="499.16" type="curve" smooth="yes"/>
      <point x="242.00000000000003" y="499.16"/>
      <point x="264.28000000000003" y="496.08"/>
    </contour>
  </outline>
</glyph>
<glyph name="r" format="2">
  <advance width="292.12"/>
  <unicode hex="0072"/>
  <anchor x="167.32000000000002" y="534.0" name="top"/>
  <anchor x="81.12" y="0.0" name="bottom"/>
  <outline>
    <contour>
      <point x="105.24" y="534.0" type="line"/>
      <point x="53.2" y="534.0" type="line"/>
      <point x="53.2" y="0.0" type="line"/>
      <point x="109.03999999999999" y="0.0" type="line"/>
      <point x="109.03999999999999" y="430.52000000000004" type="line"/>
      <point x="150.20000000000002" y="473.0"/>
      <point x="187.52" y="489.24"/>
      <point x="225.88" y="489.24" type="curve" smooth="yes"/>
      <point x="242.92" y="489.24"/>
      <point x="263.0" y="486.43999999999994"/>
      <point x="281.35999999999996" y="481.28" type="curve"/>
      <point x="291.76" y="534.68" type="line"/>
      <point x="273.32" y="540.9200000000001"/>
      <point x="252.24" y="544.0"/>
      <point x="231.48000000000002" y="544.0" type="curve" smooth="yes"/>
      <point x="185.28" y="544.0"/>
      <point x="144.96" y="524.12"/>
      <point x="105.24" y="482.76" type="curve"/>
    </contour>
  </outline>
</glyph>
<glyph name="s" format="2">
  <advance width="335.90000000000003"/>
  <unicode hex="0073"/>
  <anchor x="166.79999999999998" y="534.0" name="top"/>
  <anchor x="165.60000000000002" y="0.0" name="bottom"/>
  <outline>
    <contour>
      <point x="13.9" y="16.5" type="line"/>
      <point x="50.5" y="-1.0000000000000002"/>
      <point x="102.39999999999999" y="-10.0"/>
      <point x="153.1" y="-10.0" type="curve" smooth="yes"/>
      <point x="251.00000000000003" y="-10.0"/>
      <point x="316.7" y="36.800000000000004"/>
      <point x="316.7" y="130.6" type="curve" smooth="yes"/>
      <point x="316.7" y="222.6"/>
      <point x="261.90000000000003" y="260.2"/>
      <point x="188.1" y="295.59999999999997" type="curve" smooth="yes"/>
      <point x="130.2" y="324.4"/>
      <point x="83.0" y="352.4"/>
      <point x="83.0" y="411.7" type="curve" smooth="yes"/>
      <point x="83.0" y="462.3"/>
      <point x="119.10000000000001" y="494.2"/>
      <point x="184.0" y="494.2" type="curve" smooth="yes"/>
      <point x="221.2" y="494.2"/>
      <point x="254.9" y="486.5"/>
      <point x="282.8" y="476.8" type="curve"/>
      <point x="293.7" y="523.8" type="line"/>
      <point x="265.1" y="535.6999999999999"/>
      <point x="224.29999999999998" y="544.0"/>
      <point x="183.39999999999998" y="544.0" type="curve" smooth="yes"/>
      <point x="82.69999999999999" y="544.0"/>
      <point x="28.8" y="490.4"/>
      <point x="28.8" y="407.3" type="curve" smooth="yes"/>
      <point x="28.8" y="326.7"/>
      <point x="80.8" y="284.2"/>
      <point x="149.0" y="251.20000000000002" type="curve" smooth="yes"/>
      <point x="218.8" y="218.7"/>
      <point x="261.9" y="188.79999999999998"/>
      <point x="261.9" y="127.4" type="curve" smooth="yes"/>
      <point x="261.9" y="70.39999999999999"/>
      <point x="220.5" y="39.0"/>
      <point x="152.70000000000002" y="39.0" type="curve" smooth="yes"/>
      <point x="109.6" y="39.0"/>
      <point x="57.1" y="47.9"/>
      <point x="25.1" y="62.2" type="curve"/>
    </contour>
  </outline>
</glyph>
<glyph name="t" format="2">
  <advance width="295.12"/>
  <unicode hex="0074"/>
  <anchor x="146.56" y="275.0" name="center"/>
  <anchor x="113.48" y="663.24" name="top"/>
  <anchor x="239.84" y="754.8" name="topright"/>
  <anchor x="177.64" y="0.0" name="bottom"/>
  <outline>
    <contour>
      <point x="198.56" y="-10.0" type="curve" smooth="yes"/>
      <point x="225.16" y="-10.0"/>
      <point x="257.96" y="-5.64"/>
      <point x="292.92" y="6.32" type="curve"/>
      <point x="283.88" y="52.60000000000001" type="line"/>
      <point x="260.28000000000003" y="45.0"/>
      <point x="237.39999999999998" y="41.2"/>
      <point x="214.16" y="41.2" type="curve" smooth="yes"/>
      <point x="159.36" y="41.2"/>
      <point x="136.8" y="70.08"/>
      <point x="136.8" y="140.84" type="curve" smooth="yes"/>
      <point x="136.8" y="487.48" type="line"/>
      <point x="280.52000000000004" y="487.48" type="line"/>
      <point x="280.52000000000004" y="534.0" type="line"/>
      <point x="136.8" y="534.0" type="line"/>
      <point x="136.8" y="663.24" type="line"/>
      <point x="89.52" y="663.24" type="line"/>
      <point x="80.8" y="534.0" type="line"/>
      <point x="8.000000000000002" y="527.6" type="line"/>
      <point x="8.000000000000002" y="487.64" type="line"/>
      <point x="80.8" y="487.64" type="line"/>
      <point x="80.8" y="136.76" type="line" smooth="yes"/>
      <point x="80.8" y="44.64000000000001"/>
      <point x="111.6" y="-10.0"/>
    </contour>
  </outline>
</glyph>
<glyph name="u" format="2">
  <advance width="417.28"/>
  <unicode hex="0075"/>
  <anchor x="415.52" y="3.08" name="ogonek"/>
  <anchor x="202.68" y="534.0" name="top"/>
  <anchor x="352.08" y="534.0" name="topright"/>
  <anchor x="209.08" y="0.0" name="bottom"/>
  <outline>
    <contour>
      <point x="165.68" y="-10.0" type="curve" smooth="yes"/>
      <point x="216.04000000000002" y="-10.0"/>
      <point x="259.76" y="7.28"/>
      <point x="302.92" y="33.120000000000005" type="curve"/>
      <point x="311.0" y="5.16"/>
      <point x="334.20000000000005" y="-10.0"/>
      <point x="362.56" y="-10.0" type="curve" smooth="yes"/>
      <point x="381.32" y="-10.0"/>
      <point x="398.56" y="-5.4799999999999995"/>
      <point x="415.52" y="3.08" type="curve"/>
      <point x="407.36" y="48.68" type="line"/>
      <point x="398.36" y="44.36"/>
      <point x="389.28000000000003" y="42.4"/>
      <point x="380.59999999999997" y="42.4" type="curve" smooth="yes"/>
      <point x="363.47999999999996" y="42.4"/>
      <point x="352.08" y="53.2"/>
      <point x="352.08" y="84.76" type="curve" smooth="yes"/>
      <point x="352.08" y="534.0" type="line"/>
      <point x="296.08" y="534.0" type="line"/>
      <point x="296.08" y="76.52" type="line"/>
      <point x="261.44" y="55.400000000000006"/>
      <point x="223.83999999999997" y="40.68"/>
      <point x="186.72" y="40.68" type="curve" smooth="yes"/>
      <point x="135.28" y="40.68"/>
      <point x="109.03999999999999" y="70.36"/>
      <point x="109.03999999999999" y="122.39999999999999" type="curve" smooth="yes"/>
      <point x="109.03999999999999" y="534.0" type="line"/>
      <point x="52.88" y="534.0" type="line"/>
      <point x="52.88" y="113.83999999999999" type="line" smooth="yes"/>
      <point x="52.88" y="27.000000000000004"/>
      <point x="99.28" y="-10.0"/>
    </contour>
  </outline>
</glyph>
<glyph name="v" format="2">
  <advance width="379.62"/>
  <unicode hex="0076"/>
  <outline>
    <contour>
      <point x="158.32" y="0.0" type="line"/>
      <point x="220.74000000000004" y="0.0" type="line"/>
      <point x="368.08" y="531.76" type="line"/>
      <point x="309.92" y="536.24" type="line"/>
      <point x="190.54" y="67.96000000000001" type="line"/>
      <point x="70.0" y="536.24" type="line"/>
      <point x="11.440000000000001" y="531.76" type="line"/>
    </contour>
  </outline>
</glyph>
<glyph name="w" format="2">
  <advance width="557.98"/>
  <unicode hex="0077"/>
  <anchor x="278.76" y="534.0" name="top"/>
  <anchor x="278.76" y="0.0" name="bottom"/>
  <outline>
    <contour>
      <point x="122.56" y="0.0" type="line"/>
      <point x="185.62" y="0.0" type="line"/>
      <point x="278.64" y="453.44" type="line"/>
      <point x="372.62" y="0.0" type="line"/>
      <point x="434.88" y="0.0" type="line"/>
      <point x="547.52" y="531.1800000000001" type="line"/>
      <point x="492.06" y="535.64" type="line"/>
      <point x="402.38" y="70.39999999999999" type="line"/>
      <point x="308.24" y="534.0" type="line"/>
      <point x="249.24" y="534.0" type="line"/>
      <point x="156.7" y="70.02" type="line"/>
      <point x="66.48" y="535.64" type="line"/>
      <point x="9.96" y="531.1800000000001" type="line"/>
    </contour>
  </outline>
</glyph>
<glyph name="x" format="2">
  <advance width="396.7"/>
  <unicode hex="0078"/>
  <outline>
    <contour>
      <point x="8.7" y="-2.4" type="line"/>
      <point x="69.1" y="-7.5" type="line"/>
      <point x="197.9" y="233.3" type="line"/>
      <point x="328.30000000000007" y="-7.5" type="line"/>
      <point x="388.9" y="-2.4" type="line"/>
      <point x="234.7" y="272.7" type="line"/>
      <point x="377.29999999999995" y="531.6" type="line"/>
      <point x="318.99999999999994" y="536.9" type="line"/>
      <point x="200.20000000000002" y="311.7" type="line"/>
      <point x="80.80000000000001" y="537.3" type="line"/>
      <point x="20.599999999999998" y="530.9000000000001" type="line"/>
      <point x="162.79999999999998" y="273.9" type="line"/>
    </contour>
  </outline>
</glyph>
<glyph name="y" format="2">
  <advance width="380.62000000000006"/>
  <unicode hex="0079"/>
  <anchor x="187.74" y="534.0" name="top"/>
  <anchor x="309.7" y="0.0" name="bottom"/>
  <outline>
    <contour>
      <point x="126.28" y="-207.96" type="line"/>
      <point x="184.56" y="-212.92" type="line"/>
      <point x="368.06" y="532.6" type="line"/>
      <point x="309.62" y="536.76" type="line"/>
      <point x="200.92" y="61.839999999999996" type="line"/>
      <point x="71.92" y="536.88" type="line"/>
      <point x="12.079999999999998" y="532.4" type="line"/>
      <point x="167.66" y="0.0" type="line"/>
      <point x="177.48000000000002" y="0.0" type="line"/>
    </contour>
  </outline>
</glyph>
<glyph name="z" format="2">
  <advance width="363.62000000000006"/>
  <unicode hex="007A"/>
  <anchor x="184.24" y="534.0" name="top"/>
  <outline>
    <contour>
      <point x="22.580000000000002" y="0.0" type="line"/>
      <point x="346.64" y="0.0" type="line"/>
      <point x="346.64" y="49.120000000000005" type="line"/>
      <point x="88.32000000000001" y="49.120000000000005" type="line"/>
      <point x="329.68000000000006" y="489.9" type="line"/>
      <point x="329.68000000000006" y="534.0" type="line"/>
      <point x="34.66" y="534.0" type="line"/>
      <point x="34.66" y="485.28000000000003" type="line"/>
      <point x="265.32000000000005" y="485.28000000000003" type="line"/>
      <point x="22.580000000000002" y="44.599999999999994" type="line"/>
    </contour>
  </outline>
</glyph>
<glyph name="braceleft" format="2">
  <advance width="256.96"/>
  <unicode hex="007B"/>
  <outline>
    <contour>
      <point x="82.83999999999999" y="-64.52000000000001" type="curve" smooth="yes"/>
      <point x="82.83999999999999" y="-148.44"/>
      <point x="116.76" y="-210.16"/>
      <point x="188.79999999999998" y="-210.16" type="curve" smooth="yes"/>
      <point x="226.64" y="-210.16" type="line"/>
      <point x="226.64" y="-164.16" type="line"/>
      <point x="199.2" y="-164.16" type="line" smooth="yes"/>
      <point x="149.2" y="-164.16"/>
      <point x="132.12" y="-116.03999999999999"/>
      <point x="132.12" y="-59.52" type="curve" smooth="yes"/>
      <point x="132.12" y="16.12"/>
      <point x="163.76000000000002" y="77.56"/>
      <point x="163.76000000000002" y="158.04" type="curve" smooth="yes"/>
      <point x="163.76000000000002" y="195.48000000000002"/>
      <point x="153.28" y="245.48"/>
      <point x="117.48" y="265.0" type="curve"/>
      <point x="153.11999999999998" y="287.96000000000004"/>
      <point x="163.76000000000002" y="334.04"/>
      <point x="163.76000000000002" y="371.48" type="curve" smooth="yes"/>
      <point x="163.76000000000002" y="448.12"/>
      <point x="132.12" y="508.76"/>
      <point x="132.12" y="589.04" type="curve" smooth="yes"/>
      <point x="132.12" y="645.5600000000001"/>
      <point x="149.2" y="694.0"/>
      <point x="199.2" y="694.0" type="curve" smooth="yes"/>
      <point x="226.64" y="694.0" type="line"/>
      <point x="226.64" y="740.0" type="line"/>
      <point x="188.79999999999998" y="740.0" type="line" smooth="yes"/>
      <point x="116.76" y="740.0"/>
      <point x="82.83999999999999" y="677.96"/>
      <point x="82.83999999999999" y="594.04" type="curve" smooth="yes"/>
      <point x="82.83999999999999" y="500.8"/>
      <point x="116.08" y="443.36"/>
      <point x="116.08" y="369.68" type="curve" smooth="yes"/>
      <point x="116.08" y="332.4"/>
      <point x="106.16000000000001" y="288.6"/>
      <point x="78.24" y="288.6" type="curve" smooth="yes"/>
      <point x="58.16" y="288.6" type="line"/>
      <point x="58.16" y="241.23999999999998" type="line"/>
      <point x="78.24" y="241.23999999999998" type="line" smooth="yes"/>
      <point x="106.16000000000001" y="241.23999999999998"/>
      <point x="116.08" y="197.76"/>
      <point x="116.08" y="159.84" type="curve" smooth="yes"/>
      <point x="116.08" y="84.56"/>
      <point x="82.83999999999999" y="23.92"/>
    </contour>
  </outline>
</glyph>
<glyph name="bar" format="2">
  <advance width="159.36"/>
  <unicode hex="007C"/>
  <outline>
    <contour>
      <point x="104.28000000000002" y="790.1600000000001" type="line"/>
      <point x="55.080000000000005" y="790.1600000000001" type="line"/>
      <point x="55.080000000000005" y="-210.0" type="line"/>
      <point x="104.28000000000002" y="-210.0" type="line"/>
    </contour>
  </outline>
</glyph>
<glyph name="braceright" format="2">
  <advance width="256.96"/>
  <unicode hex="007D"/>
  <outline>
    <contour>
      <point x="30.320000000000004" y="-164.16" type="line"/>
      <point x="30.320000000000004" y="-210.16" type="line"/>
      <point x="68.8" y="-210.16" type="line" smooth="yes"/>
      <point x="140.84" y="-210.16"/>
      <point x="174.76000000000002" y="-148.44"/>
      <point x="174.76000000000002" y="-64.52000000000001" type="curve" smooth="yes"/>
      <point x="174.76000000000002" y="23.92"/>
      <point x="141.52" y="84.56"/>
      <point x="141.52" y="159.84" type="curve" smooth="yes"/>
      <point x="141.52" y="197.76"/>
      <point x="151.44" y="241.23999999999998"/>
      <point x="179.35999999999999" y="241.23999999999998" type="curve" smooth="yes"/>
      <point x="198.79999999999998" y="241.23999999999998" type="line"/>
      <point x="198.79999999999998" y="288.6" type="line"/>
      <point x="179.35999999999999" y="288.6" type="line" smooth="yes"/>
      <point x="150.8" y="288.6"/>
      <point x="141.52" y="332.4"/>
      <point x="141.52" y="369.68" type="curve" smooth="yes"/>
      <point x="141.52" y="443.36"/>
      <point x="174.76000000000002" y="500.8"/>
      <point x="174.76000000000002" y="594.04" type="curve" smooth="yes"/>
      <point x="174.76000000000002" y="677.96"/>
      <point x="140.84" y="740.0"/>
      <point x="68.8" y="740.0" type="curve" smooth="yes"/>
      <point x="30.320000000000004" y="740.0" type="line"/>
      <point x="30.320000000000004" y="694.0" type="line"/>
      <point x="55.68" y="694.0" type="line" smooth="yes"/>
      <point x="105.03999999999999" y="694.0"/>
      <point x="122.75999999999999" y="645.5600000000001"/>
      <point x="122.75999999999999" y="589.04" type="curve" smooth="yes"/>
      <point x="122.75999999999999" y="508.76"/>
      <point x="91.11999999999999" y="448.12"/>
      <point x="91.11999999999999" y="371.48" type="curve" smooth="yes"/>
      <point x="91.11999999999999" y="334.04"/>
      <point x="101.11999999999999" y="287.96000000000004"/>
      <point x="137.4" y="265.0" type="curve"/>
      <point x="100.96" y="245.48"/>
      <point x="91.11999999999999" y="195.48000000000002"/>
      <point x="91.11999999999999" y="158.04" type="curve" smooth="yes"/>
      <point x="91.11999999999999" y="77.56"/>
      <point x="122.75999999999999" y="16.12"/>
      <point x="122.75999999999999" y="-59.52" type="curve" smooth="yes"/>
      <point x="122.75999999999999" y="-116.03999999999999"/>
      <point x="105.03999999999999" y="-164.16"/>
      <point x="55.68" y="-164.16" type="curve" smooth="yes"/>
    </contour>
  </outline>
</glyph>
<glyph name="asciitilde" format="2">
  <advance width="424.88"/>
  <unicode hex="007E"/>
  <outline>
    <contour>
      <point x="367.59999999999997" y="250.56" type="curve"/>
      <point x="367.59999999999997" y="303.59999999999997" type="line"/>
      <point x="347.12" y="278.76"/>
      <point x="328.36" y="265.59999999999997"/>
      <point x="301.52000000000004" y="265.59999999999997" type="curve" smooth="yes"/>
      <point x="233.16" y="265.59999999999997"/>
      <point x="196.32000000000002" y="372.96"/>
      <point x="125.36" y="372.96" type="curve" smooth="yes"/>
      <point x="94.16" y="372.96"/>
      <point x="72.88000000000001" y="358.28"/>
      <point x="57.96" y="339.12" type="curve"/>
      <point x="57.96" y="285.92" type="line"/>
      <point x="74.76" y="307.48"/>
      <point x="95.16000000000001" y="323.6"/>
      <point x="124.6" y="323.6" type="curve" smooth="yes"/>
      <point x="187.67999999999998" y="323.6"/>
      <point x="225.64" y="216.2"/>
      <point x="301.23999999999995" y="216.2" type="curve" smooth="yes"/>
      <point x="330.0" y="216.2"/>
      <point x="348.92" y="227.96"/>
    </contour>
  </outline>
</glyph>
<glyph name="exclamdown" format="2">
  <advance width="174.32"/>
  <unicode hex="00A1"/>
  <outline>
    <contour>
      <point x="112.64" y="270.96" type="line"/>
      <point x="62.28000000000001" y="270.96" type="line"/>
      <point x="58.92" y="-206.04" type="line"/>
      <point x="115.52" y="-206.04" type="line"/>
    </contour>
    <contour>
      <point x="120.24000000000001" y="499.12" type="curve" smooth="yes"/>
      <point x="120.24000000000001" y="527.4"/>
      <point x="113.80000000000001" y="536.0"/>
      <point x="87.16" y="536.0" type="curve" smooth="yes"/>
      <point x="61.32" y="536.0"/>
      <point x="54.08" y="527.4"/>
      <point x="54.08" y="499.12" type="curve" smooth="yes"/>
      <point x="54.08" y="470.64"/>
      <point x="60.52" y="462.04"/>
      <point x="87.16" y="462.04" type="curve" smooth="yes"/>
      <point x="113.80000000000001" y="462.04"/>
      <point x="120.24000000000001" y="470.64"/>
    </contour>
  </outline>
</glyph>
<glyph name="cent" format="2">
  <advance width="434.64"/>
  <unicode hex="00A2"/>
  <outline>
    <contour>
      <point x="242.48000000000002" y="-10.16" type="curve" smooth="yes"/>
      <point x="280.28000000000003" y="-10.16"/>
      <point x="323.16" y="-4.3999999999999995"/>
      <point x="356.68000000000006" y="5.800000000000002" type="curve"/>
      <point x="346.40000000000003" y="55.2" type="line"/>
      <point x="316.2" y="47.68"/>
      <point x="282.68" y="43.760000000000005"/>
      <point x="253.24" y="43.760000000000005" type="curve" smooth="yes"/>
      <point x="175.32" y="43.760000000000005"/>
      <point x="136.92" y="111.8"/>
      <point x="136.92" y="257.12" type="curve" smooth="yes"/>
      <point x="136.92" y="416.56"/>
      <point x="179.92" y="489.88"/>
      <point x="258.40000000000003" y="489.88" type="curve" smooth="yes"/>
      <point x="288.03999999999996" y="489.88"/>
      <point x="311.0" y="486.2"/>
      <point x="339.59999999999997" y="478.64" type="curve"/>
      <point x="349.56000000000006" y="529.68" type="line"/>
      <point x="319.08000000000004" y="538.8400000000001"/>
      <point x="286.08000000000004" y="544.3199999999999"/>
      <point x="249.51999999999998" y="544.3199999999999" type="curve" smooth="yes"/>
      <point x="131.16000000000003" y="544.3199999999999"/>
      <point x="79.56" y="440.2"/>
      <point x="79.56" y="255.92" type="curve" smooth="yes"/>
      <point x="79.56" y="76.72"/>
      <point x="131.48" y="-10.16"/>
    </contour>
    <contour>
      <point x="208.88" y="-105.16" type="line"/>
      <point x="258.68000000000006" y="-105.16" type="line"/>
      <point x="258.68000000000006" y="-1.2799999999999998" type="line"/>
      <point x="208.88" y="2.1599999999999997" type="line"/>
    </contour>
    <contour>
      <point x="208.88" y="530.52" type="line"/>
      <point x="258.68000000000006" y="535.9599999999999" type="line"/>
      <point x="258.68000000000006" y="638.8399999999999" type="line"/>
      <point x="208.88" y="638.8399999999999" type="line"/>
    </contour>
  </outline>
</glyph>
<glyph name="sterling" format="2">
  <advance width="434.88"/>
  <unicode hex="00A3"/>
  <outline>
    <contour>
      <point x="63.160000000000004" y="0.0" type="line"/>
      <point x="392.12000000000006" y="0.0" type="line"/>
      <point x="392.12000000000006" y="49.8" type="line"/>
      <point x="125.8" y="49.8" type="line"/>
      <point x="176.08" y="119.0"/>
      <point x="205.67999999999998" y="167.04"/>
      <point x="205.67999999999998" y="246.92" type="curve" smooth="yes"/>
      <point x="205.67999999999998" y="344.56"/>
      <point x="143.84" y="405.0"/>
      <point x="143.84" y="508.52" type="curve" smooth="yes"/>
      <point x="143.84" y="614.8"/>
      <point x="197.16000000000003" y="656.5999999999999"/>
      <point x="268.88" y="656.5999999999999" type="curve" smooth="yes"/>
      <point x="299.76" y="656.5999999999999"/>
      <point x="338.40000000000003" y="650.68"/>
      <point x="367.64000000000004" y="642.12" type="curve"/>
      <point x="378.0" y="688.4" type="line"/>
      <point x="347.88000000000005" y="701.76"/>
      <point x="298.15999999999997" y="710.0"/>
      <point x="260.88000000000005" y="710.0" type="curve" smooth="yes"/>
      <point x="146.83999999999997" y="710.0"/>
      <point x="85.84" y="633.7600000000001"/>
      <point x="85.84" y="521.6" type="curve" smooth="yes"/>
      <point x="85.84" y="396.16"/>
      <point x="151.48000000000002" y="346.0"/>
      <point x="151.48000000000002" y="243.08" type="curve" smooth="yes"/>
      <point x="151.48000000000002" y="167.44"/>
      <point x="124.39999999999999" y="124.88"/>
      <point x="63.160000000000004" y="41.8" type="curve"/>
    </contour>
    <contour>
      <point x="48.400000000000006" y="346.8" type="line"/>
      <point x="333.2" y="346.8" type="line"/>
      <point x="333.2" y="389.4" type="line"/>
      <point x="48.400000000000006" y="389.4" type="line"/>
    </contour>
  </outline>
</glyph>
<glyph name="currency" format="2">
  <advance width="430.4"/>
  <unicode hex="00A4"/>
  <outline>
    <contour>
      <point x="34.32" y="437.88" type="line"/>
      <point x="102.88" y="368.32" type="line"/>
      <point x="87.08000000000001" y="347.35999999999996"/>
      <point x="77.16" y="320.76"/>
      <point x="77.16" y="290.88" type="curve" smooth="yes"/>
      <point x="77.16" y="260.8"/>
      <point x="87.08000000000001" y="233.84"/>
      <point x="103.88" y="212.72" type="curve"/>
      <point x="34.32" y="143.16000000000003" type="line"/>
      <point x="68.24" y="109.24" type="line"/>
      <point x="139.72" y="180.68" type="line"/>
      <point x="160.08" y="164.28"/>
      <point x="186.4" y="155.48"/>
      <point x="215.16" y="155.48" type="curve" smooth="yes"/>
      <point x="243.68" y="155.48"/>
      <point x="270.36" y="164.32"/>
      <point x="290.64" y="180.56" type="curve"/>
      <point x="362.15999999999997" y="109.24" type="line"/>
      <point x="396.08" y="143.16000000000003" type="line"/>
      <point x="326.96000000000004" y="212.12" type="line"/>
      <point x="343.84000000000003" y="233.52"/>
      <point x="353.92" y="260.56"/>
      <point x="353.92" y="290.88" type="curve" smooth="yes"/>
      <point x="353.92" y="320.84"/>
      <point x="343.88" y="347.68"/>
      <point x="327.12" y="368.92" type="curve"/>
      <point x="396.08" y="437.88" type="line"/>
      <point x="362.15999999999997" y="471.8" type="line"/>
      <point x="291.28000000000003" y="400.92" type="line"/>
      <point x="270.84" y="417.2"/>
      <point x="244.64000000000001" y="427.0"/>
      <point x="215.16" y="427.0" type="curve" smooth="yes"/>
      <point x="185.28" y="427.0"/>
      <point x="158.95999999999998" y="417.03999999999996"/>
      <point x="138.28" y="400.8" type="curve"/>
      <point x="68.24" y="471.8" type="line"/>
    </contour>
    <contour>
      <point x="215.11999999999998" y="195.07999999999998" type="curve" smooth="yes"/>
      <point x="161.68" y="195.07999999999998"/>
      <point x="119.48" y="237.23999999999998"/>
      <point x="119.48" y="290.72" type="curve" smooth="yes"/>
      <point x="119.48" y="344.56"/>
      <point x="161.64000000000001" y="387.24"/>
      <point x="215.11999999999998" y="387.24" type="curve" smooth="yes"/>
      <point x="269.4" y="387.24"/>
      <point x="311.59999999999997" y="344.56"/>
      <point x="311.59999999999997" y="290.72" type="curve" smooth="yes"/>
      <point x="311.59999999999997" y="237.23999999999998"/>
      <point x="269.35999999999996" y="195.07999999999998"/>
    </contour>
  </outline>
</glyph>
<glyph name="yen" format="2">
  <advance width="435.0"/>
  <unicode hex="00A5"/>
  <outline>
    <contour>
      <point x="65.0" y="346.4" type="line"/>
      <point x="192.10000000000002" y="346.4" type="line"/>
      <point x="192.10000000000002" y="236.1" type="line"/>
      <point x="65.0" y="236.1" type="line"/>
      <point x="65.0" y="196.9" type="line"/>
      <point x="192.10000000000002" y="196.9" type="line"/>
      <point x="192.10000000000002" y="0.0" type="line"/>
      <point x="249.5" y="0.0" type="line"/>
      <point x="249.5" y="196.9" type="line"/>
      <point x="377.0" y="196.9" type="line"/>
      <point x="377.0" y="236.1" type="line"/>
      <point x="249.5" y="236.1" type="line"/>
      <point x="249.5" y="346.4" type="line"/>
      <point x="377.0" y="346.4" type="line"/>
      <point x="377.0" y="385.4" type="line"/>
      <point x="249.5" y="385.4" type="line"/>
      <point x="393.1" y="696.8" type="line"/>
      <point x="333.5" y="703.4" type="line"/>
      <point x="220.70000000000002" y="431.40000000000003" type="line"/>
      <point x="101.69999999999999" y="703.4" type="line"/>
      <point x="42.1" y="696.8" type="line"/>
      <point x="192.10000000000002" y="385.4" type="line"/>
      <point x="65.0" y="385.4" type="line"/>
    </contour>
  </outline>
</glyph>
<glyph name="brokenbar" format="2">
  <advance width="159.20000000000002"/>
  <unicode hex="00A6"/>
  <outline>
    <contour>
      <point x="104.11999999999999" y="391.0" type="line"/>
      <point x="104.11999999999999" y="790.1600000000001" type="line"/>
      <point x="55.080000000000005" y="790.1600000000001" type="line"/>
      <point x="55.080000000000005" y="391.0" type="line"/>
    </contour>
    <contour>
      <point x="55.080000000000005" y="190.16" type="line"/>
      <point x="55.080000000000005" y="-210.0" type="line"/>
      <point x="104.11999999999999" y="-210.0" type="line"/>
      <point x="104.11999999999999" y="190.16" type="line"/>
    </contour>
  </outline>
</glyph>
<glyph name="section" format="2">
  <advance width="406.86"/>
  <unicode hex="00A7"/>
  <outline>
    <contour>
      <point x="167.0" y="-220.29999999999998" type="curve" smooth="yes"/>
      <point x="293.40000000000003" y="-220.29999999999998"/>
      <point x="378.8" y="-104.46"/>
      <point x="378.8" y="53.82000000000001" type="curve" smooth="yes"/>
      <point x="378.8" y="139.26"/>
      <point x="358.48" y="221.72"/>
      <point x="290.82000000000005" y="400.22" type="curve" smooth="yes"/>
      <point x="237.11999999999998" y="544.92"/>
      <point x="226.04000000000002" y="574.24"/>
      <point x="226.04000000000002" y="614.1200000000001" type="curve" smooth="yes"/>
      <point x="226.04000000000002" y="663.3399999999999"/>
      <point x="251.64" y="692.54"/>
      <point x="293.98" y="692.54" type="curve" smooth="yes"/>
      <point x="309.99999999999994" y="692.54"/>
      <point x="325.78" y="689.74"/>
      <point x="346.78000000000003" y="681.0200000000001" type="curve"/>
      <point x="360.03999999999996" y="730.68" type="line"/>
      <point x="330.21999999999997" y="743.5600000000001"/>
      <point x="296.86" y="749.4200000000001"/>
      <point x="263.16" y="749.4200000000001" type="curve" smooth="yes"/>
      <point x="125.42" y="749.4200000000001"/>
      <point x="40.60000000000001" y="648.4799999999999"/>
      <point x="41.0" y="481.66" type="curve" smooth="yes"/>
      <point x="41.49999999999999" y="391.29999999999995"/>
      <point x="60.99999999999999" y="305.86"/>
      <point x="127.75999999999999" y="138.9" type="curve" smooth="yes"/>
      <point x="175.9" y="9.660000000000002"/>
      <point x="194.70000000000002" y="-39.1"/>
      <point x="194.82000000000002" y="-85.12" type="curve" smooth="yes"/>
      <point x="194.94000000000003" y="-133.96"/>
      <point x="168.42" y="-162.14000000000001"/>
      <point x="126.52000000000001" y="-162.14000000000001" type="curve" smooth="yes"/>
      <point x="99.28" y="-162.14000000000001"/>
      <point x="75.78" y="-152.56"/>
      <point x="43.02" y="-125.67999999999999" type="curve"/>
      <point x="26.860000000000003" y="-173.92" type="line"/>
      <point x="71.94000000000001" y="-207.82"/>
      <point x="110.94" y="-220.29999999999998"/>
    </contour>
    <contour>
      <point x="166.35999999999999" y="-184.48000000000002" type="curve" smooth="yes"/>
      <point x="144.64000000000001" y="-184.48000000000002"/>
      <point x="129.14" y="-181.66"/>
      <point x="115.26" y="-176.06" type="curve"/>
      <point x="136.82" y="-191.48000000000002" type="line"/>
      <point x="197.28" y="-191.3"/>
      <point x="237.44000000000003" y="-147.5"/>
      <point x="237.44000000000003" y="-85.1" type="curve" smooth="yes"/>
      <point x="237.44000000000003" y="-36.81999999999999"/>
      <point x="222.85999999999999" y="17.520000000000007"/>
      <point x="169.0" y="157.4" type="curve" smooth="yes"/>
      <point x="103.64000000000001" y="329.38"/>
      <point x="85.02" y="397.47999999999996"/>
      <point x="85.02" y="487.26" type="curve" smooth="yes"/>
      <point x="85.02" y="620.3199999999999"/>
      <point x="148.06" y="705.5600000000001"/>
      <point x="238.78" y="705.5600000000001" type="curve" smooth="yes"/>
      <point x="248.84" y="705.5600000000001"/>
      <point x="256.24000000000007" y="704.54"/>
      <point x="267.21999999999997" y="701.32" type="curve"/>
      <point x="254.06000000000003" y="715.86" type="line"/>
      <point x="209.39999999999998" y="707.24"/>
      <point x="181.96" y="665.06"/>
      <point x="181.64000000000001" y="615.9799999999999" type="curve" smooth="yes"/>
      <point x="181.64000000000001" y="568.5600000000001"/>
      <point x="194.38" y="524.22"/>
      <point x="248.3" y="385.49999999999994" type="curve" smooth="yes"/>
      <point x="317.26" y="201.36"/>
      <point x="336.15999999999997" y="129.56"/>
      <point x="336.15999999999997" y="49.22" type="curve" smooth="yes"/>
      <point x="336.28000000000003" y="-84.38"/>
      <point x="273.08" y="-184.35999999999999"/>
    </contour>
  </outline>
</glyph>
<glyph name="copyright" format="2">
  <advance width="512.32"/>
  <unicode hex="00A9"/>
  <outline>
    <contour>
      <point x="256.20000000000005" y="17.360000000000003" type="curve" smooth="yes"/>
      <point x="139.51999999999998" y="17.360000000000003"/>
      <point x="68.2" y="105.08"/>
      <point x="68.2" y="350.08" type="curve" smooth="yes"/>
      <point x="68.2" y="595.8"/>
      <point x="139.6" y="682.6399999999999"/>
      <point x="256.20000000000005" y="682.6399999999999" type="curve" smooth="yes"/>
      <point x="373.2" y="682.6399999999999"/>
      <point x="443.96" y="595.8"/>
      <point x="443.96" y="350.08" type="curve" smooth="yes"/>
      <point x="443.96" y="105.08"/>
      <point x="373.28000000000003" y="17.360000000000003"/>
    </contour>
    <contour>
      <point x="256.20000000000005" y="710.0" type="curve" smooth="yes"/>
      <point x="120.96" y="710.0"/>
      <point x="39.800000000000004" y="614.36"/>
      <point x="39.800000000000004" y="350.08" type="curve" smooth="yes"/>
      <point x="39.800000000000004" y="86.6"/>
      <point x="120.88" y="-10.0"/>
      <point x="256.20000000000005" y="-10.0" type="curve" smooth="yes"/>
      <point x="391.44000000000005" y="-10.0"/>
      <point x="472.52000000000004" y="86.6"/>
      <point x="472.52000000000004" y="350.08" type="curve" smooth="yes"/>
      <point x="472.52000000000004" y="614.36"/>
      <point x="391.44000000000005" y="710.0"/>
    </contour>
    <contour>
      <point x="149.4" y="339.2" type="curve" smooth="yes"/>
      <point x="149.4" y="217.48"/>
      <point x="190.20000000000002" y="159.72"/>
      <point x="263.36" y="159.72" type="curve" smooth="yes"/>
      <point x="292.76" y="159.72"/>
      <point x="322.64000000000004" y="164.6"/>
      <point x="342.96" y="171.20000000000002" type="curve"/>
      <point x="335.36" y="209.68" type="line"/>
      <point x="318.91999999999996" y="205.04"/>
      <point x="292.40000000000003" y="201.00000000000003"/>
      <point x="267.76000000000005" y="201.00000000000003" type="curve" smooth="yes"/>
      <point x="215.52" y="201.00000000000003"/>
      <point x="194.68" y="250.19999999999996"/>
      <point x="194.68" y="338.40000000000003" type="curve" smooth="yes"/>
      <point x="194.68" y="450.04"/>
      <point x="222.44" y="489.24"/>
      <point x="274.72" y="489.24" type="curve" smooth="yes"/>
      <point x="293.32" y="489.24"/>
      <point x="311.96000000000004" y="486.88"/>
      <point x="329.8" y="481.68" type="curve"/>
      <point x="338.03999999999996" y="519.84" type="line"/>
      <point x="317.16" y="527.5999999999999"/>
      <point x="293.32" y="530.6"/>
      <point x="269.76" y="530.6" type="curve" smooth="yes"/>
      <point x="197.48" y="530.6"/>
      <point x="149.4" y="481.44"/>
    </contour>
  </outline>
</glyph>
<glyph name="ordfeminine" format="2">
  <advance width="277.36"/>
  <unicode hex="00AA"/>
  <outline>
    <contour>
      <point x="33.56" y="281.48" type="line"/>
      <point x="250.08" y="281.48" type="line"/>
      <point x="250.08" y="315.47999999999996" type="line"/>
      <point x="33.56" y="315.47999999999996" type="line"/>
    </contour>
    <component base="a.superior" xOffset="11.68"/>
  </outline>
</glyph>
<glyph name="logicalnot" format="2">
  <advance width="424.88"/>
  <unicode hex="00AC"/>
  <outline>
    <contour>
      <point x="46.72" y="364.36" type="line"/>
      <point x="329.0" y="364.36" type="line"/>
      <point x="329.0" y="176.32" type="line"/>
      <point x="378.8" y="176.32" type="line"/>
      <point x="378.8" y="414.16" type="line"/>
      <point x="46.72" y="414.16" type="line"/>
    </contour>
  </outline>
</glyph>
<glyph name="registered" format="2">
  <advance width="490.94"/>
  <unicode hex="00AE"/>
  <outline>
    <contour>
      <point x="245.12" y="208.01999999999998" type="curve" smooth="yes"/>
      <point x="374.28000000000003" y="208.01999999999998"/>
      <point x="451.14000000000004" y="299.56000000000006"/>
      <point x="451.14000000000004" y="550.2600000000001" type="curve" smooth="yes"/>
      <point x="451.14000000000004" y="801.42"/>
      <point x="374.32" y="892.3"/>
      <point x="245.12" y="892.3" type="curve" smooth="yes"/>
      <point x="116.82" y="892.3"/>
      <point x="39.800000000000004" y="801.42"/>
      <point x="39.800000000000004" y="550.2600000000001" type="curve" smooth="yes"/>
      <point x="39.800000000000004" y="299.98"/>
      <point x="116.68" y="208.01999999999998"/>
    </contour>
    <contour>
      <point x="245.12" y="233.88000000000002" type="curve" smooth="yes"/>
      <point x="134.2" y="233.88000000000002"/>
      <point x="67.26000000000002" y="317.41999999999996"/>
      <point x="67.26000000000002" y="550.2600000000001" type="curve" smooth="yes"/>
      <point x="67.26000000000002" y="783.84"/>
      <point x="134.16" y="866.3600000000001"/>
      <point x="245.12" y="866.3600000000001" type="curve" smooth="yes"/>
      <point x="357.36" y="866.3600000000001"/>
      <point x="424.12" y="783.88"/>
      <point x="424.12" y="550.2600000000001" type="curve" smooth="yes"/>
      <point x="424.12" y="317.2799999999999"/>
      <point x="357.26000000000005" y="233.88000000000002"/>
    </contour>
    <contour>
      <point x="350.22" y="388.81999999999994" type="curve" smooth="yes"/>
      <point x="353.68" y="388.81999999999994"/>
      <point x="356.32" y="388.81999999999994"/>
      <point x="360.96" y="389.55999999999995" type="curve"/>
      <point x="359.03999999999996" y="430.0" type="line"/>
      <point x="357.18" y="429.35999999999996"/>
      <point x="355.68000000000006" y="429.35999999999996"/>
      <point x="353.68" y="429.35999999999996" type="curve" smooth="yes"/>
      <point x="333.21999999999997" y="429.41999999999996"/>
      <point x="314.82000000000005" y="460.5"/>
      <point x="287.82" y="533.1000000000001" type="curve"/>
      <point x="325.6000000000001" y="547.24"/>
      <point x="338.97999999999996" y="582.6400000000001"/>
      <point x="338.97999999999996" y="631.36" type="curve" smooth="yes"/>
      <point x="338.97999999999996" y="699.0400000000001"/>
      <point x="309.18" y="725.9"/>
      <point x="239.06" y="725.9" type="curve" smooth="yes"/>
      <point x="214.02000000000004" y="725.9"/>
      <point x="190.12" y="724.0799999999999"/>
      <point x="159.12" y="720.38" type="curve"/>
      <point x="159.12" y="391.35999999999996" type="line"/>
      <point x="199.26000000000002" y="391.35999999999996" type="line"/>
      <point x="199.26000000000002" y="522.44" type="line"/>
      <point x="212.74" y="521.6800000000002"/>
      <point x="223.83999999999997" y="520.84"/>
      <point x="235.52" y="520.84" type="curve" smooth="yes"/>
      <point x="240.08000000000004" y="520.84"/>
      <point x="244.38000000000002" y="520.84"/>
      <point x="248.84" y="521.48" type="curve"/>
      <point x="287.58" y="410.58"/>
      <point x="316.0" y="388.91999999999996"/>
    </contour>
    <contour>
      <point x="236.12" y="551.8" type="curve" smooth="yes"/>
      <point x="224.26000000000002" y="551.8"/>
      <point x="213.32" y="551.96"/>
      <point x="199.26000000000002" y="552.9200000000001" type="curve"/>
      <point x="199.26000000000002" y="686.9200000000001" type="line"/>
      <point x="216.79999999999998" y="689.08"/>
      <point x="224.99999999999997" y="689.8399999999999"/>
      <point x="239.6" y="689.8399999999999" type="curve" smooth="yes"/>
      <point x="290.64000000000004" y="689.8399999999999"/>
      <point x="298.0" y="665.14"/>
      <point x="298.0" y="626.0000000000001" type="curve" smooth="yes"/>
      <point x="298.0" y="578.9999999999999"/>
      <point x="285.28" y="551.8"/>
    </contour>
  </outline>
</glyph>
<glyph name="degree" format="2">
  <advance width="253.6"/>
  <unicode hex="00B0"/>
  <outline>
    <contour>
      <point x="126.04" y="488.0" type="curve" smooth="yes"/>
      <point x="189.84" y="488.0"/>
      <point x="224.88" y="540.6399999999999"/>
      <point x="224.88" y="605.4" type="curve" smooth="yes"/>
      <point x="224.88" y="668.8"/>
      <point x="191.12" y="724.4"/>
      <point x="126.04" y="724.4" type="curve" smooth="yes"/>
      <point x="60.88" y="724.4"/>
      <point x="28.72" y="668.8"/>
      <point x="28.72" y="605.4" type="curve" smooth="yes"/>
      <point x="28.72" y="540.6399999999999"/>
      <point x="62.239999999999995" y="488.0"/>
    </contour>
    <contour>
      <point x="126.04" y="530.5600000000001" type="curve" smooth="yes"/>
      <point x="89.0" y="530.5600000000001"/>
      <point x="70.08" y="563.32"/>
      <point x="70.08" y="605.2399999999999" type="curve" smooth="yes"/>
      <point x="70.08" y="646.68"/>
      <point x="88.75999999999999" y="681.1199999999999"/>
      <point x="126.04" y="681.1199999999999" type="curve" smooth="yes"/>
      <point x="163.24" y="681.1199999999999"/>
      <point x="183.6" y="646.68"/>
      <point x="183.6" y="605.2399999999999" type="curve" smooth="yes"/>
      <point x="183.6" y="563.32"/>
      <point x="163.07999999999998" y="530.5600000000001"/>
    </contour>
  </outline>
</glyph>
<glyph name="plusminus" format="2">
  <advance width="445.36000000000007"/>
  <unicode hex="00B1"/>
  <outline>
    <contour>
      <point x="44.160000000000004" y="57.56" type="line"/>
      <point x="401.2" y="57.56" type="line"/>
      <point x="401.2" y="107.36" type="line"/>
      <point x="248.36" y="107.36" type="line"/>
      <point x="248.36" y="289.32000000000005" type="line"/>
      <point x="401.2" y="289.32000000000005" type="line"/>
      <point x="401.2" y="339.12" type="line"/>
      <point x="248.36" y="339.12" type="line"/>
      <point x="248.36" y="509.2" type="line"/>
      <point x="196.96000000000004" y="509.2" type="line"/>
      <point x="196.96000000000004" y="339.12" type="line"/>
      <point x="44.160000000000004" y="339.12" type="line"/>
      <point x="44.160000000000004" y="289.32000000000005" type="line"/>
      <point x="196.96000000000004" y="289.32000000000005" type="line"/>
      <point x="196.96000000000004" y="107.36" type="line"/>
      <point x="44.160000000000004" y="107.36" type="line"/>
    </contour>
  </outline>
</glyph>
<glyph name="uni00B2" format="2">
  <advance width="312.76"/>
  <unicode hex="00B2"/>
  <outline>
    <contour>
      <point x="54.440000000000005" y="370.0" type="line"/>
      <point x="265.08" y="370.0" type="line"/>
      <point x="265.08" y="402.36" type="line"/>
      <point x="105.32000000000001" y="402.36" type="line"/>
      <point x="206.44000000000003" y="535.16"/>
      <point x="235.07999999999998" y="601.56"/>
      <point x="235.07999999999998" y="664.32" type="curve" smooth="yes"/>
      <point x="235.07999999999998" y="734.48"/>
      <point x="201.4" y="774.7599999999999"/>
      <point x="142.2" y="774.7599999999999" type="curve" smooth="yes"/>
      <point x="110.0" y="774.7599999999999"/>
      <point x="77.64" y="765.6800000000001"/>
      <point x="51.03999999999999" y="741.8" type="curve"/>
      <point x="65.48" y="709.96" type="line"/>
      <point x="88.36" y="730.6"/>
      <point x="110.56000000000002" y="735.6"/>
      <point x="134.88000000000002" y="735.6" type="curve" smooth="yes"/>
      <point x="171.52" y="735.6"/>
      <point x="193.08" y="704.4"/>
      <point x="193.08" y="655.84" type="curve" smooth="yes"/>
      <point x="193.08" y="600.92"/>
      <point x="154.72" y="523.52"/>
      <point x="52.040000000000006" y="398.88" type="curve"/>
    </contour>
  </outline>
</glyph>
<glyph name="uni00B3" format="2">
  <advance width="307.08000000000004"/>
  <unicode hex="00B3"/>
  <outline>
    <contour>
      <point x="37.4" y="390.52000000000004" type="line"/>
      <point x="67.75999999999999" y="370.04"/>
      <point x="99.48000000000002" y="361.08"/>
      <point x="141.8" y="361.08" type="curve" smooth="yes"/>
      <point x="218.04" y="361.08"/>
      <point x="264.48" y="406.03999999999996"/>
      <point x="264.48" y="482.6" type="curve" smooth="yes"/>
      <point x="264.48" y="533.3999999999999"/>
      <point x="242.36" y="568.52"/>
      <point x="198.56000000000003" y="579.24" type="curve"/>
      <point x="231.8" y="591.88"/>
      <point x="250.36" y="626.4799999999999"/>
      <point x="250.36" y="670.1599999999999" type="curve" smooth="yes"/>
      <point x="250.36" y="733.88"/>
      <point x="210.07999999999998" y="774.12"/>
      <point x="141.72" y="774.12" type="curve" smooth="yes"/>
      <point x="101.96000000000001" y="774.12"/>
      <point x="69.64" y="764.92"/>
      <point x="49.24" y="751.1199999999999" type="curve"/>
      <point x="61.760000000000005" y="722.16" type="line"/>
      <point x="77.44000000000001" y="730.96"/>
      <point x="98.16" y="737.36"/>
      <point x="133.36" y="737.36" type="curve" smooth="yes"/>
      <point x="181.35999999999999" y="737.36"/>
      <point x="210.4" y="709.1999999999999"/>
      <point x="210.4" y="662.0" type="curve" smooth="yes"/>
      <point x="210.4" y="621.4799999999999"/>
      <point x="191.4" y="590.88"/>
      <point x="147.72" y="590.88" type="curve" smooth="yes"/>
      <point x="97.52" y="590.88" type="line"/>
      <point x="97.52" y="560.12" type="line"/>
      <point x="146.72" y="560.12" type="line" smooth="yes"/>
      <point x="202.64" y="560.12"/>
      <point x="222.64" y="532.12"/>
      <point x="222.64" y="485.0" type="curve" smooth="yes"/>
      <point x="222.64" y="429.03999999999996"/>
      <point x="191.28000000000003" y="396.08000000000004"/>
      <point x="137.44" y="396.08000000000004" type="curve" smooth="yes"/>
      <point x="99.52000000000001" y="396.08000000000004"/>
      <point x="75.72" y="403.28"/>
      <point x="52.36" y="419.6" type="curve"/>
    </contour>
  </outline>
</glyph>
<glyph name="uni00B5" format="2">
  <advance width="417.59999999999997"/>
  <unicode hex="00B5"/>
  <outline>
    <contour>
      <point x="53.2" y="-210.0" type="line"/>
      <point x="107.76" y="-210.0" type="line"/>
      <point x="107.76" y="24.56" type="line"/>
      <point x="122.96000000000001" y="0.4399999999999995"/>
      <point x="148.24" y="-9.68"/>
      <point x="180.76" y="-9.68" type="curve" smooth="yes"/>
      <point x="226.12" y="-9.68"/>
      <point x="266.44" y="7.28"/>
      <point x="305.00000000000006" y="31.2" type="curve"/>
      <point x="312.92" y="4.359999999999999"/>
      <point x="333.23999999999995" y="-10.0"/>
      <point x="362.88" y="-10.0" type="curve" smooth="yes"/>
      <point x="381.64" y="-10.0"/>
      <point x="398.88" y="-5.4799999999999995"/>
      <point x="415.84" y="3.08" type="curve"/>
      <point x="407.68000000000006" y="46.919999999999995" type="line"/>
      <point x="398.67999999999995" y="42.6"/>
      <point x="389.6" y="40.64"/>
      <point x="380.92" y="40.64" type="curve" smooth="yes"/>
      <point x="363.8" y="40.64"/>
      <point x="352.40000000000003" y="51.44"/>
      <point x="352.40000000000003" y="83.0" type="curve" smooth="yes"/>
      <point x="352.40000000000003" y="534.0" type="line"/>
      <point x="296.40000000000003" y="534.0" type="line"/>
      <point x="296.40000000000003" y="75.72" type="line"/>
      <point x="261.76" y="54.60000000000001"/>
      <point x="224.16000000000003" y="39.879999999999995"/>
      <point x="187.04" y="39.879999999999995" type="curve" smooth="yes"/>
      <point x="135.6" y="39.879999999999995"/>
      <point x="109.36" y="69.56"/>
      <point x="109.36" y="121.6" type="curve" smooth="yes"/>
      <point x="109.36" y="534.0" type="line"/>
      <point x="53.2" y="534.0" type="line"/>
    </contour>
  </outline>
</glyph>
<glyph name="paragraph" format="2">
  <advance width="496.24"/>
  <unicode hex="00B6"/>
  <outline>
    <contour>
      <point x="392.88000000000005" y="-210.0" type="line"/>
      <point x="439.84000000000003" y="-210.0" type="line"/>
      <point x="439.84000000000003" y="740.0" type="line"/>
      <point x="392.88000000000005" y="740.0" type="line"/>
    </contour>
    <contour>
      <point x="205.48" y="231.56" type="line"/>
      <point x="119.72" y="247.48"/>
      <point x="78.88000000000001" y="333.08"/>
      <point x="78.88000000000001" y="462.2" type="curve" smooth="yes"/>
      <point x="78.88000000000001" y="594.28"/>
      <point x="131.20000000000002" y="687.48"/>
      <point x="250.76" y="691.1600000000001" type="curve"/>
      <point x="250.76" y="-210.0" type="line"/>
      <point x="297.72" y="-210.0" type="line"/>
      <point x="297.72" y="740.0" type="line"/>
      <point x="265.8" y="740.0" type="line" smooth="yes"/>
      <point x="95.11999999999999" y="740.0"/>
      <point x="27.96" y="620.4799999999999"/>
      <point x="27.96" y="464.36" type="curve" smooth="yes"/>
      <point x="27.96" y="315.68"/>
      <point x="80.75999999999999" y="213.00000000000003"/>
      <point x="200.2" y="190.88" type="curve"/>
    </contour>
  </outline>
</glyph>
<glyph name="periodcentered" format="2">
  <advance width="140.72"/>
  <unicode hex="00B7"/>
  <outline>
    <contour>
      <point x="37.16" y="294.79999999999995" type="curve" smooth="yes"/>
      <point x="37.16" y="266.40000000000003"/>
      <point x="44.67999999999999" y="257.8"/>
      <point x="70.52000000000001" y="257.8" type="curve" smooth="yes"/>
      <point x="97.16000000000001" y="257.8"/>
      <point x="103.67999999999999" y="266.40000000000003"/>
      <point x="103.67999999999999" y="294.79999999999995" type="curve" smooth="yes"/>
      <point x="103.67999999999999" y="323.40000000000003"/>
      <point x="97.16000000000001" y="332.0"/>
      <point x="70.52000000000001" y="332.0" type="curve" smooth="yes"/>
      <point x="43.68" y="332.0"/>
      <point x="37.16" y="323.40000000000003"/>
    </contour>
  </outline>
</glyph>
<glyph name="uni00B9" format="2">
  <advance width="286.92"/>
  <unicode hex="00B9"/>
  <outline>
    <contour>
      <point x="30.8" y="370.0" type="line"/>
      <point x="261.08" y="370.0" type="line"/>
      <point x="261.08" y="403.20000000000005" type="line"/>
      <point x="173.76000000000002" y="403.20000000000005" type="line"/>
      <point x="173.76000000000002" y="769.28" type="line"/>
      <point x="152.07999999999998" y="769.28" type="line"/>
      <point x="26.48" y="698.04" type="line"/>
      <point x="37.6" y="663.4399999999999" type="line"/>
      <point x="131.35999999999999" y="719.76" type="line"/>
      <point x="131.35999999999999" y="403.20000000000005" type="line"/>
      <point x="30.8" y="403.20000000000005" type="line"/>
    </contour>
  </outline>
</glyph>
<glyph name="ordmasculine" format="2">
  <advance width="296.48"/>
  <unicode hex="00BA"/>
  <outline>
    <contour>
      <point x="41.52" y="281.64000000000004" type="line"/>
      <point x="259.32" y="281.64000000000004" type="line"/>
      <point x="259.32" y="315.63999999999993" type="line"/>
      <point x="41.52" y="315.63999999999993" type="line"/>
    </contour>
    <component base="o.superior" xOffset="15.680000000000001"/>
  </outline>
</glyph>
<glyph name="questiondown" format="2">
  <advance width="347.24"/>
  <unicode hex="00BF"/>
  <outline>
    <contour>
      <point x="226.40000000000003" y="269.68" type="line"/>
      <point x="175.88" y="269.68" type="line"/>
      <point x="175.8" y="195.76000000000002" type="line"/>
      <point x="79.48" y="129.44000000000003"/>
      <point x="33.24" y="76.19999999999999"/>
      <point x="33.24" y="-33.4" type="curve" smooth="yes"/>
      <point x="33.24" y="-162.0"/>
      <point x="109.88" y="-217.64"/>
      <point x="196.32" y="-217.64" type="curve" smooth="yes"/>
      <point x="251.00000000000003" y="-217.64"/>
      <point x="307.52" y="-195.68"/>
      <point x="348.64" y="-159.64" type="curve"/>
      <point x="326.6" y="-114.08" type="line"/>
      <point x="285.44" y="-148.56000000000003"/>
      <point x="242.32" y="-162.52"/>
      <point x="202.99999999999997" y="-162.52" type="curve" smooth="yes"/>
      <point x="143.2" y="-162.52"/>
      <point x="91.48" y="-114.88"/>
      <point x="91.48" y="-28.08" type="curve" smooth="yes"/>
      <point x="91.48" y="50.71999999999999"/>
      <point x="122.19999999999999" y="104.51999999999998"/>
      <point x="227.31999999999996" y="169.68" type="curve"/>
    </contour>
    <contour>
      <point x="233.72" y="497.36" type="curve" smooth="yes"/>
      <point x="233.72" y="525.6400000000001"/>
      <point x="225.36" y="534.24"/>
      <point x="200.0" y="534.24" type="curve" smooth="yes"/>
      <point x="174.16" y="534.24"/>
      <point x="166.92" y="525.6400000000001"/>
      <point x="166.92" y="497.36" type="curve" smooth="yes"/>
      <point x="166.92" y="468.88"/>
      <point x="174.16" y="460.28000000000003"/>
      <point x="200.0" y="460.28000000000003" type="curve" smooth="yes"/>
      <point x="226.8" y="460.28000000000003"/>
      <point x="233.72" y="468.88"/>
    </contour>
  </outline>
</glyph>
<glyph name="AE" format="2">
  <advance width="696.3199999999999"/>
  <unicode hex="00C6"/>
  <anchor x="375.61999999999995" y="700.0" name="top"/>
  <outline>
    <contour>
      <point x="13.119999999999997" y="0.0" type="line"/>
      <point x="76.58" y="-0.7800000000000001" type="line"/>
      <point x="198.45999999999998" y="281.05999999999995" type="line"/>
      <point x="349.4" y="281.05999999999995" type="line"/>
      <point x="349.4" y="0.0" type="line"/>
      <point x="677.1800000000001" y="0.0" type="line"/>
      <point x="677.1800000000001" y="54.199999999999996" type="line"/>
      <point x="405.90000000000003" y="54.199999999999996" type="line"/>
      <point x="405.90000000000003" y="310.18" type="line"/>
      <point x="643.76" y="310.18" type="line"/>
      <point x="643.76" y="363.18" type="line"/>
      <point x="405.90000000000003" y="363.18" type="line"/>
      <point x="405.90000000000003" y="645.3" type="line"/>
      <point x="663.4" y="645.3" type="line"/>
      <point x="663.4" y="700.0" type="line"/>
      <point x="315.0" y="700.0" type="line"/>
    </contour>
    <contour>
      <point x="216.78" y="332.78" type="line"/>
      <point x="349.0" y="654.7399999999999" type="line"/>
      <point x="349.0" y="332.78" type="line"/>
    </contour>
  </outline>
</glyph>
<glyph name="multiply" format="2">
  <advance width="408.08"/>
  <unicode hex="00D7"/>
  <outline>
    <contour>
      <point x="89.76" y="89.2" type="line"/>
      <point x="203.56" y="258.64" type="line"/>
      <point x="318.16" y="90.32" type="line"/>
      <point x="355.16" y="122.80000000000001" type="line"/>
      <point x="238.08" y="297.68" type="line"/>
      <point x="354.84000000000003" y="474.2" type="line"/>
      <point x="317.84000000000003" y="506.68" type="line"/>
      <point x="203.56" y="337.36" type="line"/>
      <point x="89.6" y="507.0" type="line"/>
      <point x="52.599999999999994" y="474.52" type="line"/>
      <point x="169.64000000000001" y="297.68" type="line"/>
      <point x="52.76" y="121.67999999999999" type="line"/>
    </contour>
  </outline>
</glyph>
<glyph name="Oslash" format="2">
  <advance width="506.19999999999993"/>
  <unicode hex="00D8"/>
  <anchor x="251.70000000000002" y="700.0" name="top"/>
  <outline>
    <contour>
      <point x="82.4" y="-10.4" type="line"/>
      <point x="124.2" y="64.7" type="line"/>
      <point x="128.5" y="67.5" type="line"/>
      <point x="405.8" y="599.1" type="line"/>
      <point x="409.9" y="602.0" type="line"/>
      <point x="468.8" y="712.0" type="line"/>
      <point x="422.1" y="712.0" type="line"/>
      <point x="379.9" y="634.3" type="line"/>
      <point x="375.29999999999995" y="631.1999999999999" type="line"/>
      <point x="100.9" y="105.4" type="line"/>
      <point x="97.3" y="103.7" type="line"/>
      <point x="36.199999999999996" y="-10.4" type="line"/>
    </contour>
    <contour>
      <point x="251.70000000000002" y="38.300000000000004" type="curve" smooth="yes"/>
      <point x="159.7" y="38.300000000000004"/>
      <point x="91.60000000000001" y="100.0"/>
      <point x="91.60000000000001" y="349.2" type="curve" smooth="yes"/>
      <point x="91.60000000000001" y="601.9000000000001"/>
      <point x="159.7" y="661.7"/>
      <point x="251.70000000000002" y="661.7" type="curve" smooth="yes"/>
      <point x="344.5" y="661.7"/>
      <point x="413.09999999999997" y="602.4"/>
      <point x="413.09999999999997" y="349.4" type="curve" smooth="yes"/>
      <point x="413.09999999999997" y="98.0"/>
      <point x="344.5" y="38.300000000000004"/>
    </contour>
    <contour>
      <point x="251.70000000000002" y="-10.0" type="curve" smooth="yes"/>
      <point x="383.5" y="-10.0"/>
      <point x="469.8" y="63.7"/>
      <point x="469.8" y="350.6" type="curve" smooth="yes"/>
      <point x="469.8" y="636.3000000000001"/>
      <point x="382.6" y="710.0"/>
      <point x="251.70000000000002" y="710.0" type="curve" smooth="yes"/>
      <point x="120.8" y="710.0"/>
      <point x="35.199999999999996" y="635.5999999999999"/>
      <point x="35.199999999999996" y="349.2" type="curve" smooth="yes"/>
      <point x="35.199999999999996" y="66.2"/>
      <point x="121.6" y="-10.0"/>
    </contour>
  </outline>
</glyph>
<glyph name="Thorn" format="2">
  <advance width="442.16"/>
  <unicode hex="00DE"/>
  <outline>
    <contour>
      <point x="56.75999999999999" y="0.0" type="line"/>
      <point x="113.72" y="0.0" type="line"/>
      <point x="113.72" y="165.92000000000002" type="line"/>
      <point x="156.96" y="163.84"/>
      <point x="178.16000000000003" y="163.67999999999998"/>
      <point x="218.8" y="163.67999999999998" type="curve" smooth="yes"/>
      <point x="356.68" y="163.67999999999998"/>
      <point x="416.16" y="229.76000000000002"/>
      <point x="416.16" y="397.88000000000005" type="curve" smooth="yes"/>
      <point x="416.16" y="557.4"/>
      <point x="370.92" y="615.3199999999999"/>
      <point x="206.76000000000002" y="615.3199999999999" type="curve" smooth="yes"/>
      <point x="185.84" y="615.3199999999999"/>
      <point x="160.16" y="614.32"/>
      <point x="113.88" y="611.72" type="curve"/>
      <point x="113.88" y="700.0" type="line"/>
      <point x="56.75999999999999" y="700.0" type="line"/>
    </contour>
    <contour>
      <point x="208.52" y="215.99999999999997" type="curve" smooth="yes"/>
      <point x="172.56" y="215.99999999999997"/>
      <point x="150.88000000000002" y="216.51999999999998"/>
      <point x="113.88" y="218.12" type="curve"/>
      <point x="113.88" y="560.72" type="line"/>
      <point x="163.32" y="564.56"/>
      <point x="187.16" y="565.52"/>
      <point x="210.4" y="565.52" type="curve" smooth="yes"/>
      <point x="330.44" y="565.52"/>
      <point x="358.91999999999996" y="517.8399999999999"/>
      <point x="358.91999999999996" y="397.84000000000003" type="curve" smooth="yes"/>
      <point x="358.91999999999996" y="269.76"/>
      <point x="320.32" y="215.99999999999997"/>
    </contour>
  </outline>
</glyph>
<glyph name="germandbls" format="2">
  <advance width="487.62"/>
  <unicode hex="00DF"/>
  <outline>
    <contour>
      <point x="87.02" y="0.0" type="line"/>
      <point x="142.86" y="0.0" type="line"/>
      <point x="142.86" y="529.26" type="line" smooth="yes"/>
      <point x="142.86" y="644.36"/>
      <point x="186.20000000000002" y="700.52"/>
      <point x="277.6" y="700.52" type="curve" smooth="yes"/>
      <point x="346.06" y="700.52"/>
      <point x="377.70000000000005" y="675.64"/>
      <point x="377.70000000000005" y="625.6800000000001" type="curve" smooth="yes"/>
      <point x="377.70000000000005" y="583.68"/>
      <point x="359.74" y="563.22"/>
      <point x="303.06" y="529.24" type="curve" smooth="yes"/>
      <point x="246.66" y="496.54"/>
      <point x="217.72" y="457.12"/>
      <point x="217.72" y="402.34" type="curve" smooth="yes"/>
      <point x="217.72" y="333.08000000000004"/>
      <point x="244.04" y="299.06"/>
      <point x="332.59999999999997" y="250.20000000000002" type="curve" smooth="yes"/>
      <point x="407.46" y="205.6"/>
      <point x="430.04" y="179.58"/>
      <point x="430.04" y="129.8" type="curve" smooth="yes"/>
      <point x="430.04" y="72.52000000000001"/>
      <point x="384.88" y="38.56"/>
      <point x="319.82" y="38.56" type="curve" smooth="yes"/>
      <point x="275.94" y="38.56"/>
      <point x="235.01999999999998" y="48.04"/>
      <point x="198.46" y="61.559999999999995" type="curve"/>
      <point x="186.01999999999998" y="16.14" type="line"/>
      <point x="224.88" y="-0.7400000000000002"/>
      <point x="273.7" y="-10.0"/>
      <point x="321.98" y="-10.0" type="curve" smooth="yes"/>
      <point x="414.52" y="-10.0"/>
      <point x="482.76" y="40.0"/>
      <point x="482.76" y="132.68" type="curve" smooth="yes"/>
      <point x="482.76" y="204.22"/>
      <point x="450.0" y="245.84"/>
      <point x="360.78" y="294.14000000000004" type="curve" smooth="yes"/>
      <point x="288.86" y="336.26"/>
      <point x="270.6" y="360.96"/>
      <point x="270.6" y="405.3" type="curve" smooth="yes"/>
      <point x="270.6" y="444.82000000000005"/>
      <point x="292.88" y="469.79999999999995"/>
      <point x="337.78000000000003" y="496.94" type="curve" smooth="yes"/>
      <point x="404.28000000000003" y="535.74"/>
      <point x="433.78" y="568.22"/>
      <point x="433.78" y="626.4" type="curve" smooth="yes"/>
      <point x="433.78" y="707.3000000000001"/>
      <point x="378.4" y="750.0"/>
      <point x="276.34" y="750.0" type="curve" smooth="yes"/>
      <point x="150.82" y="750.0"/>
      <point x="87.28" y="678.16"/>
      <point x="87.02" y="542.12" type="curve" smooth="yes"/>
      <point x="87.02" y="491.54" type="line"/>
      <point x="15.84" y="484.65999999999997" type="line"/>
      <point x="15.84" y="444.42" type="line"/>
      <point x="87.02" y="444.42" type="line"/>
    </contour>
  </outline>
</glyph>
<glyph name="ae" format="2">
  <advance width="623.0"/>
  <unicode hex="00E6"/>
  <anchor x="315.90000000000003" y="534.0" name="top"/>
  <outline>
    <contour>
      <point x="134.10000000000002" y="-10.0" type="curve" smooth="yes"/>
      <point x="199.4" y="-10.0"/>
      <point x="253.4" y="24.7"/>
      <point x="300.59999999999997" y="75.39999999999999" type="curve"/>
      <point x="301.8" y="75.39999999999999" type="line"/>
      <point x="329.49999999999994" y="16.599999999999998"/>
      <point x="373.1" y="-10.0"/>
      <point x="445.00000000000006" y="-10.0" type="curve" smooth="yes"/>
      <point x="502.00000000000006" y="-10.0"/>
      <point x="546.3" y="-1.5000000000000002"/>
      <point x="586.5000000000001" y="13.9" type="curve"/>
      <point x="577.6999999999999" y="61.7" type="line"/>
      <point x="540.8" y="49.9"/>
      <point x="497.2" y="41.7"/>
      <point x="452.09999999999997" y="41.7" type="curve" smooth="yes"/>
      <point x="367.0" y="41.7"/>
      <point x="328.4" y="87.39999999999999"/>
      <point x="327.99999999999994" y="248.70000000000002" type="curve" smooth="yes"/>
      <point x="327.8" y="254.49999999999997"/>
      <point x="327.8" y="262.40000000000003"/>
      <point x="328.29999999999995" y="267.2" type="curve"/>
      <point x="455.3" y="268.3"/>
      <point x="550.3" y="281.8"/>
      <point x="593.6999999999999" y="287.3" type="curve"/>
      <point x="593.8000000000001" y="294.7"/>
      <point x="594.8000000000001" y="304.20000000000005"/>
      <point x="594.8000000000001" y="318.40000000000003" type="curve" smooth="yes"/>
      <point x="594.8000000000001" y="473.4"/>
      <point x="542.0999999999999" y="544.0"/>
      <point x="439.9" y="544.0" type="curve" smooth="yes"/>
      <point x="380.40000000000003" y="544.0"/>
      <point x="330.0" y="512.1999999999999"/>
      <point x="306.0" y="439.2" type="curve"/>
      <point x="305.0" y="439.2" type="line"/>
      <point x="296.0" y="507.3"/>
      <point x="253.2" y="544.0"/>
      <point x="178.39999999999998" y="544.0" type="curve" smooth="yes"/>
      <point x="139.20000000000002" y="544.0"/>
      <point x="92.5" y="535.9000000000001"/>
      <point x="49.8" y="521.1999999999999" type="curve"/>
      <point x="61.8" y="472.4" type="line"/>
      <point x="105.1" y="486.29999999999995"/>
      <point x="144.00000000000003" y="490.9"/>
      <point x="175.3" y="490.9" type="curve" smooth="yes"/>
      <point x="239.29999999999998" y="490.9"/>
      <point x="271.29999999999995" y="457.5"/>
      <point x="271.29999999999995" y="395.2" type="curve" smooth="yes"/>
      <point x="271.29999999999995" y="305.8" type="line"/>
      <point x="98.1" y="276.2"/>
      <point x="20.1" y="234.10000000000002"/>
      <point x="20.1" y="119.99999999999999" type="curve" smooth="yes"/>
      <point x="20.1" y="36.7"/>
      <point x="63.8" y="-10.0"/>
    </contour>
    <contour>
      <point x="149.0" y="34.6" type="curve" smooth="yes"/>
      <point x="104.39999999999999" y="34.6"/>
      <point x="76.10000000000001" y="67.3"/>
      <point x="76.10000000000001" y="127.09999999999998" type="curve" smooth="yes"/>
      <point x="76.10000000000001" y="211.9"/>
      <point x="148.3" y="246.9"/>
      <point x="271.1" y="267.9" type="curve"/>
      <point x="271.1" y="258.6"/>
      <point x="271.1" y="248.89999999999998"/>
      <point x="271.1" y="239.4" type="curve" smooth="yes"/>
      <point x="271.1" y="185.5"/>
      <point x="275.5" y="143.0"/>
      <point x="282.0" y="110.89999999999999" type="curve"/>
      <point x="247.8" y="68.6"/>
      <point x="195.8" y="34.6"/>
    </contour>
    <contour>
      <point x="328.4" y="305.3" type="curve"/>
      <point x="328.5" y="450.0"/>
      <point x="377.5" y="498.8"/>
      <point x="436.7" y="498.8" type="curve" smooth="yes"/>
      <point x="503.40000000000003" y="498.8"/>
      <point x="537.4" y="441.3"/>
      <point x="538.4000000000001" y="319.9" type="curve"/>
      <point x="509.79999999999995" y="314.40000000000003"/>
      <point x="420.09999999999997" y="305.3"/>
    </contour>
  </outline>
</glyph>
<glyph name="eth" format="2">
  <advance width="404.5"/>
  <unicode hex="00F0"/>
  <outline>
    <contour>
      <point x="324.8" y="462.1" type="curve"/>
      <point x="327.7" y="505.90000000000003" type="line"/>
      <point x="298.2" y="527.6"/>
      <point x="261.4" y="536.1"/>
      <point x="217.9" y="536.1" type="curve" smooth="yes"/>
      <point x="90.3" y="536.1"/>
      <point x="33.0" y="449.70000000000005"/>
      <point x="33.0" y="255.4" type="curve" smooth="yes"/>
      <point x="33.0" y="66.2"/>
      <point x="84.2" y="-10.0"/>
      <point x="195.10000000000002" y="-10.0" type="curve" smooth="yes"/>
      <point x="324.7" y="-10.0"/>
      <point x="371.3" y="72.0"/>
      <point x="371.3" y="331.3" type="curve" smooth="yes"/>
      <point x="371.3" y="601.9"/>
      <point x="311.7" y="718.8"/>
      <point x="151.4" y="718.8" type="curve" smooth="yes"/>
      <point x="111.3" y="718.8"/>
      <point x="78.8" y="713.2"/>
      <point x="36.7" y="701.6999999999999" type="curve"/>
      <point x="44.9" y="661.4000000000001" type="line"/>
      <point x="80.1" y="670.6"/>
      <point x="106.1" y="676.2"/>
      <point x="140.6" y="676.2" type="curve" smooth="yes"/>
      <point x="269.2" y="676.2"/>
      <point x="315.4" y="594.0"/>
      <point x="315.4" y="333.7" type="curve" smooth="yes"/>
      <point x="315.4" y="101.6"/>
      <point x="284.09999999999997" y="34.900000000000006"/>
      <point x="198.8" y="34.900000000000006" type="curve" smooth="yes"/>
      <point x="123.4" y="34.900000000000006"/>
      <point x="90.6" y="94.80000000000001"/>
      <point x="90.6" y="255.9" type="curve" smooth="yes"/>
      <point x="90.6" y="428.90000000000003"/>
      <point x="136.6" y="492.90000000000003"/>
      <point x="224.70000000000002" y="492.90000000000003" type="curve" smooth="yes"/>
      <point x="261.9" y="492.90000000000003"/>
      <point x="294.5" y="486.0"/>
    </contour>
    <contour>
      <point x="129.1" y="565.6" type="line"/>
      <point x="266.20000000000005" y="650.3" type="line"/>
      <point x="270.70000000000005" y="654.4" type="line"/>
      <point x="379.7" y="724.4" type="line"/>
      <point x="321.3" y="724.4" type="line"/>
      <point x="245.70000000000002" y="677.1" type="line"/>
      <point x="242.79999999999998" y="674.0" type="line"/>
      <point x="70.2" y="565.6" type="line"/>
    </contour>
  </outline>
</glyph>
<glyph name="divide" format="2">
  <advance width="425.0"/>
  <unicode hex="00F7"/>
  <outline>
    <contour>
      <point x="181.44" y="106.88" type="curve" smooth="yes"/>
      <point x="181.44" y="82.27999999999999"/>
      <point x="187.88000000000002" y="75.47999999999999"/>
      <point x="212.6" y="75.47999999999999" type="curve" smooth="yes"/>
      <point x="237.44000000000003" y="75.47999999999999"/>
      <point x="243.76" y="82.27999999999999"/>
      <point x="243.76" y="106.88" type="curve" smooth="yes"/>
      <point x="243.76" y="131.28000000000003"/>
      <point x="236.96" y="138.28000000000003"/>
      <point x="212.6" y="138.28000000000003" type="curve" smooth="yes"/>
      <point x="187.56" y="138.28000000000003"/>
      <point x="181.44" y="131.28000000000003"/>
    </contour>
    <contour>
      <point x="181.44" y="486.71999999999997" type="curve" smooth="yes"/>
      <point x="181.44" y="462.32"/>
      <point x="188.35999999999999" y="455.52"/>
      <point x="212.6" y="455.52" type="curve" smooth="yes"/>
      <point x="237.44000000000003" y="455.52"/>
      <point x="243.76" y="462.32"/>
      <point x="243.76" y="486.71999999999997" type="curve" smooth="yes"/>
      <point x="243.76" y="511.52"/>
      <point x="237.44000000000003" y="518.32"/>
      <point x="212.6" y="518.32" type="curve" smooth="yes"/>
      <point x="187.56" y="518.32"/>
      <point x="181.44" y="511.52"/>
    </contour>
    <contour>
      <point x="44.279999999999994" y="271.99999999999994" type="line"/>
      <point x="380.92" y="271.99999999999994" type="line"/>
      <point x="380.92" y="321.99999999999994" type="line"/>
      <point x="44.279999999999994" y="321.99999999999994" type="line"/>
    </contour>
  </outline>
</glyph>
<glyph name="oslash" format="2">
  <advance width="410.3"/>
  <unicode hex="00F8"/>
  <anchor x="204.4" y="534.0" name="top"/>
  <outline>
    <contour>
      <point x="204.4" y="-10.0" type="curve" smooth="yes"/>
      <point x="79.60000000000001" y="-10.0"/>
      <point x="32.8" y="64.4"/>
      <point x="32.8" y="267.7" type="curve" smooth="yes"/>
      <point x="32.8" y="468.20000000000005"/>
      <point x="75.9" y="544.0"/>
      <point x="204.4" y="544.0" type="curve" smooth="yes"/>
      <point x="333.0" y="544.0"/>
      <point x="376.5" y="468.20000000000005"/>
      <point x="376.5" y="267.7" type="curve" smooth="yes"/>
      <point x="376.5" y="64.4"/>
      <point x="329.5" y="-10.0"/>
    </contour>
    <contour>
      <point x="204.6" y="36.1" type="curve" smooth="yes"/>
      <point x="287.70000000000005" y="36.1"/>
      <point x="320.7" y="87.5"/>
      <point x="320.7" y="267.7" type="curve" smooth="yes"/>
      <point x="320.7" y="445.6"/>
      <point x="290.6" y="498.09999999999997"/>
      <point x="204.6" y="498.09999999999997" type="curve" smooth="yes"/>
      <point x="118.5" y="498.09999999999997"/>
      <point x="88.6" y="445.6"/>
      <point x="88.6" y="267.7" type="curve" smooth="yes"/>
      <point x="88.6" y="87.5"/>
      <point x="121.6" y="36.1"/>
    </contour>
    <contour>
      <point x="31.5" y="-8.4" type="line"/>
      <point x="82.7" y="86.10000000000001" type="line"/>
      <point x="85.0" y="85.5" type="line"/>
      <point x="300.1" y="488.7" type="line"/>
      <point x="302.79999999999995" y="488.1" type="line"/>
      <point x="333.9" y="544.0" type="line"/>
      <point x="377.79999999999995" y="544.0" type="line"/>
      <point x="327.59999999999997" y="453.0" type="line"/>
      <point x="325.09999999999997" y="453.6" type="line"/>
      <point x="110.10000000000001" y="49.9" type="line"/>
      <point x="107.4" y="50.5" type="line"/>
      <point x="75.0" y="-8.4" type="line"/>
    </contour>
  </outline>
</glyph>
<glyph name="thorn" format="2">
  <advance width="405.16"/>
  <unicode hex="00FE"/>
  <outline>
    <contour>
      <point x="53.2" y="-210.0" type="line"/>
      <point x="108.92" y="-210.0" type="line"/>
      <point x="108.92" y="-0.6000000000000001" type="line"/>
      <point x="136.48000000000002" y="-7.24"/>
      <point x="162.48" y="-10.0"/>
      <point x="185.76000000000002" y="-10.0" type="curve" smooth="yes"/>
      <point x="318.64000000000004" y="-10.0"/>
      <point x="372.0" y="69.64"/>
      <point x="372.0" y="277.24" type="curve" smooth="yes"/>
      <point x="372.0" y="451.67999999999995"/>
      <point x="318.2" y="544.0"/>
      <point x="216.24" y="544.0" type="curve" smooth="yes"/>
      <point x="181.56000000000003" y="544.0"/>
      <point x="140.76000000000002" y="534.16"/>
      <point x="109.24" y="520.28" type="curve"/>
      <point x="109.24" y="740.0" type="line"/>
      <point x="53.2" y="740.0" type="line"/>
    </contour>
    <contour>
      <point x="183.32000000000002" y="34.519999999999996" type="curve" smooth="yes"/>
      <point x="162.88" y="34.519999999999996"/>
      <point x="141.36" y="37.6"/>
      <point x="109.36" y="45.199999999999996" type="curve"/>
      <point x="109.36" y="473.16" type="line"/>
      <point x="142.28" y="488.28"/>
      <point x="168.72" y="493.76000000000005"/>
      <point x="197.32" y="493.76000000000005" type="curve" smooth="yes"/>
      <point x="274.32" y="493.76000000000005"/>
      <point x="314.08" y="420.15999999999997"/>
      <point x="314.08" y="273.32" type="curve" smooth="yes"/>
      <point x="314.08" y="94.4"/>
      <point x="277.76" y="34.519999999999996"/>
    </contour>
  </outline>
</glyph>
<glyph name="Dcroat" format="2">
  <advance width="488.06000000000006"/>
  <unicode hex="0110"/>
  <outline>
    <contour>
      <point x="3.8000000000000007" y="333.20000000000005" type="line"/>
      <point x="231.98" y="333.20000000000005" type="line"/>
      <point x="231.98" y="382.90000000000003" type="line"/>
      <point x="3.8000000000000007" y="382.90000000000003" type="line"/>
    </contour>
    <component base="D" xOffset="4.659999999999999"/>
  </outline>
</glyph>
<glyph name="dcroat" format="2">
  <advance width="407.1"/>
  <unicode hex="0111"/>
  <outline>
    <contour>
      <point x="180.32" y="614.5" type="line"/>
      <point x="410.46000000000004" y="614.5" type="line"/>
      <point x="410.46000000000004" y="651.9000000000001" type="line"/>
      <point x="180.32" y="651.9000000000001" type="line"/>
    </contour>
    <component base="d"/>
  </outline>
</glyph>
<glyph name="Hbar" format="2">
  <advance width="502.52000000000004"/>
  <unicode hex="0126"/>
  <outline>
    <contour>
      <point x="15.600000000000001" y="501.2" type="line"/>
      <point x="56.8" y="501.2" type="line"/>
      <point x="56.8" y="0.0" type="line"/>
      <point x="113.6" y="0.0" type="line"/>
      <point x="113.6" y="277.6" type="line"/>
      <point x="389.32000000000005" y="277.6" type="line"/>
      <point x="389.32000000000005" y="0.0" type="line"/>
      <point x="445.72" y="0.0" type="line"/>
      <point x="445.72" y="501.2" type="line"/>
      <point x="486.92" y="501.2" type="line"/>
      <point x="486.92" y="545.44" type="line"/>
      <point x="445.72" y="545.44" type="line"/>
      <point x="445.72" y="700.0" type="line"/>
      <point x="389.32000000000005" y="700.0" type="line"/>
      <point x="389.32000000000005" y="545.44" type="line"/>
      <point x="113.6" y="545.44" type="line"/>
      <point x="113.6" y="700.0" type="line"/>
      <point x="56.8" y="700.0" type="line"/>
      <point x="56.8" y="545.44" type="line"/>
      <point x="15.600000000000001" y="545.44" type="line"/>
    </contour>
    <contour>
      <point x="113.6" y="332.16" type="line"/>
      <point x="113.6" y="501.2" type="line"/>
      <point x="389.32000000000005" y="501.2" type="line"/>
      <point x="389.32000000000005" y="332.16" type="line"/>
    </contour>
  </outline>
</glyph>
<glyph name="hbar" format="2">
  <advance width="412.34"/>
  <unicode hex="0127"/>
  <outline>
    <contour>
      <point x="-2.18" y="614.5" type="line"/>
      <point x="234.26000000000005" y="614.5" type="line"/>
      <point x="234.26000000000005" y="651.9000000000001" type="line"/>
      <point x="-2.18" y="651.9000000000001" type="line"/>
    </contour>
    <component base="h"/>
  </outline>
</glyph>
<glyph name="Idotaccent" format="2">
  <advance width="170.32"/>
  <unicode hex="0130"/>
  <outline>
    <contour>
      <point x="85.39999999999999" y="794.24" type="curve" smooth="yes"/>
      <point x="112.36" y="794.24"/>
      <point x="119.96000000000001" y="802.48"/>
      <point x="119.96000000000001" y="829.84" type="curve" smooth="yes"/>
      <point x="119.96000000000001" y="857.52"/>
      <point x="112.04" y="865.5999999999999"/>
      <point x="85.39999999999999" y="865.5999999999999" type="curve" smooth="yes"/>
      <point x="58.6" y="865.5999999999999"/>
      <point x="50.68000000000001" y="857.52"/>
      <point x="50.68000000000001" y="829.84" type="curve" smooth="yes"/>
      <point x="50.68000000000001" y="802.3199999999999"/>
      <point x="59.4" y="794.24"/>
    </contour>
    <component base="I"/>
  </outline>
</glyph>
<glyph name="dotlessi" format="2">
  <advance width="162.88"/>
  <unicode hex="0131"/>
  <anchor x="107.67999999999999" y="2.0" name="ogonek"/>
  <anchor x="81.76" y="0.0" name="bottom"/>
  <anchor x="81.44" y="534.0" name="top"/>
  <outline>
    <contour>
      <point x="53.2" y="0.0" type="line"/>
      <point x="109.67999999999999" y="0.0" type="line"/>
      <point x="109.67999999999999" y="534.0" type="line"/>
      <point x="53.2" y="534.0" type="line"/>
    </contour>
  </outline>
</glyph>
<glyph name="kgreenlandic" format="2">
  <advance width="381.3"/>
  <unicode hex="0138"/>
  <anchor x="196.6" y="534.0" name="top"/>
  <anchor x="196.6" y="0.0" name="bottom"/>
  <outline>
    <contour>
      <point x="362.6" y="-7.6" type="curve" smooth="yes"/>
      <point x="370.5" y="-7.6"/>
      <point x="378.1" y="-6.0"/>
      <point x="384.8" y="-4.1" type="curve"/>
      <point x="382.70000000000005" y="54.800000000000004" type="line"/>
      <point x="378.2" y="54.2"/>
      <point x="373.4" y="53.2"/>
      <point x="369.90000000000003" y="53.2" type="curve" smooth="yes"/>
      <point x="346.2" y="53.2"/>
      <point x="326.7" y="67.39999999999999"/>
      <point x="246.1" y="175.3" type="curve" smooth="yes"/>
      <point x="107.2" y="361.5" type="line"/>
      <point x="107.2" y="534.0" type="line"/>
      <point x="53.2" y="534.0" type="line"/>
      <point x="53.2" y="0.0" type="line"/>
      <point x="107.2" y="0.0" type="line"/>
      <point x="107.2" y="274.09999999999997" type="line"/>
      <point x="228.0" y="113.8" type="line" smooth="yes"/>
      <point x="311.70000000000005" y="2.5999999999999996"/>
      <point x="329.29999999999995" y="-7.6"/>
    </contour>
    <contour>
      <point x="176.8" y="237.5" type="line"/>
      <point x="242.8" y="312.8"/>
      <point x="326.9" y="408.3"/>
      <point x="357.7" y="531.4000000000001" type="curve"/>
      <point x="303.4" y="539.6" type="line"/>
      <point x="274.1" y="415.8"/>
      <point x="202.0" y="341.59999999999997"/>
      <point x="138.39999999999998" y="271.1" type="curve"/>
    </contour>
  </outline>
</glyph>
<glyph name="Ldot" format="2">
  <advance width="366.0"/>
  <unicode hex="013F"/>
  <outline>
    <contour>
      <point x="239.76000000000002" y="369.15999999999997" type="curve" smooth="yes"/>
      <point x="239.76000000000002" y="345.35999999999996"/>
      <point x="245.4" y="338.99999999999994"/>
      <point x="267.4" y="338.99999999999994" type="curve" smooth="yes"/>
      <point x="290.36" y="338.99999999999994"/>
      <point x="295.2" y="345.35999999999996"/>
      <point x="295.2" y="369.15999999999997" type="curve" smooth="yes"/>
      <point x="295.2" y="393.15999999999997"/>
      <point x="290.36" y="399.52"/>
      <point x="267.4" y="399.52" type="curve" smooth="yes"/>
      <point x="244.6" y="399.52"/>
      <point x="239.76000000000002" y="393.15999999999997"/>
    </contour>
    <component base="L"/>
  </outline>
</glyph>
<glyph name="ldot" format="2">
  <advance width="222.8"/>
  <unicode hex="0140"/>
  <outline>
    <contour>
      <point x="193.8" y="333.56" type="curve" smooth="yes"/>
      <point x="213.6" y="333.56"/>
      <point x="218.48" y="339.12"/>
      <point x="218.48" y="362.68" type="curve" smooth="yes"/>
      <point x="218.48" y="386.40000000000003"/>
      <point x="213.6" y="391.96000000000004"/>
      <point x="193.8" y="391.96000000000004" type="curve" smooth="yes"/>
      <point x="174.16" y="391.96000000000004"/>
      <point x="169.28" y="386.40000000000003"/>
      <point x="169.28" y="362.68" type="curve" smooth="yes"/>
      <point x="169.28" y="339.12"/>
      <point x="174.96" y="333.56"/>
    </contour>
    <component base="l"/>
  </outline>
</glyph>
<glyph name="Lslash" format="2">
  <advance width="384.08"/>
  <unicode hex="0141"/>
  <outline>
    <contour>
      <point x="20.4" y="204.6" type="line"/>
      <point x="74.84" y="247.79999999999998" type="line"/>
      <point x="74.84" y="0.0" type="line"/>
      <point x="373.88000000000005" y="0.0" type="line"/>
      <point x="373.88000000000005" y="53.44" type="line"/>
      <point x="131.79999999999998" y="53.44" type="line"/>
      <point x="131.79999999999998" y="281.08" type="line"/>
      <point x="292.52000000000004" y="404.6" type="line"/>
      <point x="292.52000000000004" y="462.03999999999996" type="line"/>
      <point x="131.79999999999998" y="339.15999999999997" type="line"/>
      <point x="131.79999999999998" y="700.0" type="line"/>
      <point x="74.84" y="700.0" type="line"/>
      <point x="74.84" y="305.88000000000005" type="line"/>
      <point x="20.4" y="262.68" type="line"/>
    </contour>
  </outline>
</glyph>
<glyph name="lslash" format="2">
  <advance width="207.11999999999998"/>
  <unicode hex="0142"/>
  <outline>
    <contour>
      <point x="144.76" y="-10.0" type="curve" smooth="yes"/>
      <point x="166.12" y="-10.0"/>
      <point x="188.51999999999998" y="-4.64"/>
      <point x="206.56" y="2.4400000000000004" type="curve"/>
      <point x="200.40000000000003" y="53.56" type="line"/>
      <point x="183.36" y="48.72"/>
      <point x="169.92" y="46.44"/>
      <point x="158.72" y="46.44" type="curve" smooth="yes"/>
      <point x="131.28" y="46.44"/>
      <point x="111.67999999999999" y="60.120000000000005"/>
      <point x="111.67999999999999" y="145.44" type="curve" smooth="yes"/>
      <point x="111.67999999999999" y="288.2" type="line"/>
      <point x="193.79999999999998" y="365.64000000000004" type="line"/>
      <point x="193.79999999999998" y="418.8" type="line"/>
      <point x="111.67999999999999" y="341.36" type="line"/>
      <point x="111.67999999999999" y="740.0" type="line"/>
      <point x="55.68" y="740.0" type="line"/>
      <point x="55.68" y="295.15999999999997" type="line"/>
      <point x="6.32" y="248.84" type="line"/>
      <point x="6.32" y="196.32000000000002" type="line"/>
      <point x="55.76" y="242.04" type="line"/>
      <point x="55.84" y="134.51999999999998" type="line" smooth="yes"/>
      <point x="56.52" y="16.08"/>
      <point x="88.39999999999999" y="-10.0"/>
    </contour>
  </outline>
</glyph>
<glyph name="Eng" format="2">
  <advance width="499.3"/>
  <unicode hex="014A"/>
  <outline>
    <contour>
      <point x="56.9" y="0.0" type="line"/>
      <point x="109.0" y="0.0" type="line"/>
      <point x="109.0" y="578.4" type="line"/>
      <point x="387.40000000000003" y="2.7999999999999994" type="line"/>
      <point x="387.40000000000003" y="-11.4" type="line" smooth="yes"/>
      <point x="386.6" y="-80.80000000000001"/>
      <point x="347.09999999999997" y="-107.2"/>
      <point x="280.3" y="-107.2" type="curve" smooth="yes"/>
      <point x="263.9" y="-107.2"/>
      <point x="244.29999999999998" y="-105.0"/>
      <point x="228.0" y="-101.2" type="curve"/>
      <point x="220.2" y="-150.6" type="line"/>
      <point x="238.7" y="-156.5"/>
      <point x="263.2" y="-161.20000000000002"/>
      <point x="288.8" y="-161.20000000000002" type="curve" smooth="yes"/>
      <point x="396.5" y="-161.20000000000002"/>
      <point x="442.4" y="-104.8"/>
      <point x="442.4" y="-11.0" type="curve" smooth="yes"/>
      <point x="442.4" y="700.0" type="line"/>
      <point x="390.5" y="700.0" type="line"/>
      <point x="390.5" y="118.80000000000001" type="line"/>
      <point x="112.10000000000001" y="701.6" type="line"/>
      <point x="56.9" y="701.6" type="line"/>
    </contour>
  </outline>
</glyph>
<glyph name="eng" format="2">
  <advance width="412.32000000000005"/>
  <unicode hex="014B"/>
  <outline>
    <contour>
      <point x="359.44" y="15.0" type="curve"/>
      <point x="359.44" y="421.76" type="line" smooth="yes"/>
      <point x="359.44" y="504.35999999999996"/>
      <point x="315.84000000000003" y="544.0"/>
      <point x="245.51999999999998" y="544.0" type="curve" smooth="yes"/>
      <point x="193.56" y="544.0"/>
      <point x="148.72" y="526.7199999999999"/>
      <point x="105.39999999999999" y="501.67999999999995" type="curve"/>
      <point x="105.39999999999999" y="534.0" type="line"/>
      <point x="53.2" y="534.0" type="line"/>
      <point x="53.2" y="0.0" type="line"/>
      <point x="109.36" y="0.0" type="line"/>
      <point x="109.36" y="457.08" type="line"/>
      <point x="145.56" y="478.08"/>
      <point x="184.08" y="493.16"/>
      <point x="223.16" y="493.16" type="curve" smooth="yes"/>
      <point x="277.56000000000006" y="493.16"/>
      <point x="303.28000000000003" y="462.2"/>
      <point x="303.28000000000003" y="407.84" type="curve" smooth="yes"/>
      <point x="303.28000000000003" y="13.56" type="line" smooth="yes"/>
      <point x="303.28000000000003" y="-68.16"/>
      <point x="285.36" y="-120.16"/>
      <point x="252.56" y="-145.76" type="curve" smooth="yes"/>
      <point x="246.75999999999996" y="-149.92000000000002"/>
      <point x="240.32" y="-153.04"/>
      <point x="233.72" y="-155.35999999999999" type="curve"/>
      <point x="239.04000000000002" y="-209.24" type="line"/>
      <point x="250.44000000000003" y="-206.44"/>
      <point x="261.44" y="-202.08"/>
      <point x="272.84000000000003" y="-197.28" type="curve" smooth="yes"/>
      <point x="328.23999999999995" y="-168.0"/>
      <point x="359.44" y="-97.52"/>
    </contour>
  </outline>
</glyph>
<glyph name="OE" format="2">
  <advance width="718.04"/>
  <unicode hex="0152"/>
  <outline>
    <contour>
      <point x="698.9" y="0.0" type="line"/>
      <point x="698.9" y="54.199999999999996" type="line"/>
      <point x="426.9200000000001" y="54.199999999999996" type="line"/>
      <point x="426.9200000000001" y="336.9" type="line"/>
      <point x="665.2800000000002" y="336.9" type="line"/>
      <point x="665.2800000000002" y="389.90000000000003" type="line"/>
      <point x="426.9200000000001" y="389.90000000000003" type="line"/>
      <point x="426.9200000000001" y="645.5" type="line"/>
      <point x="684.92" y="645.5" type="line"/>
      <point x="684.92" y="700.0" type="line"/>
      <point x="418.82000000000005" y="700.0" type="line"/>
      <point x="369.64000000000004" y="704.02"/>
      <point x="317.36" y="706.1200000000001"/>
      <point x="270.82" y="706.1200000000001" type="curve" smooth="yes"/>
      <point x="128.88000000000002" y="706.1200000000001"/>
      <point x="35.580000000000005" y="639.6400000000001"/>
      <point x="35.580000000000005" y="351.91999999999996" type="curve" smooth="yes"/>
      <point x="35.580000000000005" y="62.08"/>
      <point x="133.66000000000003" y="-7.4799999999999995"/>
      <point x="273.22" y="-7.4799999999999995" type="curve" smooth="yes"/>
      <point x="320.82" y="-7.4799999999999995"/>
      <point x="370.18" y="-4.9"/>
      <point x="426.82000000000005" y="0.0" type="curve"/>
    </contour>
    <contour>
      <point x="369.72" y="47.580000000000005" type="line"/>
      <point x="346.62" y="45.580000000000005"/>
      <point x="309.19999999999993" y="43.24"/>
      <point x="277.3" y="43.24" type="curve" smooth="yes"/>
      <point x="172.86" y="43.24"/>
      <point x="94.88" y="90.97999999999999"/>
      <point x="94.88" y="351.0" type="curve" smooth="yes"/>
      <point x="94.88" y="610.5"/>
      <point x="174.2" y="655.98"/>
      <point x="276.18" y="655.98" type="curve" smooth="yes"/>
      <point x="296.61999999999995" y="655.98"/>
      <point x="350.38" y="653.1999999999999"/>
      <point x="369.72" y="651.4399999999999" type="curve"/>
    </contour>
  </outline>
</glyph>
<glyph name="oe" format="2">
  <advance width="681.52"/>
  <unicode hex="0153"/>
  <outline>
    <contour>
      <point x="33.160000000000004" y="267.65999999999997" type="curve" smooth="yes"/>
      <point x="33.160000000000004" y="64.16"/>
      <point x="80.03999999999999" y="-10.0"/>
      <point x="205.22" y="-10.0" type="curve" smooth="yes"/>
      <point x="288.32" y="-10.0"/>
      <point x="326.96" y="27.34"/>
      <point x="347.9" y="106.83999999999999" type="curve"/>
      <point x="371.06" y="29.14"/>
      <point x="418.4" y="-10.0"/>
      <point x="496.96000000000004" y="-10.0" type="curve" smooth="yes"/>
      <point x="551.02" y="-10.0"/>
      <point x="604.32" y="-0.40000000000000013"/>
      <point x="644.5" y="14.120000000000001" type="curve"/>
      <point x="635.88" y="61.98" type="line"/>
      <point x="594.6" y="49.6"/>
      <point x="544.36" y="41.12"/>
      <point x="501.78000000000003" y="41.12" type="curve" smooth="yes"/>
      <point x="427.98" y="41.12"/>
      <point x="376.58" y="85.52"/>
      <point x="376.58" y="230.48" type="curve" smooth="yes"/>
      <point x="376.58" y="242.79999999999998"/>
      <point x="376.53999999999996" y="257.72"/>
      <point x="377.0" y="271.03999999999996" type="curve"/>
      <point x="504.76" y="272.03999999999996"/>
      <point x="609.3199999999999" y="283.28"/>
      <point x="652.04" y="288.2" type="curve"/>
      <point x="652.24" y="295.28"/>
      <point x="653.24" y="304.64000000000004"/>
      <point x="653.24" y="319.28000000000003" type="curve" smooth="yes"/>
      <point x="653.24" y="476.28000000000003"/>
      <point x="600.4399999999999" y="544.0"/>
      <point x="495.88" y="544.0" type="curve" smooth="yes"/>
      <point x="423.24" y="544.0"/>
      <point x="376.66" y="503.68"/>
      <point x="351.74" y="421.5" type="curve"/>
      <point x="329.94" y="504.34000000000003"/>
      <point x="291.58" y="544.0"/>
      <point x="205.22" y="544.0" type="curve" smooth="yes"/>
      <point x="76.5" y="544.0"/>
      <point x="33.160000000000004" y="468.15999999999997"/>
    </contour>
    <contour>
      <point x="90.47999999999999" y="267.62" type="curve" smooth="yes"/>
      <point x="90.47999999999999" y="443.52"/>
      <point x="120.18" y="495.85999999999996"/>
      <point x="205.18" y="495.85999999999996" type="curve" smooth="yes"/>
      <point x="289.56" y="495.85999999999996"/>
      <point x="319.38" y="443.52"/>
      <point x="319.38" y="267.62" type="curve" smooth="yes"/>
      <point x="319.38" y="89.42"/>
      <point x="287.0" y="38.3"/>
      <point x="205.18" y="38.3" type="curve" smooth="yes"/>
      <point x="123.2" y="38.3"/>
      <point x="90.47999999999999" y="89.42"/>
    </contour>
    <contour>
      <point x="377.38" y="308.28" type="curve"/>
      <point x="387.62" y="465.44"/>
      <point x="437.84" y="499.06"/>
      <point x="494.96" y="499.06" type="curve" smooth="yes"/>
      <point x="559.26" y="499.06"/>
      <point x="596.52" y="451.98"/>
      <point x="597.12" y="320.42" type="curve"/>
      <point x="570.98" y="315.76"/>
      <point x="475.3" y="308.32"/>
    </contour>
  </outline>
</glyph>
<glyph name="uni0162" format="2">
  <advance width="389.43999999999994"/>
  <unicode hex="0162"/>
  <outline>
    <contour>
      <point x="122.52000000000001" y="-168.0" type="curve"/>
      <point x="116.67999999999999" y="-205.28" type="line"/>
      <point x="141.0" y="-216.32"/>
      <point x="163.8" y="-220.0"/>
      <point x="182.28" y="-220.0" type="curve" smooth="yes"/>
      <point x="238.15999999999997" y="-220.0"/>
      <point x="260.28000000000003" y="-180.08"/>
      <point x="260.28000000000003" y="-131.84" type="curve" smooth="yes"/>
      <point x="260.28000000000003" y="-89.88"/>
      <point x="237.88000000000002" y="-36.559999999999995"/>
      <point x="214.4" y="2.16" type="curve"/>
      <point x="173.0" y="1.3600000000000003" type="line"/>
      <point x="197.83999999999997" y="-43.72"/>
      <point x="218.88000000000002" y="-87.36"/>
      <point x="218.88000000000002" y="-122.56000000000002" type="curve" smooth="yes"/>
      <point x="218.88000000000002" y="-158.88000000000002"/>
      <point x="201.36" y="-179.76000000000002"/>
      <point x="171.40000000000003" y="-179.76000000000002" type="curve" smooth="yes"/>
      <point x="156.84" y="-179.76000000000002"/>
      <point x="140.6" y="-175.71999999999997"/>
    </contour>
    <component base="T"/>
  </outline>
</glyph>
<glyph name="Tbar" format="2">
  <advance width="390.23999999999995"/>
  <unicode hex="0166"/>
  <outline>
    <contour>
      <point x="51.92" y="342.0" type="line"/>
      <point x="166.8" y="342.0" type="line"/>
      <point x="166.8" y="0.0" type="line"/>
      <point x="223.6" y="0.0" type="line"/>
      <point x="223.6" y="342.0" type="line"/>
      <point x="338.0" y="342.0" type="line"/>
      <point x="338.0" y="392.64" type="line"/>
      <point x="223.6" y="392.64" type="line"/>
      <point x="223.6" y="646.24" type="line"/>
      <point x="383.08" y="646.24" type="line"/>
      <point x="383.08" y="700.0" type="line"/>
      <point x="7.16" y="700.0" type="line"/>
      <point x="7.16" y="646.24" type="line"/>
      <point x="166.8" y="646.24" type="line"/>
      <point x="166.8" y="392.64" type="line"/>
      <point x="51.92" y="392.64" type="line"/>
    </contour>
  </outline>
</glyph>
<glyph name="tbar" format="2">
  <advance width="295.4"/>
  <unicode hex="0167"/>
  <outline>
    <contour>
      <point x="137.0" y="298.79999999999995" type="line"/>
      <point x="259.28" y="298.79999999999995" type="line"/>
      <point x="259.28" y="341.59999999999997" type="line"/>
      <point x="137.0" y="341.59999999999997" type="line"/>
      <point x="137.0" y="487.48" type="line"/>
      <point x="280.68" y="487.48" type="line"/>
      <point x="280.68" y="534.0" type="line"/>
      <point x="137.0" y="534.0" type="line"/>
      <point x="137.0" y="663.4" type="line"/>
      <point x="89.67999999999999" y="663.4" type="line"/>
      <point x="80.80000000000001" y="534.0" type="line"/>
      <point x="8.08" y="527.7200000000001" type="line"/>
      <point x="8.08" y="487.48" type="line"/>
      <point x="80.80000000000001" y="487.48" type="line"/>
      <point x="80.80000000000001" y="341.59999999999997" type="line"/>
      <point x="28.48" y="341.59999999999997" type="line"/>
      <point x="28.48" y="298.79999999999995" type="line"/>
      <point x="80.80000000000001" y="298.79999999999995" type="line"/>
      <point x="80.80000000000001" y="136.24" type="line" smooth="yes"/>
      <point x="80.80000000000001" y="44.96"/>
      <point x="111.56" y="-10.0"/>
      <point x="198.52" y="-10.0" type="curve" smooth="yes"/>
      <point x="225.36" y="-10.0"/>
      <point x="258.08" y="-5.88"/>
      <point x="293.16" y="6.48" type="curve"/>
      <point x="283.92" y="53.00000000000001" type="line"/>
      <point x="259.32" y="45.04"/>
      <point x="236.72000000000003" y="41.52"/>
      <point x="214.60000000000002" y="41.52" type="curve" smooth="yes"/>
      <point x="159.72" y="41.52"/>
      <point x="137.0" y="70.32"/>
      <point x="137.0" y="139.84" type="curve" smooth="yes"/>
    </contour>
  </outline>
</glyph>
